<svg width="735" height="183" viewBox="0 0 735 183" fill="none" xmlns="http://www.w3.org/2000/svg">
<path d="M659.167 180.988C639.319 180.988 622.312 176.87 608.146 168.635C593.981 160.317 583.316 149.446 576.151 136.021C568.986 122.515 565.403 108.144 565.403 92.9077C565.403 77.7541 568.945 63.5475 576.027 50.2881C583.11 36.9463 593.528 26.1576 607.282 17.9219C621.118 9.60384 637.836 5.44482 657.437 5.44482C672.426 5.44482 685.768 7.87435 697.462 12.7334C709.239 17.5101 718.34 23.728 724.764 31.3872C731.188 39.0464 734.399 46.9938 734.399 55.2295C734.399 62.4769 731.64 69.2713 726.123 75.6128C720.605 81.9543 712.369 87.0604 701.416 90.9312C687.085 86.0721 669.626 83.6426 649.037 83.6426C642.613 83.6426 637.589 84.6309 633.965 86.6074C630.424 88.5016 628.653 90.7253 628.653 93.2783C628.653 95.9961 630.589 98.3021 634.459 100.196C638.33 102.09 643.725 103.038 650.643 103.038C670.408 103.038 687.25 100.773 701.168 96.2432C711.792 100.114 719.699 105.138 724.887 111.314C730.158 117.491 732.793 124.203 732.793 131.451C732.793 139.522 729.664 147.387 723.405 155.046C717.228 162.705 708.457 168.964 697.092 173.823C685.809 178.6 673.167 180.988 659.167 180.988ZM650.643 97.9727C645.372 97.9727 641.254 97.4785 638.289 96.4902C635.407 95.502 633.965 94.4313 633.965 93.2783C633.965 92.1253 635.283 91.0959 637.918 90.1899C640.636 89.2017 644.342 88.7075 649.037 88.7075C665.59 88.7075 680.044 90.3135 692.397 93.5254C679.879 96.5726 665.961 98.055 650.643 97.9727Z" fill="white"/>
<path d="M437.89 174.935C424.631 174.935 414.501 169.294 407.5 158.011C400.5 146.728 397 132.398 397 115.021C397 98.3021 400.13 81.6248 406.389 64.9888C412.73 48.3527 421.913 34.5991 433.937 23.728C446.043 12.8569 460.126 7.42139 476.186 7.42139C492.904 7.42139 507.44 12.8158 519.794 23.6045C532.147 34.3932 541.618 48.1056 548.207 64.7417C554.796 81.3778 558.09 97.9727 558.09 114.526C558.09 131.41 554.631 145.328 547.713 156.281C540.795 167.235 530.83 172.711 517.817 172.711C503.323 172.711 492.122 167.811 484.216 158.011C489.24 150.104 491.793 141.498 491.875 132.192C491.875 126.592 490.804 121.856 488.663 117.985C486.522 114.115 483.845 112.179 480.633 112.179C477.257 112.179 474.498 114.032 472.356 117.738C470.298 121.444 469.268 126.015 469.268 131.451C469.268 135.816 469.927 140.345 471.245 145.04C472.645 149.652 474.786 153.975 477.668 158.011C473.798 163.199 468.527 167.317 461.856 170.364C455.185 173.411 447.196 174.935 437.89 174.935ZM472.851 89.2017C473.18 89.6958 473.839 89.9429 474.827 89.9429C475.98 89.9429 477.01 89.5311 477.916 88.7075C480.798 85.825 482.939 82.2013 484.339 77.8364C485.822 73.3892 486.563 68.736 486.563 63.877C486.563 54.9001 484.504 47.5703 480.386 41.8877C479.727 41.0641 478.986 40.57 478.163 40.4053C477.339 40.1582 476.68 40.3229 476.186 40.8994C475.692 41.3936 475.404 41.8877 475.321 42.3818C475.321 43.0407 475.774 43.9466 476.68 45.0996C478.163 47.6527 479.398 50.6999 480.386 54.2412C481.457 57.7826 481.992 61.3239 481.992 64.8652C481.992 69.0654 481.333 72.9362 480.016 76.4775C478.78 80.0189 476.804 82.9014 474.086 85.125C473.427 85.7839 472.974 86.5251 472.727 87.3486C472.48 88.0898 472.521 88.7075 472.851 89.2017ZM480.88 153.193C476.68 146.11 474.58 138.533 474.58 130.462C474.58 126.592 475.115 123.421 476.186 120.95C477.339 118.479 478.821 117.244 480.633 117.244C482.28 117.244 483.722 118.603 484.957 121.321C486.192 124.039 486.81 127.415 486.81 131.451C486.81 138.863 484.833 146.11 480.88 153.193Z" fill="white"/>
<path d="M269.226 173.7C259.919 173.7 251.931 169.705 245.26 161.717C238.589 153.646 233.524 143.228 230.065 130.462C226.688 117.615 225 103.944 225 89.4487C225 75.1187 226.688 61.7357 230.065 49.2998C233.524 36.7816 238.712 26.6517 245.63 18.9102C252.548 11.0863 260.99 7.17432 270.955 7.17432C281.744 7.17432 290.432 10.3039 297.021 16.563C291.997 24.7987 289.485 33.7344 289.485 43.3701C289.485 49.4645 290.515 54.5295 292.574 58.5649C294.715 62.6004 297.639 64.6182 301.345 64.6182C304.392 64.6182 306.945 62.4357 309.004 58.0708C311.145 53.7059 312.216 48.4762 312.216 42.3818C312.216 37.8522 311.475 33.2814 309.992 28.6694C308.592 23.9751 306.451 19.7749 303.568 16.0688C311.31 5.93896 322.14 0.874023 336.058 0.874023C348 0.874023 358.13 5.03304 366.448 13.3511C374.848 21.5868 381.107 32.3755 385.225 45.7173C389.343 58.9767 391.402 73.2244 391.402 88.4604C391.402 102.791 389.549 116.379 385.843 129.227C382.137 141.992 376.66 152.369 369.413 160.358C362.165 168.264 353.559 172.217 343.594 172.217C329.923 172.217 319.299 167.235 311.722 157.27C315.922 150.022 318.022 141.745 318.022 132.439C318.022 126.345 317.034 121.197 315.057 116.997C313.163 112.797 310.775 110.697 307.892 110.697C304.845 110.697 302.374 112.591 300.48 116.379C298.668 120.168 297.762 124.944 297.762 130.709C297.762 140.675 300.233 149.528 305.174 157.27C297.268 168.223 285.285 173.7 269.226 173.7ZM301.345 59.5532C299.121 59.5532 297.392 58.1943 296.156 55.4766C294.921 52.6764 294.303 49.0527 294.303 44.6055C294.303 36.5345 296.403 28.6283 300.604 20.8867C304.968 27.3105 307.151 34.8874 307.151 43.6172C307.151 47.9821 306.574 51.7293 305.421 54.8589C304.351 57.9884 302.992 59.5532 301.345 59.5532ZM308.386 151.958C304.515 144.628 302.58 137.01 302.58 129.104C302.58 125.233 303.074 122.062 304.062 119.591C305.133 117.038 306.41 115.762 307.892 115.762C309.21 115.762 310.404 117.244 311.475 120.209C312.628 123.091 313.204 126.674 313.204 130.957C313.204 138.533 311.598 145.534 308.386 151.958Z" fill="white"/>
<path d="M92.1401 182.841C73.0334 182.841 56.562 178.806 42.7261 170.735C28.9725 162.582 18.5132 151.958 11.3481 138.863C4.18311 125.768 0.600586 111.973 0.600586 97.4785C0.600586 82.9837 4.10075 69.4772 11.1011 56.959C18.1014 44.3584 28.6842 34.1873 42.8496 26.4458C57.015 18.7043 74.1864 14.8335 94.3638 14.8335C112.729 14.8335 128.542 18.9102 141.801 27.0635C155.061 35.2168 165.149 45.882 172.067 59.0591C178.985 72.2362 182.444 86.1545 182.444 100.814C182.444 115.144 179.068 128.568 172.314 141.086C165.561 153.522 155.39 163.611 141.801 171.353C128.212 179.012 111.659 182.841 92.1401 182.841ZM86.5811 122.062C86.9105 122.556 87.5693 122.803 88.5576 122.803C89.7106 122.803 90.7401 122.391 91.646 121.568C94.5285 118.685 96.6698 115.062 98.0698 110.697C99.4699 106.332 100.17 101.679 100.17 96.7373C100.17 87.7604 98.1522 80.4307 94.1167 74.748C93.4578 73.9245 92.7166 73.4303 91.8931 73.2656C91.0695 73.1009 90.3695 73.2656 89.793 73.7598C89.2988 74.2539 89.0518 74.748 89.0518 75.2422C89.0518 75.901 89.5047 76.8481 90.4106 78.0835C91.8931 80.6366 93.1284 83.6838 94.1167 87.2251C95.1873 90.6841 95.7227 94.1842 95.7227 97.7256C95.7227 101.926 95.0638 105.838 93.7461 109.461C92.5107 113.003 90.5342 115.844 87.8164 117.985C87.1576 118.644 86.7046 119.385 86.4575 120.209C86.2104 120.95 86.2516 121.568 86.5811 122.062Z" fill="white"/>
</svg>
