<svg width="413" height="321" viewBox="0 0 413 321" fill="none" xmlns="http://www.w3.org/2000/svg">
<path d="M399.42 202.034C406.512 199.557 410.812 193.397 409.023 188.275C407.234 183.152 400.034 181.008 392.942 183.485C385.849 185.962 381.55 192.122 383.339 197.245C385.128 202.367 392.327 204.511 399.42 202.034Z" fill="#FD7803"/>
<path d="M406.652 174.482C409.572 173.462 411.342 170.926 410.606 168.817C409.869 166.708 406.905 165.825 403.985 166.845C401.064 167.865 399.294 170.401 400.031 172.51C400.767 174.619 403.732 175.502 406.652 174.482Z" fill="#FD7803"/>
<path d="M223.117 291.342C322.953 275.256 394.428 203.517 382.761 131.107C371.094 58.6977 280.704 13.0382 180.868 29.1238C81.0325 45.2095 9.55735 116.949 21.2241 189.358C32.8908 261.768 123.281 307.427 223.117 291.342Z" fill="#FD7803"/>
<path d="M159.829 50.985C159.618 51.0309 159.476 51.0676 159.416 51.0905C159.554 51.0584 159.691 51.0217 159.829 50.985C167.593 49.3284 273.134 34.3135 341.678 93.6757C342.564 94.442 343.716 93.4921 343 92.5651C321.501 64.8343 261.721 25.4936 159.829 50.985Z" fill="#F2E6D5"/>
<path d="M43.5926 213.942C43.432 213.799 43.3265 213.698 43.2852 213.648C43.3861 213.744 43.4916 213.845 43.5926 213.942C49.5306 219.214 133.921 284.349 222.831 266.535C223.978 266.306 224.515 267.701 223.432 268.15C191.048 281.665 119.64 286.387 43.5926 213.942Z" fill="#F2E6D5"/>
</svg>
