<svg width="537" height="299" viewBox="0 0 537 299" fill="none" xmlns="http://www.w3.org/2000/svg">
<path d="M523.522 200.355C530.614 197.878 534.913 191.718 533.124 186.595C531.336 181.473 524.136 179.328 517.043 181.805C509.951 184.282 505.652 190.443 507.441 195.565C509.229 200.688 516.429 202.832 523.522 200.355Z" fill="#FD7803"/>
<path d="M530.757 172.826C533.677 171.806 535.448 169.27 534.711 167.161C533.975 165.052 531.01 164.169 528.09 165.189C525.17 166.208 523.4 168.745 524.136 170.854C524.873 172.963 527.837 173.846 530.757 172.826Z" fill="#FD7803"/>
<g filter="url(#filter0_d_97_513)">
<path d="M255.945 289.925C392.796 286.029 501.934 219.55 499.71 141.441C497.486 63.3307 384.744 3.16885 247.892 7.06475C111.041 10.9606 1.90319 77.439 4.12682 155.549C6.35046 233.659 119.093 293.82 255.945 289.925Z" fill="#FD7803"/>
</g>
<path d="M241.91 25.9251C241.657 25.9709 241.487 25.9708 241.414 25.9708C241.579 25.9708 241.744 25.9709 241.91 25.9251C251.239 25.1908 378.044 22.3916 457.217 90.6287C458.107 91.4088 459.24 90.445 458.511 89.5272C434.3 59.1486 364.658 12.1583 241.91 25.9251Z" fill="#F2E6D5"/>
<path d="M69.5649 221.917C69.3309 221.78 69.1795 221.688 69.1152 221.642C69.2621 221.734 69.4135 221.825 69.5649 221.917C78.1462 226.46 197.976 281.619 301.915 252.158C303.049 251.837 303.668 253.214 302.608 253.719C266.929 271.386 180.919 285.428 69.5649 221.917Z" fill="#F2E6D5"/>
<defs>
<filter id="filter0_d_97_513" x="0.0937533" y="6.88574" width="503.649" height="291.218" filterUnits="userSpaceOnUse" color-interpolation-filters="sRGB">
<feFlood flood-opacity="0" result="BackgroundImageFix"/>
<feColorMatrix in="SourceAlpha" type="matrix" values="0 0 0 0 0 0 0 0 0 0 0 0 0 0 0 0 0 0 127 0" result="hardAlpha"/>
<feOffset dy="4"/>
<feGaussianBlur stdDeviation="2"/>
<feComposite in2="hardAlpha" operator="out"/>
<feColorMatrix type="matrix" values="0 0 0 0 0 0 0 0 0 0 0 0 0 0 0 0 0 0 0.25 0"/>
<feBlend mode="normal" in2="BackgroundImageFix" result="effect1_dropShadow_97_513"/>
<feBlend mode="normal" in="SourceGraphic" in2="effect1_dropShadow_97_513" result="shape"/>
</filter>
</defs>
</svg>
