<svg width="320" height="239" viewBox="0 0 320 239" fill="none" xmlns="http://www.w3.org/2000/svg">
<ellipse cx="154.431" cy="119.5" rx="136.553" ry="99.0396" transform="rotate(-9.15291 154.431 119.5)" fill="#F3C1C2"/>
<path d="M52.0044 184.25C51.8702 184.169 51.7835 184.111 51.7458 184.08C51.832 184.137 51.9183 184.194 52.0044 184.25C57.0048 187.3 127.952 224.132 189.882 197.497C190.16 197.378 190.391 197.724 190.148 197.904C170.759 212.307 118.653 228.155 52.0044 184.25Z" fill="#F2E6D5"/>
<path d="M103.984 47.6201C103.798 47.7055 103.676 47.7689 103.62 47.8074C103.742 47.7448 103.863 47.6824 103.984 47.6201C110.949 44.4281 207.49 10.3839 268.462 84.7922C268.655 85.027 269.049 84.8491 268.918 84.5755C252.735 50.8813 198.734 -1.00006 103.984 47.6201Z" fill="#F2E6D5"/>
<g filter="url(#filter0_d_54_5921)">
<path d="M68.9066 144.771C62.331 145.217 56.6851 143.794 51.9688 140.504C47.2499 137.175 43.6219 132.658 41.0848 126.954C38.5452 121.211 37.0423 114.9 36.5762 108.018C36.1049 101.06 36.7044 94.318 38.3746 87.7911C40.0448 81.2643 42.7154 75.8987 46.3864 71.6943C50.093 67.449 54.5268 65.1516 59.6879 64.8021C65.4989 64.4085 69.8887 66.281 72.8574 70.4198C75.8618 74.5177 77.5892 79.8927 78.0398 86.5447C78.4593 92.7379 77.8488 98.7513 76.2085 104.585C71.9584 105.91 68.7959 107.698 66.721 109.951C64.6817 112.163 63.7281 114.244 63.8601 116.194C63.9352 117.303 64.3197 118.16 65.0137 118.766C65.7458 119.369 66.6662 119.633 67.7749 119.558C69.8011 119.421 71.6949 118.179 73.4562 115.832C75.2557 113.483 76.7537 110.366 77.9501 106.483C80.3275 105.861 83.2174 105.435 86.6199 105.205C90.8634 104.917 94.192 105.863 96.6055 108.042C99.0164 110.183 100.344 113.051 100.587 116.644C100.851 120.544 99.8002 124.59 97.4342 128.783C95.1039 132.935 91.5062 136.52 86.6411 139.538C81.776 142.556 75.8645 144.3 68.9066 144.771ZM67.6157 117.207C67.3098 117.228 67.014 117.113 66.7283 116.864C66.4808 116.612 66.3441 116.295 66.3182 115.912C66.2327 114.651 66.9219 113.202 68.3858 111.567C69.8497 109.931 72.1562 108.546 75.3053 107.411C74.3118 110.321 73.1457 112.665 71.8069 114.446C70.5037 116.186 69.1066 117.106 67.6157 117.207ZM167.32 121.226C167.547 124.591 166.071 127.744 162.891 130.686C159.708 133.59 155.435 135.992 150.071 137.891C144.708 139.791 139.044 140.943 133.081 141.346C126.811 141.771 120.939 141.266 115.465 139.832C109.991 138.398 105.478 135.842 101.926 132.165C98.3719 128.45 96.3926 123.611 95.9887 117.647C95.7194 113.671 96.4268 110.224 98.1111 107.307C99.7953 104.389 101.874 102.194 104.348 100.72C106.372 101.697 108.148 102.114 109.675 101.972C111.395 101.856 112.202 101.014 112.096 99.4465C112.031 98.4907 111.639 97.8068 110.92 97.3946C110.239 96.9799 109.344 96.8101 108.236 96.8852C106.974 96.9706 105.713 97.3441 104.452 98.0056C101.807 96.3797 99.5092 94.2118 97.559 91.5019C95.6088 88.792 94.512 85.6402 94.2686 82.0466C93.9709 77.6501 95.4987 73.8405 98.8521 70.6177C102.206 67.395 106.662 64.8656 112.222 63.0296C117.817 61.1528 123.788 59.9995 130.134 59.5697C135.868 59.1813 141.28 59.41 146.368 60.2559C151.454 61.0636 155.585 62.5121 158.76 64.6013C161.971 66.6497 163.681 69.2031 163.888 72.2615C164.196 76.8109 162.53 80.5722 158.891 83.5455C155.395 81.8236 151.774 81.0896 148.027 81.3434C145.504 81.5143 143.454 82.1524 141.877 83.2577C140.298 84.3248 139.567 85.7185 139.683 87.4389C139.759 88.5475 140.527 89.398 141.988 89.9904C143.446 90.5445 145.265 90.7477 147.444 90.6001C149.317 90.4733 151.287 90.071 153.354 89.3934C155.456 88.6749 157.368 87.7005 159.089 86.4701C163.099 88.9637 165.258 92.4852 165.566 97.0346C165.869 101.508 163.92 105.058 159.72 107.685C155.688 105.999 151.436 105.308 146.963 105.611C144.631 105.769 142.702 106.207 141.176 106.925C139.686 107.602 138.974 108.437 139.042 109.431C139.143 110.922 140.14 112.045 142.035 112.8C143.965 113.514 146.326 113.777 149.116 113.588C153.092 113.318 156.652 112.29 159.795 110.502C164.531 112.947 167.039 116.522 167.32 121.226ZM142.035 87.2796C141.972 86.3621 142.458 85.5995 143.493 84.9918C144.562 84.3432 146.015 83.9568 147.85 83.8325C150.908 83.6253 153.802 84.1015 156.53 85.2608C153.354 87.1274 149.969 88.1824 146.375 88.4258C145.114 88.5113 144.072 88.4474 143.251 88.2342C142.466 87.9801 142.06 87.6619 142.035 87.2796ZM109.745 99.6057C109.717 99.7613 109.55 99.8494 109.244 99.8701C108.633 99.9115 107.931 99.767 107.141 99.4365C107.513 99.2576 108.005 99.1475 108.616 99.1061C109.305 99.0595 109.681 99.226 109.745 99.6057ZM156.72 109.328C153.992 110.435 151.213 111.084 148.384 111.275C146.434 111.407 144.795 111.307 143.467 110.975C142.138 110.642 141.447 110.075 141.393 109.272C141.372 108.966 141.736 108.672 142.485 108.391C143.272 108.108 144.335 107.92 145.673 107.83C149.573 107.566 153.255 108.065 156.72 109.328ZM181.787 135.801C178.652 136.013 175.768 134.538 173.134 131.375C170.539 128.209 168.408 123.975 166.743 118.673C165.114 113.33 164.091 107.581 163.674 101.426C163.198 94.3914 163.629 87.718 164.968 81.4057C166.307 75.0933 168.662 69.8835 172.032 65.7762C175.4 61.6308 179.836 59.3716 185.341 58.9987C191.152 58.6051 196.071 59.5009 200.098 61.6861C204.123 63.8331 207.316 66.7469 209.677 70.4274C208.205 74.214 207.59 77.885 207.831 81.4404C207.973 83.5431 208.435 85.2593 209.216 86.5889C210.036 87.916 211.077 88.5368 212.338 88.4514C213.523 88.3711 214.415 87.6386 215.012 86.254C215.61 84.8693 215.835 83.0874 215.687 80.9083C215.449 77.3911 214.344 73.8367 212.372 70.2449C214.201 66.0501 217.034 62.5169 220.872 59.6454C224.746 56.733 229.741 55.0697 235.858 54.6554C241.669 54.2618 246.653 55.8444 250.812 59.4033C255.008 62.9596 258.271 67.7505 260.599 73.7761C262.928 79.8017 264.327 86.2934 264.799 93.2512C265.229 99.5974 264.85 105.634 263.663 111.359C262.474 117.047 260.524 121.711 257.813 125.351C255.103 128.991 251.798 130.943 247.898 131.208C245.146 131.394 242.634 130.604 240.364 128.837C238.093 127.071 236.03 124.676 234.174 121.652C235.907 117.195 236.637 112.94 236.362 108.888C236.176 106.135 235.529 103.952 234.421 102.337C233.351 100.72 231.918 99.9718 230.121 100.093C228.936 100.174 228.082 100.885 227.558 102.226C227.07 103.526 226.901 105.285 227.051 107.502C227.199 109.682 227.646 112.032 228.393 114.555C229.176 117.037 230.204 119.463 231.479 121.835C230.047 125.081 228.04 127.771 225.458 129.905C222.876 132.038 219.864 133.222 216.423 133.455C212.983 133.688 209.909 132.821 207.203 130.853C204.532 128.845 202.256 126.138 200.373 122.732C201.933 117.979 202.561 113.347 202.255 108.836C202.079 106.237 201.59 104.119 200.788 102.484C200.024 100.845 199.107 100.063 198.036 100.135C196.545 100.236 195.438 101.175 194.713 102.953C194.027 104.727 193.777 106.991 193.963 109.744C194.261 114.14 195.497 118.492 197.67 122.8C194.46 130.967 189.165 135.301 181.787 135.801ZM212.179 86.1002C211.606 86.1391 211.14 85.7865 210.782 85.0427C210.422 84.2605 210.197 83.2005 210.106 81.8624C209.935 79.3392 210.339 76.5083 211.317 73.3696C212.714 76.4242 213.479 79.2144 213.612 81.7402C213.697 83.0018 213.614 84.0443 213.363 84.8679C213.109 85.6532 212.714 86.064 212.179 86.1002ZM198.711 119.446C197.231 115.744 196.374 112.173 196.141 108.732C196.015 106.859 196.125 105.373 196.473 104.274C196.819 103.136 197.393 102.541 198.196 102.486C198.654 102.455 199.05 102.909 199.382 103.846C199.712 104.746 199.93 105.979 200.036 107.546C200.3 111.446 199.858 115.412 198.711 119.446ZM232.657 118.817C231.589 116.662 230.73 114.473 230.081 112.252C229.466 109.989 229.104 108.036 228.992 106.392C228.912 105.206 228.982 104.261 229.203 103.555C229.424 102.848 229.783 102.478 230.28 102.445C231.389 102.37 232.27 102.905 232.924 104.051C233.575 105.159 233.967 106.688 234.099 108.638C234.311 111.773 233.831 115.166 232.657 118.817Z" fill="#F0576A"/>
<path d="M70.9803 141.009C64.4048 141.454 58.7588 140.031 54.0425 136.741C49.3236 133.412 45.6956 128.895 43.1585 123.191C40.6189 117.449 39.116 111.137 38.6499 104.255C38.1786 97.2976 38.7781 90.5553 40.4483 84.0284C42.1185 77.5016 44.7891 72.136 48.4601 67.9316C52.1667 63.6863 56.6006 61.3889 61.7616 61.0394C67.5726 60.6458 71.9624 62.5183 74.9311 66.6571C77.9355 70.755 79.6629 76.13 80.1135 82.782C80.533 88.9753 79.9226 94.9886 78.2822 100.822C74.0321 102.147 70.8696 103.936 68.7947 106.189C66.7554 108.401 65.8018 110.482 65.9339 112.431C66.009 113.54 66.3935 114.397 67.0874 115.003C67.8196 115.606 68.74 115.871 69.8486 115.795C71.8748 115.658 73.7686 114.416 75.5299 112.069C77.3294 109.72 78.8274 106.604 80.0238 102.72C82.4012 102.099 85.2912 101.672 88.6936 101.442C92.9372 101.155 96.2657 102.1 98.6792 104.28C101.09 106.421 102.417 109.288 102.661 112.882C102.925 116.781 101.874 120.827 99.508 125.02C97.1776 129.172 93.5799 132.757 88.7148 135.775C83.8497 138.793 77.9382 140.537 70.9803 141.009ZM69.6894 113.444C69.3836 113.465 69.0878 113.351 68.802 113.101C68.5545 112.849 68.4178 112.532 68.3919 112.15C68.3065 110.888 68.9957 109.439 70.4595 107.804C71.9234 106.169 74.2299 104.784 77.3791 103.649C76.3856 106.558 75.2194 108.903 73.8806 110.683C72.5774 112.423 71.1804 113.343 69.6894 113.444ZM169.393 117.464C169.621 120.828 168.145 123.981 164.965 126.923C161.782 129.827 157.508 132.229 152.145 134.129C146.782 136.028 141.118 137.18 135.154 137.584C128.885 138.008 123.013 137.504 117.539 136.069C112.065 134.635 107.552 132.08 104 128.403C100.446 124.688 98.4664 119.848 98.0624 113.884C97.7931 109.908 98.5006 106.462 100.185 103.544C101.869 100.626 103.948 98.4308 106.421 96.9575C108.446 97.9341 110.222 98.3515 111.748 98.2097C113.469 98.0932 114.276 97.2512 114.17 95.6838C114.105 94.7281 113.713 94.0441 112.994 93.6319C112.313 93.2172 111.418 93.0474 110.309 93.1225C109.048 93.2079 107.786 93.5814 106.525 94.2429C103.881 92.617 101.583 90.4491 99.6328 87.7392C97.6826 85.0293 96.5858 81.8775 96.3424 78.2839C96.0446 73.8874 97.5724 70.0778 100.926 66.8551C104.279 63.6323 108.736 61.1029 114.295 59.2669C119.891 57.3901 125.861 56.2368 132.208 55.807C137.942 55.4186 143.354 55.6473 148.442 56.4932C153.528 57.3009 157.658 58.7494 160.834 60.8386C164.045 62.887 165.754 65.4404 165.962 68.4988C166.27 73.0482 164.604 76.8095 160.965 79.7828C157.469 78.0609 153.847 77.3269 150.101 77.5807C147.578 77.7516 145.528 78.3897 143.951 79.495C142.372 80.5621 141.641 81.9558 141.757 83.6762C141.832 84.7849 142.6 85.6354 144.061 86.2277C145.52 86.7818 147.339 86.985 149.518 86.8374C151.391 86.7106 153.361 86.3083 155.427 85.6307C157.53 84.9122 159.441 83.9378 161.163 82.7074C165.173 85.201 167.331 88.7225 167.639 93.2719C167.942 97.7448 165.994 101.295 161.794 103.922C157.762 102.236 153.51 101.545 149.037 101.848C146.705 102.006 144.776 102.444 143.25 103.162C141.759 103.839 141.048 104.674 141.115 105.668C141.216 107.159 142.214 108.282 144.109 109.037C146.039 109.751 148.399 110.014 151.19 109.825C155.166 109.556 158.726 108.527 161.869 106.74C166.605 109.184 169.113 112.759 169.393 117.464ZM144.108 83.5169C144.046 82.5994 144.532 81.8368 145.566 81.2291C146.636 80.5805 148.089 80.1941 149.924 80.0698C152.982 79.8627 155.876 80.3388 158.604 81.4981C155.428 83.3647 152.043 84.4197 148.449 84.6631C147.187 84.7486 146.146 84.6847 145.325 84.4715C144.54 84.2174 144.134 83.8992 144.108 83.5169ZM111.819 95.8431C111.791 95.9986 111.624 96.0867 111.318 96.1074C110.706 96.1488 110.005 96.0043 109.215 95.6738C109.587 95.495 110.078 95.3848 110.69 95.3434C111.378 95.2968 111.754 95.4633 111.819 95.8431ZM158.794 105.565C156.065 106.672 153.287 107.321 150.457 107.513C148.508 107.645 146.869 107.545 145.54 107.212C144.212 106.88 143.521 106.312 143.466 105.509C143.446 105.203 143.81 104.91 144.559 104.629C145.346 104.345 146.409 104.158 147.747 104.067C151.646 103.803 155.329 104.302 158.794 105.565ZM183.861 132.038C180.726 132.25 177.842 130.775 175.208 127.612C172.612 124.447 170.482 120.213 168.817 114.91C167.188 109.567 166.165 103.818 165.748 97.663C165.271 90.6287 165.703 83.9553 167.042 77.643C168.381 71.3306 170.736 66.1208 174.106 62.0136C177.474 57.8681 181.91 55.6089 187.415 55.236C193.226 54.8424 198.145 55.7382 202.172 57.9234C206.196 60.0704 209.389 62.9842 211.751 66.6647C210.279 70.4514 209.664 74.1224 209.905 77.6777C210.047 79.7804 210.509 81.4966 211.29 82.8262C212.11 84.1533 213.15 84.7741 214.412 84.6887C215.597 84.6084 216.488 83.8759 217.086 82.4913C217.683 81.1066 217.908 79.3247 217.761 77.1456C217.523 73.6285 216.418 70.074 214.446 66.4822C216.274 62.2874 219.107 58.7542 222.946 55.8827C226.819 52.9703 231.815 51.307 237.931 50.8927C243.742 50.4991 248.727 52.0817 252.885 55.6406C257.082 59.1969 260.345 63.9878 262.673 70.0134C265.001 76.039 266.401 82.5307 266.872 89.4885C267.302 95.8347 266.924 101.871 265.737 107.597C264.548 113.285 262.598 117.948 259.887 121.589C257.176 125.229 253.871 127.181 249.972 127.445C247.219 127.631 244.708 126.841 242.437 125.075C240.167 123.308 238.104 120.913 236.248 117.89C237.981 113.433 238.711 109.178 238.436 105.125C238.25 102.373 237.603 100.189 236.495 98.5743C235.425 96.9569 233.992 96.2091 232.195 96.3308C231.01 96.4111 230.155 97.1218 229.632 98.4631C229.144 99.7635 228.975 101.522 229.125 103.74C229.273 105.919 229.72 108.27 230.467 110.792C231.249 113.274 232.278 115.701 233.552 118.072C232.121 121.319 230.114 124.008 227.532 126.142C224.949 128.276 221.938 129.459 218.497 129.692C215.056 129.925 211.983 129.058 209.276 127.09C206.606 125.082 204.329 122.375 202.447 118.969C204.007 114.217 204.634 109.585 204.329 105.074C204.153 102.474 203.664 100.356 202.861 98.7209C202.098 97.0828 201.18 96.3 200.11 96.3725C198.619 96.4735 197.511 97.4126 196.787 99.19C196.1 100.965 195.851 103.228 196.037 105.981C196.335 110.377 197.57 114.729 199.744 119.037C196.534 127.205 191.239 131.538 183.861 132.038ZM214.253 82.3375C213.679 82.3764 213.214 82.0238 212.856 81.28C212.496 80.4978 212.27 79.4378 212.18 78.0997C212.009 75.5765 212.412 72.7456 213.39 69.6069C214.788 72.6615 215.553 75.4517 215.686 77.9775C215.771 79.2391 215.688 80.2816 215.437 81.1052C215.183 81.8905 214.788 82.3013 214.253 82.3375ZM200.784 115.683C199.305 111.981 198.448 108.41 198.215 104.969C198.088 103.096 198.199 101.61 198.547 100.511C198.892 99.3738 199.466 98.778 200.269 98.7237C200.728 98.6926 201.124 99.1459 201.456 100.083C201.786 100.983 202.004 102.216 202.11 103.784C202.374 107.683 201.932 111.65 200.784 115.683ZM234.731 115.055C233.663 112.899 232.804 110.711 232.154 108.489C231.54 106.226 231.177 104.273 231.066 102.629C230.986 101.444 231.056 100.498 231.277 99.7918C231.498 99.0856 231.857 98.7156 232.354 98.6819C233.463 98.6068 234.344 99.1424 234.998 100.289C235.649 101.397 236.041 102.926 236.173 104.875C236.385 108.01 235.904 111.403 234.731 115.055Z" fill="#FEC994"/>
<path d="M73.3639 138.001C66.7883 138.447 61.1424 137.024 56.4261 133.733C51.7071 130.404 48.0792 125.888 45.5421 120.184C43.0024 114.441 41.4996 108.129 41.0335 101.248C40.5622 94.29 41.1616 87.5477 42.8319 81.0209C44.5021 74.494 47.1727 69.1284 50.8437 64.924C54.5503 60.6788 58.9841 58.3814 64.1452 58.0318C69.9561 57.6382 74.346 59.5108 77.3147 63.6495C80.319 67.7474 82.0465 73.1224 82.497 79.7744C82.9165 85.9677 82.3061 91.9811 80.6657 97.8146C76.4157 99.1394 73.2532 100.928 71.1782 103.181C69.139 105.393 68.1853 107.474 68.3174 109.424C68.3925 110.532 68.777 111.39 69.4709 111.996C70.2031 112.599 71.1235 112.863 72.2322 112.788C74.2584 112.651 76.1521 111.409 77.9134 109.062C79.713 106.712 81.211 103.596 82.4073 99.7129C84.7848 99.091 87.6747 98.6648 91.0772 98.4344C95.3207 98.1469 98.6492 99.0929 101.063 101.272C103.474 103.413 104.801 106.28 105.044 109.874C105.308 113.774 104.257 117.82 101.892 122.013C99.5612 126.165 95.9634 129.749 91.0983 132.767C86.2332 135.785 80.3218 137.53 73.3639 138.001ZM72.0729 110.437C71.7671 110.457 71.4713 110.343 71.1856 110.094C70.9381 109.841 70.8014 109.524 70.7755 109.142C70.69 107.88 71.3792 106.432 72.8431 104.797C74.3069 103.161 76.6134 101.776 79.7626 100.641C78.7691 103.55 77.6029 105.895 76.2641 107.676C74.961 109.415 73.5639 110.336 72.0729 110.437ZM171.777 114.456C172.005 117.82 170.528 120.974 167.348 123.916C164.165 126.82 159.892 129.222 154.529 131.121C149.165 133.021 143.502 134.172 137.538 134.576C131.268 135.001 125.396 134.496 119.922 133.062C114.448 131.627 109.936 129.072 106.384 125.395C102.829 121.68 100.85 116.841 100.446 110.877C100.177 106.901 100.884 103.454 102.568 100.536C104.253 97.6188 106.331 95.4233 108.805 93.95C110.83 94.9266 112.605 95.344 114.132 95.2022C115.852 95.0856 116.659 94.2437 116.553 92.6762C116.488 91.7205 116.097 91.0365 115.377 90.6244C114.696 90.2096 113.801 90.0398 112.693 90.1149C111.431 90.2004 110.17 90.5738 108.909 91.2353C106.264 89.6094 103.967 87.4415 102.016 84.7316C100.066 82.0217 98.9693 78.8699 98.7259 75.2763C98.4281 70.8799 99.9559 67.0702 103.309 63.8475C106.663 60.6247 111.119 58.0954 116.679 56.2594C122.274 54.3826 128.245 53.2293 134.591 52.7994C140.326 52.411 145.737 52.6397 150.826 53.4857C155.911 54.2933 160.042 55.7418 163.218 57.831C166.429 59.8795 168.138 62.4329 168.345 65.4913C168.653 70.0406 166.988 73.802 163.349 76.7752C159.852 75.0534 156.231 74.3193 152.484 74.5731C149.961 74.744 147.911 75.3821 146.335 76.4874C144.756 77.5545 144.024 78.9483 144.141 80.6686C144.216 81.7773 144.984 82.6278 146.445 83.2201C147.904 83.7742 149.722 83.9775 151.901 83.8299C153.775 83.703 155.745 83.3007 157.811 82.6231C159.913 81.9046 161.825 80.9302 163.547 79.6998C167.556 82.1935 169.715 85.715 170.023 90.2643C170.326 94.7372 168.377 98.2873 164.177 100.915C160.146 99.2289 155.893 98.5376 151.42 98.8406C149.088 98.9985 147.159 99.4364 145.633 100.154C144.143 100.831 143.431 101.667 143.499 102.661C143.6 104.152 144.598 105.275 146.492 106.03C148.422 106.744 150.783 107.006 153.574 106.817C157.55 106.548 161.109 105.52 164.253 103.732C168.989 106.177 171.497 109.751 171.777 114.456ZM146.492 80.5094C146.43 79.5918 146.916 78.8292 147.95 78.2215C149.02 77.5729 150.472 77.1865 152.307 77.0622C155.366 76.8551 158.259 77.3312 160.988 78.4906C157.811 80.3572 154.426 81.4122 150.832 81.6556C149.571 81.741 148.53 81.6771 147.709 81.4639C146.923 81.2098 146.518 80.8917 146.492 80.5094ZM114.202 92.8355C114.174 92.991 114.007 93.0791 113.702 93.0998C113.09 93.1413 112.389 92.9967 111.598 92.6662C111.97 92.4874 112.462 92.3773 113.074 92.3358C113.762 92.2892 114.138 92.4558 114.202 92.8355ZM161.178 102.558C158.449 103.664 155.67 104.314 152.841 104.505C150.891 104.637 149.252 104.537 147.924 104.205C146.596 103.872 145.904 103.304 145.85 102.502C145.829 102.196 146.193 101.902 146.942 101.621C147.73 101.337 148.792 101.15 150.13 101.059C154.03 100.795 157.712 101.295 161.178 102.558ZM186.244 129.03C183.109 129.243 180.225 127.767 177.591 124.605C174.996 121.439 172.866 117.205 171.201 111.903C169.571 106.56 168.548 100.81 168.131 94.6555C167.655 87.6211 168.086 80.9478 169.425 74.6354C170.764 68.323 173.119 63.1132 176.489 59.006C179.857 54.8605 184.294 52.6014 189.799 52.2285C195.61 51.8349 200.529 52.7307 204.556 54.9159C208.58 57.0628 211.773 59.9766 214.135 63.6572C212.663 67.4438 212.047 71.1148 212.288 74.6702C212.431 76.7728 212.892 78.489 213.674 79.8187C214.493 81.1457 215.534 81.7666 216.796 81.6811C217.981 81.6008 218.872 80.8684 219.469 79.4837C220.067 78.099 220.292 76.3172 220.144 74.138C219.906 70.6209 218.801 67.0664 216.83 63.4746C218.658 59.2798 221.491 55.7467 225.329 52.8751C229.203 49.9628 234.198 48.2994 240.315 47.8851C246.126 47.4915 251.111 49.0742 255.269 52.6331C259.466 56.1893 262.728 60.9803 265.056 67.0058C267.385 73.0314 268.785 79.5231 269.256 86.481C269.686 92.8272 269.307 98.8632 268.121 104.589C266.931 110.277 264.981 114.941 262.271 118.581C259.56 122.221 256.255 124.173 252.355 124.437C249.603 124.624 247.091 123.834 244.821 122.067C242.551 120.301 240.487 117.906 238.631 114.882C240.365 110.425 241.094 106.17 240.82 102.118C240.633 99.3652 239.986 97.1815 238.878 95.5667C237.809 93.9494 236.375 93.2015 234.578 93.3232C233.393 93.4035 232.539 94.1143 232.015 95.4555C231.527 96.7559 231.358 98.5148 231.509 100.732C231.656 102.911 232.103 105.262 232.85 107.785C233.633 110.266 234.662 112.693 235.936 115.065C234.504 118.311 232.497 121.001 229.915 123.134C227.333 125.268 224.321 126.451 220.881 126.684C217.44 126.917 214.366 126.05 211.66 124.083C208.989 122.075 206.713 119.368 204.831 115.962C206.391 111.209 207.018 106.577 206.712 102.066C206.536 99.4664 206.047 97.3488 205.245 95.7133C204.481 94.0752 203.564 93.2924 202.494 93.3649C201.003 93.4659 199.895 94.4051 199.17 96.1824C198.484 97.9571 198.234 100.221 198.421 102.973C198.718 107.37 199.954 111.722 202.128 116.03C198.917 124.197 193.623 128.531 186.244 129.03ZM216.636 79.33C216.063 79.3688 215.597 79.0163 215.24 78.2724C214.879 77.4903 214.654 76.4302 214.563 75.0921C214.392 72.569 214.796 69.738 215.774 66.5994C217.171 69.654 217.937 72.4441 218.069 74.9699C218.155 76.2315 218.072 77.2741 217.82 78.0976C217.566 78.8829 217.172 79.2937 216.636 79.33ZM203.168 112.676C201.688 108.974 200.832 105.402 200.599 101.962C200.472 100.088 200.582 98.6023 200.93 97.5034C201.276 96.3662 201.85 95.7705 202.653 95.7161C203.112 95.685 203.507 96.1383 203.839 97.0759C204.169 97.9753 204.387 99.2087 204.493 100.776C204.758 104.676 204.316 108.642 203.168 112.676ZM237.114 112.047C236.046 109.892 235.188 107.703 234.538 105.481C233.924 103.219 233.561 101.265 233.45 99.6214C233.369 98.4362 233.44 97.4905 233.661 96.7843C233.882 96.078 234.241 95.708 234.738 95.6744C235.846 95.5993 236.728 96.1349 237.381 97.2812C238.032 98.3892 238.424 99.9181 238.556 101.868C238.768 105.003 238.288 108.396 237.114 112.047Z" fill="#495184"/>
<path d="M204.939 116.183L202.106 116.375L199.788 116.532C199.273 116.567 196.625 113.77 195.929 113.041C195.233 112.312 195.063 105.985 195.011 105.212C194.969 104.594 195.406 94.4913 195.629 89.5171L203.098 89.0112L209.851 100.844L204.939 116.183Z" fill="#495184"/>
<path d="M230.755 107.707C230.665 107.375 231.118 103.157 231.607 98.9504L231.039 100.443L229.001 104.721L227.416 100.43L229.848 94.3145C231.283 92.5787 234.247 88.9713 234.624 88.4283C235.095 87.7495 240.102 89.0922 241.855 90.1377C243.607 91.1833 246.794 100.023 246.7 100.547C246.625 100.966 241.459 110.389 238.885 115.048L235.923 115.248L233.374 115.809C232.558 113.32 230.893 108.215 230.755 107.707Z" fill="#495184"/>
<path d="M163.239 100.249L166.988 105.946L166.595 107.784C165.706 108.663 163.679 110.569 162.684 111.154C161.439 111.885 158.849 113.742 155.784 114.338C152.72 114.933 148.987 117.126 146.403 117.172C143.819 117.218 139.083 112.235 138.317 110.475C137.551 108.716 139.319 100.446 139.671 99.905C139.952 99.472 144.324 96.6576 146.474 95.3045L163.239 100.249Z" fill="#495184"/>
<path d="M162.817 74.9221C163.258 76.8585 163.583 79.2255 163.69 80.167C163.637 81.9385 163.187 85.7379 161.808 86.7627C160.083 88.0438 159.14 89.4013 157.372 90.0385C155.604 90.6758 149.218 91.8845 144.702 92.061C140.186 92.2375 139.279 86.4776 138.615 84.3233C138.085 82.5999 139.668 75.6707 140.526 72.4216C147.772 72.4482 162.375 72.9857 162.817 74.9221Z" fill="#495184"/>
<path d="M82.663 100.532C82.6212 99.9141 81.4074 98.5474 80.8058 97.9413C78.9826 97.763 75.0049 97.4804 73.6796 97.7772C72.0229 98.1481 71.4052 98.5781 68.6594 100.058C65.9136 101.537 65.2543 103.264 64.5689 104.604C63.8835 105.944 65.2974 111.54 65.9434 113.437C66.5893 115.334 70.7732 117.896 71.2883 117.861L78.7573 117.356C80.0766 112.005 82.7049 101.15 82.663 100.532Z" fill="#495184"/>
<path d="M212.074 68.7397L217.04 63.7462L218.946 63.229C219.974 63.7631 222.147 65.0303 222.614 65.8266C223.199 66.8219 223.734 68.9849 224.208 70.2465C224.681 71.508 224.685 75.3887 224.318 77.6128C223.952 79.8368 222.297 82.1481 220.83 83.4118C219.363 84.6754 217.253 85.9827 216.223 86.0524C215.192 86.1222 212.143 85.0351 210.786 84.0921C209.428 83.1491 208.481 80.626 208.385 79.2095C208.308 78.0762 210.813 71.7574 212.074 68.7397Z" fill="#495184"/>
<path d="M77.6334 132.279C71.0579 132.724 65.4119 131.302 60.6956 128.011C55.9767 124.682 52.3487 120.165 49.8116 114.461C47.272 108.719 45.7691 102.407 45.303 95.5255C44.8317 88.5676 45.4312 81.8253 47.1014 75.2985C48.7716 68.7716 51.4422 63.406 55.1132 59.2016C58.8198 54.9564 63.2536 52.659 68.4147 52.3094C74.2257 51.9158 78.6155 53.7884 81.5842 57.9271C84.5886 62.025 86.316 67.4 86.7666 74.052C87.1861 80.2453 86.5756 86.2587 84.9353 92.0922C80.6852 93.417 77.5227 95.2058 75.4478 97.4587C73.4085 99.6707 72.4549 101.752 72.5869 103.701C72.662 104.81 73.0465 105.667 73.7405 106.273C74.4726 106.876 75.393 107.141 76.5017 107.065C78.5279 106.928 80.4217 105.686 82.183 103.339C83.9825 100.99 85.4805 97.8737 86.6769 93.9905C89.0543 93.3686 91.9442 92.9424 95.3467 92.712C99.5902 92.4245 102.919 93.3704 105.332 95.5497C107.743 97.6907 109.07 100.558 109.314 104.152C109.578 108.051 108.527 112.097 106.161 116.29C103.831 120.442 100.233 124.027 95.3679 127.045C90.5028 130.063 84.5913 131.807 77.6334 132.279ZM76.3425 104.714C76.0366 104.735 75.7408 104.621 75.4551 104.371C75.2076 104.119 75.0709 103.802 75.045 103.42C74.9596 102.158 75.6488 100.71 77.1126 99.0741C78.5765 97.4388 80.883 96.0536 84.0322 94.9185C83.0386 97.8278 81.8725 100.173 80.5337 101.953C79.2305 103.693 77.8334 104.613 76.3425 104.714ZM176.046 108.734C176.274 112.098 174.798 115.251 171.618 118.193C168.435 121.097 164.161 123.499 158.798 125.399C153.435 127.298 147.771 128.45 141.807 128.854C135.538 129.278 129.666 128.774 124.192 127.339C118.718 125.905 114.205 123.35 110.653 119.673C107.099 115.958 105.119 111.118 104.715 105.154C104.446 101.179 105.154 97.7317 106.838 94.814C108.522 91.8964 110.601 89.7009 113.074 88.2276C115.099 89.2042 116.875 89.6216 118.401 89.4798C120.122 89.3632 120.929 88.5213 120.823 86.9538C120.758 85.9981 120.366 85.3141 119.647 84.902C118.966 84.4872 118.071 84.3174 116.962 84.3925C115.701 84.478 114.439 84.8514 113.178 85.5129C110.534 83.887 108.236 81.7191 106.286 79.0092C104.336 76.2993 103.239 73.1475 102.995 69.5539C102.698 65.1574 104.225 61.3478 107.579 58.1251C110.932 54.9023 115.389 52.3729 120.948 50.537C126.544 48.6602 132.515 47.5068 138.861 47.077C144.595 46.6886 150.007 46.9173 155.095 47.7632C160.181 48.5709 164.312 50.0194 167.487 52.1086C170.698 54.157 172.407 56.7104 172.615 59.7689C172.923 64.3182 171.257 68.0796 167.618 71.0528C164.122 69.331 160.5 68.5969 156.754 68.8507C154.231 69.0216 152.181 69.6597 150.604 70.765C149.025 71.8321 148.294 73.2258 148.41 74.9462C148.485 76.0549 149.253 76.9054 150.715 77.4977C152.173 78.0518 153.992 78.2551 156.171 78.1075C158.044 77.9806 160.014 77.5783 162.081 76.9007C164.183 76.1822 166.094 75.2078 167.816 73.9774C171.826 76.471 173.984 79.9925 174.293 84.5419C174.596 89.0148 172.647 92.5649 168.447 95.1921C164.415 93.5065 160.163 92.8152 155.69 93.1182C153.358 93.2761 151.429 93.714 149.903 94.4319C148.413 95.1089 147.701 95.9444 147.768 96.9384C147.869 98.4293 148.867 99.5523 150.762 100.307C152.692 101.022 155.052 101.284 157.843 101.095C161.819 100.826 165.379 99.7973 168.522 98.0098C173.258 100.454 175.766 104.029 176.046 108.734ZM150.761 74.7869C150.699 73.8694 151.185 73.1068 152.219 72.4991C153.289 71.8505 154.742 71.4641 156.577 71.3398C159.635 71.1327 162.529 71.6088 165.257 72.7682C162.081 74.6347 158.696 75.6897 155.102 75.9331C153.84 76.0186 152.799 75.9547 151.978 75.7415C151.193 75.4874 150.787 75.1693 150.761 74.7869ZM118.472 87.1131C118.444 87.2686 118.277 87.3567 117.971 87.3774C117.359 87.4188 116.658 87.2743 115.868 86.9438C116.24 86.765 116.732 86.6549 117.343 86.6134C118.031 86.5668 118.407 86.7334 118.472 87.1131ZM165.447 96.8355C162.718 97.942 159.94 98.5911 157.111 98.7827C155.161 98.9148 153.522 98.8146 152.194 98.4821C150.865 98.1496 150.174 97.582 150.119 96.7791C150.099 96.4733 150.463 96.1798 151.212 95.8986C151.999 95.6149 153.062 95.4277 154.4 95.337C158.299 95.0729 161.982 95.5724 165.447 96.8355ZM190.514 123.308C187.379 123.52 184.495 122.045 181.861 118.882C179.265 115.717 177.135 111.483 175.47 106.18C173.841 100.837 172.818 95.0881 172.401 88.933C171.924 81.8987 172.356 75.2254 173.695 68.913C175.034 62.6006 177.389 57.3908 180.759 53.2836C184.127 49.1381 188.563 46.8789 194.068 46.5061C199.879 46.1125 204.798 47.0083 208.825 49.1935C212.849 51.3404 216.042 54.2542 218.404 57.9348C216.932 61.7214 216.317 65.3924 216.558 68.9478C216.7 71.0504 217.162 72.7666 217.943 74.0963C218.763 75.4233 219.803 76.0441 221.065 75.9587C222.25 75.8784 223.142 75.146 223.739 73.7613C224.337 72.3766 224.561 70.5947 224.414 68.4156C224.176 64.8985 223.071 61.344 221.099 57.7522C222.927 53.5574 225.761 50.0242 229.599 47.1527C233.472 44.2404 238.468 42.577 244.584 42.1627C250.395 41.7691 255.38 43.3518 259.538 46.9106C263.735 50.4669 266.998 55.2579 269.326 61.2834C271.654 67.309 273.054 73.8007 273.526 80.7586C273.955 87.1047 273.577 93.1408 272.39 98.8668C271.201 104.555 269.251 109.218 266.54 112.859C263.829 116.499 260.524 118.451 256.625 118.715C253.872 118.901 251.361 118.111 249.091 116.345C246.82 114.578 244.757 112.183 242.901 109.16C244.634 104.703 245.364 100.448 245.089 96.3954C244.903 93.6428 244.256 91.4591 243.148 89.8443C242.078 88.227 240.645 87.4791 238.848 87.6008C237.663 87.6811 236.809 88.3918 236.285 89.7331C235.797 91.0335 235.628 92.7924 235.778 95.0098C235.926 97.1889 236.373 99.5397 237.12 102.062C237.903 104.544 238.931 106.971 240.205 109.342C238.774 112.589 236.767 115.278 234.185 117.412C231.602 119.546 228.591 120.729 225.15 120.962C221.71 121.195 218.636 120.328 215.93 118.36C213.259 116.352 210.982 113.645 209.1 110.239C210.66 105.487 211.287 100.855 210.982 96.3437C210.806 93.744 210.317 91.6264 209.515 89.9909C208.751 88.3528 207.834 87.57 206.763 87.6425C205.272 87.7435 204.164 88.6827 203.44 90.46C202.754 92.2347 202.504 94.4984 202.69 97.2509C202.988 101.647 204.224 106 206.397 110.307C203.187 118.475 197.892 122.808 190.514 123.308ZM220.906 73.6075C220.332 73.6464 219.867 73.2939 219.509 72.55C219.149 71.7679 218.924 70.7078 218.833 69.3697C218.662 66.8466 219.066 64.0156 220.044 60.8769C221.441 63.9315 222.206 66.7217 222.339 69.2475C222.424 70.5091 222.341 71.5517 222.09 72.3752C221.836 73.1605 221.441 73.5713 220.906 73.6075ZM207.437 106.953C205.958 103.251 205.101 99.68 204.868 96.2393C204.741 94.366 204.852 92.8799 205.2 91.781C205.545 90.6438 206.12 90.0481 206.922 89.9937C207.381 89.9626 207.777 90.4159 208.109 91.3535C208.439 92.2529 208.657 93.4863 208.763 95.0537C209.027 98.9532 208.585 102.92 207.437 106.953ZM241.384 106.325C240.316 104.169 239.457 101.981 238.807 99.7589C238.193 97.4962 237.831 95.5428 237.719 93.899C237.639 92.7138 237.709 91.7681 237.93 91.0619C238.151 90.3556 238.51 89.9856 239.007 89.952C240.116 89.8769 240.997 90.4125 241.651 91.5588C242.302 92.6668 242.694 94.1957 242.826 96.1454C243.038 99.2803 242.557 102.673 241.384 106.325Z" fill="white"/>
</g>
<g filter="url(#filter1_d_54_5921)">
<path d="M79.8228 160.181C79.5766 156.54 80.3305 152.923 82.0848 149.328C83.8631 145.706 86.6276 142.665 90.3782 140.207C94.1547 137.746 98.7672 136.332 104.216 135.963C109.613 135.598 114.195 136.04 117.963 137.29C121.755 138.512 124.608 140.226 126.521 142.431C128.46 144.634 129.515 147.001 129.686 149.532C129.793 151.107 129.547 152.654 128.95 154.173C128.378 155.69 127.469 157.023 126.224 158.171C128.367 159.556 130.061 161.4 131.306 163.702C132.551 166.005 133.268 168.537 133.454 171.3C133.708 175.045 132.957 178.714 131.203 182.309C129.475 185.902 126.696 188.93 122.868 191.394C119.066 193.856 114.324 195.279 108.643 195.664C103.401 196.018 98.961 195.566 95.3221 194.308C91.6831 193.05 88.9312 191.29 87.0662 189.03C85.2253 186.742 84.2158 184.281 84.0376 181.647C83.9223 179.943 84.1368 178.32 84.681 176.779C85.2511 175.236 86.1424 173.839 87.3549 172.59C85.0932 171.368 83.3183 169.672 82.0302 167.503C80.7403 165.307 80.0045 162.867 79.8228 160.181ZM81.4004 159.919C81.5716 162.449 82.284 164.736 83.5376 166.778C84.7912 168.821 86.5048 170.378 88.6785 171.45C90.6964 169.835 93.2676 168.922 96.392 168.71C98.9743 168.536 101.008 168.683 102.492 169.154C104.001 169.596 104.781 170.205 104.833 170.98C104.888 171.78 104.224 172.512 102.842 173.177C101.459 173.815 99.4885 174.221 96.9321 174.394C93.9109 174.598 91.2413 174.247 88.9231 173.34C87.7741 174.378 86.9102 175.603 86.3314 177.017C85.7526 178.431 85.5156 179.913 85.6204 181.462C85.7811 183.838 86.7086 186.045 88.403 188.083C90.1231 190.12 92.6821 191.711 96.0799 192.856C99.4777 194.001 103.63 194.407 108.536 194.076C113.881 193.714 118.344 192.387 121.924 190.096C125.529 187.777 128.139 184.941 129.754 181.59C131.394 178.236 132.097 174.816 131.861 171.33C131.686 168.748 131.008 166.394 129.827 164.269C128.67 162.117 127.038 160.424 124.931 159.192C122.707 160.821 119.929 161.748 116.598 161.974C113.628 162.175 111.271 162.036 109.527 161.557C107.806 161.051 106.918 160.385 106.862 159.558C106.805 158.706 107.582 157.927 109.195 157.222C110.831 156.488 113.16 156.019 116.181 155.815C119.254 155.607 122.128 156.1 124.803 157.294C125.955 156.308 126.811 155.148 127.369 153.813C127.953 152.477 128.196 151.085 128.098 149.639C127.944 147.367 126.971 145.254 125.179 143.3C123.411 141.318 120.765 139.785 117.241 138.701C113.716 137.59 109.41 137.207 104.323 137.551C99.1845 137.899 94.8508 139.217 91.3221 141.505C87.7933 143.793 85.1947 146.601 83.5263 149.931C81.8837 153.258 81.1751 156.588 81.4004 159.919ZM90.5127 172.104C92.3451 172.732 94.4491 172.966 96.8247 172.805C98.8388 172.669 100.405 172.434 101.524 172.098C102.643 171.763 103.191 171.428 103.168 171.092C103.147 170.782 102.547 170.538 101.367 170.358C100.188 170.178 98.5652 170.159 96.4995 170.298C94.2271 170.452 92.2315 171.054 90.5127 172.104ZM108.451 159.451C108.475 159.812 109.208 160.1 110.649 160.314C112.09 160.528 114.037 160.552 116.49 160.386C119.073 160.211 121.338 159.565 123.285 158.447C121.1 157.584 118.768 157.235 116.289 157.403C113.81 157.571 111.87 157.845 110.469 158.225C109.094 158.603 108.421 159.012 108.451 159.451ZM128.323 166.2C127.986 161.216 128.315 156.486 129.309 152.009C130.301 147.506 132.061 143.794 134.587 140.874C137.137 137.925 140.426 136.315 144.455 136.043C148.483 135.77 151.933 136.354 154.807 137.794C157.678 139.208 159.999 141.126 161.772 143.548C163.213 140.701 165.31 138.328 168.061 136.43C170.836 134.504 174.341 133.398 178.575 133.112C182.81 132.825 186.467 133.966 189.546 136.533C192.649 139.073 195.059 142.49 196.777 146.783C198.52 151.075 199.559 155.7 199.894 160.658C200.202 165.203 199.91 169.529 199.021 173.635C198.13 177.716 196.646 181.085 194.568 183.742C192.49 186.373 189.94 187.791 186.918 187.995C184.904 188.131 183.029 187.635 181.293 186.508C179.582 185.378 178.048 183.796 176.691 181.761C175.569 183.964 174.07 185.764 172.193 187.162C170.316 188.56 168.138 189.343 165.659 189.511C163.18 189.679 160.951 189.129 158.972 187.862C156.991 186.569 155.291 184.83 153.872 182.643C152.76 185.001 151.232 186.959 149.288 188.517C147.343 190.05 145.001 190.908 142.264 191.094C139.837 191.258 137.612 190.202 135.591 187.926C133.569 185.651 131.934 182.571 130.686 178.686C129.411 174.803 128.624 170.641 128.323 166.2ZM129.925 166.286C130.208 170.469 130.898 174.353 131.997 177.936C133.121 181.517 134.56 184.377 136.313 186.516C138.091 188.652 140.039 189.649 142.157 189.505C147.14 189.168 150.717 186.242 152.886 180.725C151.416 177.79 150.582 174.85 150.383 171.906C150.257 170.047 150.426 168.518 150.889 167.319C151.379 166.119 152.127 165.485 153.134 165.417C153.883 165.366 154.515 165.894 155.031 167C155.547 168.107 155.864 169.538 155.983 171.294C156.191 174.367 155.767 177.495 154.711 180.679C155.983 182.98 157.52 184.809 159.324 186.165C161.152 187.494 163.228 188.08 165.552 187.923C167.876 187.766 169.91 186.967 171.654 185.526C173.398 184.085 174.754 182.268 175.721 180.075C174.862 178.499 174.168 176.86 173.638 175.158C173.133 173.454 172.831 171.866 172.732 170.394C172.632 168.922 172.746 167.734 173.074 166.83C173.428 165.924 174.005 165.444 174.806 165.39C176.019 165.308 176.987 165.813 177.71 166.906C178.458 167.997 178.895 169.472 179.021 171.331C179.206 174.068 178.713 176.942 177.542 179.952C178.795 181.995 180.189 183.612 181.722 184.806C183.256 185.999 184.952 186.533 186.811 186.407C189.445 186.229 191.677 184.91 193.508 182.452C195.34 179.993 196.657 176.843 197.461 173.002C198.263 169.134 198.519 165.057 198.229 160.771C197.911 156.071 196.966 151.686 195.393 147.616C193.821 143.546 191.617 140.31 188.783 137.908C185.975 135.504 182.608 134.434 178.683 134.7C174.551 134.979 171.19 136.102 168.599 138.067C166.007 140.006 164.08 142.393 162.819 145.228C164.149 147.629 164.895 150.029 165.057 152.431C165.157 153.903 164.992 155.107 164.563 156.044C164.159 156.979 163.57 157.473 162.795 157.526C161.943 157.583 161.24 157.164 160.687 156.267C160.159 155.369 159.847 154.21 159.751 152.79C159.59 150.414 160.006 147.935 160.999 145.351C159.404 142.865 157.234 140.898 154.49 139.449C151.771 137.973 148.461 137.367 144.562 137.631C140.869 137.88 137.873 139.406 135.572 142.208C133.295 144.982 131.705 148.5 130.8 152.764C129.893 157.002 129.601 161.509 129.925 166.286ZM151.854 171.223C152.011 173.547 152.589 175.959 153.589 178.46C154.364 175.735 154.663 173.056 154.485 170.422C154.413 169.364 154.266 168.531 154.043 167.923C153.819 167.29 153.552 166.984 153.242 167.005C152.725 167.04 152.337 167.442 152.078 168.212C151.843 168.954 151.768 169.958 151.854 171.223ZM161.288 153.075C161.349 153.979 161.501 154.695 161.744 155.223C161.986 155.726 162.3 155.964 162.688 155.938C163.049 155.913 163.316 155.636 163.487 155.105C163.657 154.549 163.713 153.845 163.656 152.993C163.54 151.288 163.024 149.404 162.106 147.339C161.445 149.459 161.172 151.371 161.288 153.075ZM174.043 169.644C174.118 170.754 174.363 172.074 174.777 173.602C175.216 175.103 175.796 176.581 176.517 178.037C177.31 175.571 177.635 173.279 177.492 171.162C177.403 169.845 177.125 168.813 176.66 168.066C176.218 167.292 175.636 166.929 174.913 166.978C174.603 166.999 174.362 167.262 174.188 167.767C174.039 168.244 173.99 168.869 174.043 169.644ZM195.177 161.678C194.84 156.694 195.168 151.963 196.163 147.486C197.155 142.983 198.914 139.272 201.44 136.351C203.991 133.403 207.28 131.793 211.308 131.52C215.336 131.248 218.787 131.831 221.66 133.271C224.531 134.685 226.853 136.603 228.625 139.026C230.067 136.179 232.163 133.806 234.914 131.908C237.689 129.982 241.194 128.876 245.429 128.589C249.664 128.303 253.321 129.443 256.4 132.011C259.503 134.55 261.913 137.967 263.63 142.261C265.373 146.553 266.412 151.178 266.748 156.136C267.055 160.68 266.764 165.006 265.875 169.113C264.983 173.194 263.499 176.563 261.422 179.22C259.343 181.85 256.793 183.268 253.772 183.472C251.758 183.609 249.883 183.113 248.146 181.985C246.436 180.856 244.902 179.274 243.545 177.238C242.423 179.441 240.923 181.242 239.046 182.64C237.17 184.038 234.992 184.821 232.513 184.988C230.034 185.156 227.805 184.607 225.825 183.34C223.844 182.047 222.144 180.307 220.725 178.12C219.614 180.478 218.086 182.436 216.142 183.995C214.196 185.527 211.855 186.386 209.118 186.571C206.691 186.735 204.466 185.679 202.444 183.404C200.423 181.128 198.788 178.048 197.539 174.164C196.265 170.281 195.478 166.119 195.177 161.678ZM196.778 161.764C197.061 165.947 197.752 169.83 198.85 173.413C199.975 176.995 201.413 179.855 203.166 181.993C204.945 184.13 206.893 185.126 209.01 184.983C213.994 184.646 217.57 181.719 219.739 176.203C218.27 173.267 217.435 170.327 217.236 167.384C217.11 165.525 217.279 163.996 217.743 162.797C218.233 161.596 218.981 160.962 219.988 160.894C220.737 160.843 221.369 161.371 221.885 162.478C222.401 163.584 222.718 165.015 222.837 166.771C223.045 169.844 222.621 172.973 221.565 176.157C222.836 178.458 224.374 180.286 226.177 181.643C228.005 182.972 230.081 183.558 232.405 183.4C234.729 183.243 236.763 182.444 238.508 181.003C240.252 179.562 241.608 177.745 242.575 175.553C241.716 173.977 241.021 172.338 240.491 170.635C239.987 168.932 239.685 167.344 239.585 165.872C239.486 164.4 239.6 163.212 239.928 162.308C240.282 161.402 240.859 160.922 241.659 160.868C242.873 160.786 243.841 161.291 244.563 162.383C245.312 163.474 245.749 164.949 245.874 166.808C246.06 169.545 245.567 172.419 244.395 175.43C245.649 177.472 247.042 179.09 248.576 180.283C250.109 181.476 251.805 182.01 253.665 181.884C256.299 181.706 258.531 180.388 260.362 177.929C262.193 175.471 263.511 172.321 264.314 168.479C265.116 164.612 265.372 160.535 265.082 156.248C264.764 151.549 263.819 147.164 262.247 143.094C260.674 139.024 258.471 135.788 255.637 133.385C252.828 130.981 249.461 129.912 245.536 130.177C241.405 130.457 238.044 131.579 235.453 133.544C232.86 135.484 230.934 137.871 229.673 140.706C231.003 143.106 231.749 145.507 231.911 147.909C232.011 149.38 231.846 150.585 231.416 151.522C231.012 152.457 230.423 152.951 229.649 153.003C228.797 153.061 228.094 152.641 227.54 151.745C227.013 150.847 226.701 149.688 226.605 148.267C226.444 145.892 226.86 143.412 227.852 140.829C226.257 138.343 224.088 136.375 221.344 134.927C218.624 133.451 215.315 132.844 211.416 133.108C207.723 133.358 204.726 134.884 202.426 137.685C200.149 140.459 198.558 143.978 197.653 148.241C196.747 152.479 196.455 156.987 196.778 161.764ZM218.708 166.701C218.865 169.025 219.443 171.437 220.442 173.937C221.218 171.213 221.516 168.534 221.338 165.9C221.267 164.841 221.119 164.008 220.897 163.401C220.672 162.767 220.405 162.461 220.095 162.482C219.579 162.517 219.191 162.919 218.932 163.689C218.697 164.431 218.622 165.435 218.708 166.701ZM228.141 148.553C228.203 149.456 228.355 150.172 228.598 150.701C228.839 151.203 229.154 151.441 229.541 151.415C229.903 151.391 230.169 151.113 230.341 150.583C230.511 150.027 230.567 149.322 230.509 148.47C230.394 146.766 229.877 144.881 228.96 142.816C228.299 144.936 228.026 146.848 228.141 148.553ZM240.896 165.122C240.972 166.232 241.216 167.551 241.631 169.08C242.07 170.581 242.65 172.059 243.371 173.515C244.164 171.049 244.489 168.757 244.345 166.639C244.256 165.322 243.979 164.291 243.513 163.544C243.072 162.77 242.49 162.407 241.767 162.456C241.457 162.477 241.215 162.74 241.042 163.244C240.893 163.721 240.844 164.347 240.896 165.122Z" fill="white"/>
</g>
<ellipse cx="302.272" cy="140.299" rx="6.96977" ry="5.03373" transform="rotate(-19.2513 302.272 140.299)" fill="#F3C1C2"/>
<ellipse cx="306.956" cy="122.68" rx="2.8696" ry="2.07249" transform="rotate(-19.2513 306.956 122.68)" fill="#F3C1C2"/>
<ellipse cx="6.96977" cy="5.03373" rx="6.96977" ry="5.03373" transform="matrix(-0.999176 -0.040582 -0.040582 0.999176 47.1111 54.2588)" fill="#F3C1C2"/>
<ellipse cx="2.8696" cy="2.07249" rx="2.8696" ry="2.07249" transform="matrix(-0.999176 -0.040582 -0.040582 0.999176 31.9656 74.061)" fill="#F3C1C2"/>
<g filter="url(#filter2_d_54_5921)">
<ellipse cx="252.064" cy="140.686" rx="6.58256" ry="3.8721" transform="rotate(36.6196 252.064 140.686)" fill="white"/>
</g>
<g filter="url(#filter3_d_54_5921)">
<ellipse cx="183.635" cy="143.526" rx="6.58256" ry="3.8721" transform="rotate(36.6196 183.635 143.526)" fill="white"/>
</g>
<g filter="url(#filter4_d_54_5921)">
<ellipse cx="116.002" cy="143.848" rx="6.58256" ry="3.8721" transform="rotate(36.6196 116.002 143.848)" fill="white"/>
</g>
<defs>
<filter id="filter0_d_54_5921" x="32.7043" y="38.1511" width="244.495" height="111.615" filterUnits="userSpaceOnUse" color-interpolation-filters="sRGB">
<feFlood flood-opacity="0" result="BackgroundImageFix"/>
<feColorMatrix in="SourceAlpha" type="matrix" values="0 0 0 0 0 0 0 0 0 0 0 0 0 0 0 0 0 0 127 0" result="hardAlpha"/>
<feOffset dy="1.03256"/>
<feGaussianBlur stdDeviation="0.51628"/>
<feComposite in2="hardAlpha" operator="out"/>
<feColorMatrix type="matrix" values="0 0 0 0 0 0 0 0 0 0 0 0 0 0 0 0 0 0 0.25 0"/>
<feBlend mode="normal" in2="BackgroundImageFix" result="effect1_dropShadow_54_5921"/>
<feBlend mode="normal" in="SourceGraphic" in2="effect1_dropShadow_54_5921" result="shape"/>
</filter>
<filter id="filter1_d_54_5921" x="77.2705" y="125.11" width="192.451" height="74.3976" filterUnits="userSpaceOnUse" color-interpolation-filters="sRGB">
<feFlood flood-opacity="0" result="BackgroundImageFix"/>
<feColorMatrix in="SourceAlpha" type="matrix" values="0 0 0 0 0 0 0 0 0 0 0 0 0 0 0 0 0 0 127 0" result="hardAlpha"/>
<feOffset dy="1.03256"/>
<feGaussianBlur stdDeviation="0.51628"/>
<feComposite in2="hardAlpha" operator="out"/>
<feColorMatrix type="matrix" values="0 0 0 0 0 0 0 0 0 0 0 0 0 0 0 0 0 0 0.25 0"/>
<feBlend mode="normal" in2="BackgroundImageFix" result="effect1_dropShadow_54_5921"/>
<feBlend mode="normal" in="SourceGraphic" in2="effect1_dropShadow_54_5921" result="shape"/>
</filter>
<filter id="filter2_d_54_5921" x="245.264" y="135.678" width="13.6002" height="12.0805" filterUnits="userSpaceOnUse" color-interpolation-filters="sRGB">
<feFlood flood-opacity="0" result="BackgroundImageFix"/>
<feColorMatrix in="SourceAlpha" type="matrix" values="0 0 0 0 0 0 0 0 0 0 0 0 0 0 0 0 0 0 127 0" result="hardAlpha"/>
<feOffset dy="1.03256"/>
<feGaussianBlur stdDeviation="0.51628"/>
<feComposite in2="hardAlpha" operator="out"/>
<feColorMatrix type="matrix" values="0 0 0 0 0 0 0 0 0 0 0 0 0 0 0 0 0 0 0.25 0"/>
<feBlend mode="normal" in2="BackgroundImageFix" result="effect1_dropShadow_54_5921"/>
<feBlend mode="normal" in="SourceGraphic" in2="effect1_dropShadow_54_5921" result="shape"/>
</filter>
<filter id="filter3_d_54_5921" x="176.835" y="138.518" width="13.6002" height="12.0805" filterUnits="userSpaceOnUse" color-interpolation-filters="sRGB">
<feFlood flood-opacity="0" result="BackgroundImageFix"/>
<feColorMatrix in="SourceAlpha" type="matrix" values="0 0 0 0 0 0 0 0 0 0 0 0 0 0 0 0 0 0 127 0" result="hardAlpha"/>
<feOffset dy="1.03256"/>
<feGaussianBlur stdDeviation="0.51628"/>
<feComposite in2="hardAlpha" operator="out"/>
<feColorMatrix type="matrix" values="0 0 0 0 0 0 0 0 0 0 0 0 0 0 0 0 0 0 0.25 0"/>
<feBlend mode="normal" in2="BackgroundImageFix" result="effect1_dropShadow_54_5921"/>
<feBlend mode="normal" in="SourceGraphic" in2="effect1_dropShadow_54_5921" result="shape"/>
</filter>
<filter id="filter4_d_54_5921" x="109.202" y="138.841" width="13.6002" height="12.0805" filterUnits="userSpaceOnUse" color-interpolation-filters="sRGB">
<feFlood flood-opacity="0" result="BackgroundImageFix"/>
<feColorMatrix in="SourceAlpha" type="matrix" values="0 0 0 0 0 0 0 0 0 0 0 0 0 0 0 0 0 0 127 0" result="hardAlpha"/>
<feOffset dy="1.03256"/>
<feGaussianBlur stdDeviation="0.51628"/>
<feComposite in2="hardAlpha" operator="out"/>
<feColorMatrix type="matrix" values="0 0 0 0 0 0 0 0 0 0 0 0 0 0 0 0 0 0 0.25 0"/>
<feBlend mode="normal" in2="BackgroundImageFix" result="effect1_dropShadow_54_5921"/>
<feBlend mode="normal" in="SourceGraphic" in2="effect1_dropShadow_54_5921" result="shape"/>
</filter>
</defs>
</svg>
