<svg width="1810" height="926" viewBox="0 0 1810 926" fill="none" xmlns="http://www.w3.org/2000/svg">
<ellipse cx="904.281" cy="462.927" rx="528.987" ry="383.667" transform="rotate(-9.15291 904.281 462.927)" fill="#F3C1C2"/>
<path d="M507.494 713.762C506.974 713.445 506.639 713.223 506.492 713.101C506.826 713.322 507.16 713.543 507.494 713.762C526.865 725.575 801.705 868.257 1041.62 765.079C1042.69 764.617 1043.59 765.956 1042.65 766.654C967.535 822.451 765.682 883.842 507.494 713.762Z" fill="#F2E6D5"/>
<path d="M708.858 184.474C708.136 184.805 707.663 185.05 707.447 185.2C707.918 184.957 708.388 184.715 708.858 184.474C735.837 172.109 1109.82 40.2256 1346.02 328.474C1346.77 329.383 1348.3 328.694 1347.79 327.634C1285.1 197.107 1075.91 -3.87417 708.858 184.474Z" fill="#F2E6D5"/>
<g filter="url(#filter0_d_57_786)">
<path d="M573.046 561.932C547.573 563.657 525.701 558.146 507.431 545.398C489.15 532.503 475.096 515.006 465.268 492.909C455.429 470.664 449.607 446.212 447.802 419.554C445.976 392.601 448.298 366.482 454.768 341.197C461.239 315.913 471.584 295.128 485.805 278.84C500.164 262.395 517.34 253.495 537.333 252.141C559.844 250.616 576.85 257.87 588.35 273.903C599.989 289.778 606.681 310.6 608.426 336.369C610.051 360.361 607.687 383.656 601.332 406.254C584.868 411.386 572.617 418.316 564.579 427.043C556.679 435.612 552.985 443.673 553.496 451.226C553.787 455.521 555.277 458.842 557.965 461.189C560.801 463.526 564.367 464.55 568.661 464.259C576.511 463.727 583.847 458.916 590.67 449.824C597.641 440.723 603.444 428.651 608.079 413.608C617.289 411.199 628.484 409.548 641.665 408.655C658.103 407.542 670.998 411.206 680.347 419.648C689.687 427.942 694.828 439.05 695.771 452.971C696.794 468.077 692.723 483.751 683.558 499.994C674.53 516.078 660.593 529.966 641.747 541.657C622.9 553.348 599.999 560.106 573.046 561.932ZM568.045 455.151C566.86 455.231 565.714 454.788 564.607 453.821C563.648 452.845 563.119 451.616 563.018 450.135C562.687 445.248 565.357 439.637 571.028 433.301C576.699 426.966 585.634 421.6 597.833 417.203C593.985 428.473 589.467 437.557 584.281 444.455C579.232 451.194 573.82 454.759 568.045 455.151ZM954.284 470.721C955.167 483.754 949.448 495.969 937.128 507.367C924.797 518.617 908.244 527.921 887.467 535.279C866.69 542.637 844.75 547.099 821.647 548.664C797.359 550.309 774.612 548.353 753.407 542.797C732.202 537.241 714.719 527.341 700.96 513.098C687.19 498.706 679.523 479.959 677.958 456.856C676.915 441.453 679.655 428.101 686.18 416.798C692.704 405.496 700.757 396.991 710.339 391.283C718.183 395.066 725.062 396.683 730.976 396.134C737.64 395.683 740.767 392.421 740.355 386.349C740.105 382.646 738.586 379.997 735.8 378.4C733.162 376.794 729.696 376.136 725.401 376.427C720.513 376.758 715.627 378.204 710.743 380.767C700.497 374.468 691.596 366.07 684.041 355.572C676.487 345.075 672.238 332.865 671.295 318.944C670.141 301.912 676.06 287.155 689.05 274.67C702.041 262.185 719.305 252.387 740.842 245.275C762.518 238.004 785.648 233.536 810.232 231.871C832.447 230.367 853.41 231.253 873.122 234.53C892.824 237.659 908.825 243.27 921.127 251.363C933.567 259.298 940.188 269.19 940.99 281.038C942.184 298.661 935.732 313.232 921.634 324.75C908.09 318.08 894.061 315.237 879.548 316.22C869.773 316.882 861.832 319.354 855.725 323.636C849.607 327.769 846.774 333.168 847.226 339.833C847.517 344.128 850.492 347.422 856.152 349.717C861.803 351.864 868.848 352.651 877.29 352.079C884.547 351.588 892.178 350.029 900.183 347.404C908.326 344.621 915.732 340.846 922.402 336.08C937.934 345.74 946.297 359.382 947.49 377.005C948.664 394.333 941.115 408.085 924.844 418.263C909.226 411.733 892.754 409.055 875.426 410.229C866.392 410.841 858.92 412.537 853.008 415.318C847.235 417.941 844.478 421.177 844.739 425.028C845.13 430.804 848.996 435.154 856.335 438.079C863.813 440.845 872.957 441.862 883.768 441.13C899.17 440.087 912.96 436.103 925.137 429.178C943.483 438.648 953.199 452.495 954.284 470.721ZM856.334 339.216C856.093 335.662 857.976 332.707 861.982 330.353C866.127 327.841 871.753 326.344 878.862 325.862C890.71 325.06 901.918 326.904 912.488 331.395C900.183 338.626 887.07 342.713 873.149 343.656C868.262 343.987 864.228 343.74 861.048 342.914C858.005 341.93 856.434 340.697 856.334 339.216ZM731.247 386.966C731.139 387.568 730.493 387.91 729.308 387.99C726.939 388.15 724.223 387.59 721.16 386.31C722.601 385.617 724.507 385.191 726.876 385.03C729.542 384.85 730.999 385.495 731.247 386.966ZM913.224 424.629C902.654 428.916 891.889 431.43 880.93 432.173C873.377 432.684 867.027 432.296 861.882 431.008C856.736 429.72 854.058 427.521 853.847 424.411C853.767 423.226 855.178 422.089 858.079 421C861.129 419.901 865.246 419.175 870.429 418.824C885.535 417.801 899.8 419.736 913.224 424.629ZM1010.33 527.18C998.186 528.003 987.012 522.288 976.809 510.035C966.754 497.773 958.502 481.371 952.052 460.83C945.741 440.131 941.777 417.86 940.162 394.016C938.317 366.766 939.987 340.914 945.175 316.461C950.362 292.008 959.484 271.826 972.54 255.915C985.587 239.856 1002.77 231.104 1024.1 229.659C1046.61 228.135 1065.67 231.605 1081.27 240.07C1096.85 248.387 1109.22 259.675 1118.37 273.933C1112.67 288.602 1110.29 302.823 1111.22 316.596C1111.77 324.741 1113.56 331.389 1116.59 336.54C1119.76 341.681 1123.79 344.086 1128.68 343.755C1133.27 343.444 1136.73 340.607 1139.04 335.243C1141.35 329.879 1142.23 322.976 1141.65 314.534C1140.73 300.909 1136.45 287.14 1128.81 273.226C1135.9 256.975 1146.87 243.288 1161.74 232.164C1176.75 220.882 1196.1 214.439 1219.79 212.834C1242.3 211.309 1261.61 217.44 1277.72 231.227C1293.98 245.003 1306.62 263.563 1315.64 286.905C1324.66 310.247 1330.08 335.395 1331.91 362.349C1333.57 386.934 1332.11 410.317 1327.51 432.498C1322.9 454.532 1315.35 472.599 1304.85 486.7C1294.34 500.802 1281.54 508.364 1266.44 509.387C1255.77 510.109 1246.04 507.049 1237.25 500.206C1228.45 493.363 1220.46 484.085 1213.27 472.372C1219.98 455.105 1222.81 438.623 1221.75 422.924C1221.03 412.261 1218.52 403.802 1214.23 397.546C1210.08 391.281 1204.53 388.384 1197.57 388.855C1192.98 389.166 1189.67 391.92 1187.64 397.115C1185.75 402.153 1185.1 408.967 1185.68 417.557C1186.25 425.998 1187.98 435.105 1190.88 444.877C1193.91 454.491 1197.89 463.892 1202.83 473.079C1197.28 485.654 1189.51 496.075 1179.5 504.34C1169.5 512.605 1157.84 517.189 1144.51 518.092C1131.18 518.995 1119.27 515.636 1108.79 508.014C1098.44 500.235 1089.62 489.748 1082.33 476.554C1088.37 458.143 1090.8 440.199 1089.62 422.724C1088.94 412.653 1087.04 404.45 1083.94 398.114C1080.98 391.768 1077.42 388.736 1073.28 389.017C1067.5 389.408 1063.21 393.046 1060.4 399.931C1057.74 406.806 1056.78 415.575 1057.5 426.238C1058.65 443.27 1063.44 460.129 1071.86 476.817C1059.42 508.457 1038.91 525.244 1010.33 527.18ZM1128.06 334.647C1125.84 334.798 1124.04 333.432 1122.65 330.55C1121.26 327.52 1120.39 323.414 1120.03 318.23C1119.37 308.456 1120.94 297.489 1124.72 285.33C1130.14 297.164 1133.1 307.972 1133.62 317.757C1133.95 322.644 1133.62 326.683 1132.65 329.873C1131.67 332.915 1130.14 334.507 1128.06 334.647ZM1075.89 463.824C1070.16 449.483 1066.84 435.648 1065.94 422.319C1065.45 415.063 1065.87 409.306 1067.22 405.049C1068.56 400.643 1070.78 398.335 1073.89 398.125C1075.67 398.004 1077.2 399.76 1078.49 403.393C1079.77 406.877 1080.61 411.655 1081.02 417.727C1082.05 432.833 1080.34 448.199 1075.89 463.824ZM1207.39 461.388C1203.26 453.04 1199.93 444.561 1197.41 435.954C1195.03 427.188 1193.63 419.622 1193.2 413.253C1192.89 408.662 1193.16 404.999 1194.01 402.263C1194.87 399.527 1196.26 398.094 1198.19 397.963C1202.48 397.672 1205.9 399.747 1208.43 404.188C1210.95 408.48 1212.47 414.403 1212.98 421.956C1213.8 434.1 1211.94 447.244 1207.39 461.388Z" fill="#F0576A"/>
<path d="M581.079 547.356C555.606 549.081 533.734 543.57 515.464 530.822C497.183 517.927 483.129 500.43 473.301 478.333C463.462 456.087 457.64 431.636 455.835 404.978C454.009 378.024 456.331 351.905 462.802 326.621C469.272 301.337 479.617 280.551 493.838 264.264C508.197 247.819 525.373 238.919 545.367 237.565C567.878 236.04 584.883 243.294 596.384 259.327C608.022 275.202 614.714 296.024 616.459 321.793C618.084 345.785 615.72 369.08 609.365 391.678C592.901 396.81 580.65 403.74 572.612 412.467C564.712 421.036 561.018 429.097 561.529 436.65C561.82 440.945 563.31 444.266 565.998 446.613C568.834 448.95 572.4 449.973 576.695 449.682C584.544 449.151 591.88 444.339 598.703 435.248C605.674 426.147 611.477 414.075 616.112 399.032C625.322 396.623 636.517 394.972 649.698 394.079C666.137 392.966 679.031 396.63 688.381 405.072C697.72 413.366 702.862 424.474 703.805 438.395C704.828 453.501 700.757 469.175 691.591 485.418C682.564 501.502 668.626 515.39 649.78 527.081C630.933 538.772 608.033 545.53 581.079 547.356ZM576.078 440.574C574.893 440.655 573.747 440.212 572.64 439.245C571.681 438.269 571.152 437.04 571.052 435.559C570.721 430.672 573.39 425.06 579.061 418.725C584.732 412.39 593.667 407.024 605.867 402.627C602.018 413.897 597.5 422.981 592.314 429.879C587.266 436.618 581.854 440.183 576.078 440.574ZM962.318 456.145C963.2 469.178 957.482 481.393 945.161 492.791C932.831 504.04 916.277 513.344 895.5 520.703C874.723 528.061 852.783 532.523 829.68 534.088C805.392 535.733 782.645 533.777 761.44 528.221C740.235 522.665 722.753 512.765 708.993 498.522C695.223 484.13 687.556 465.383 685.991 442.279C684.948 426.877 687.689 413.525 694.213 402.222C700.738 390.919 708.791 382.414 718.372 376.707C726.216 380.49 733.095 382.107 739.009 381.558C745.673 381.106 748.8 377.845 748.389 371.773C748.138 368.07 746.619 365.421 743.833 363.824C741.195 362.217 737.729 361.56 733.434 361.85C728.547 362.181 723.661 363.628 718.776 366.191C708.53 359.892 699.629 351.494 692.075 340.996C684.52 330.498 680.271 318.289 679.328 304.368C678.174 287.336 684.093 272.578 697.084 260.094C710.074 247.609 727.338 237.811 748.876 230.699C770.551 223.428 793.681 218.96 818.265 217.295C840.48 215.79 861.443 216.677 881.155 219.953C900.857 223.082 916.859 228.693 929.16 236.787C941.6 244.722 948.221 254.614 949.023 266.462C950.217 284.085 943.765 298.656 929.668 310.174C916.123 303.504 902.094 300.66 887.581 301.643C877.806 302.306 869.865 304.778 863.758 309.059C857.641 313.193 854.808 318.592 855.259 325.257C855.55 329.552 858.525 332.846 864.186 335.141C869.836 337.287 876.882 338.075 885.323 337.503C892.58 337.011 900.211 335.453 908.216 332.828C916.359 330.045 923.765 326.27 930.435 321.504C945.967 331.164 954.33 344.806 955.524 362.429C956.697 379.757 949.148 393.509 932.877 403.687C917.26 397.157 900.787 394.479 883.46 395.653C874.426 396.264 866.953 397.961 861.041 400.742C855.268 403.364 852.512 406.601 852.772 410.452C853.164 416.227 857.029 420.578 864.368 423.502C871.846 426.269 880.99 427.286 891.801 426.554C907.203 425.511 920.993 421.527 933.17 414.602C951.516 424.071 961.232 437.919 962.318 456.145ZM864.367 324.64C864.126 321.085 866.009 318.131 870.015 315.777C874.16 313.265 879.786 311.768 886.895 311.286C898.743 310.484 909.952 312.328 920.522 316.819C908.216 324.05 895.103 328.137 881.182 329.08C876.295 329.411 872.261 329.164 869.081 328.338C866.039 327.353 864.467 326.121 864.367 324.64ZM739.281 372.39C739.173 372.992 738.526 373.333 737.341 373.414C734.972 373.574 732.256 373.014 729.194 371.734C730.635 371.041 732.54 370.614 734.909 370.454C737.575 370.273 739.032 370.919 739.281 372.39ZM921.257 410.053C910.687 414.34 899.922 416.854 888.963 417.596C881.41 418.108 875.061 417.72 869.915 416.432C864.769 415.144 862.091 412.945 861.88 409.835C861.8 408.65 863.211 407.513 866.113 406.424C869.163 405.324 873.279 404.599 878.463 404.248C893.569 403.225 907.834 405.16 921.257 410.053ZM1018.36 512.604C1006.22 513.427 995.045 507.712 984.842 495.459C974.788 483.196 966.535 466.795 960.086 446.254C953.774 425.555 949.811 403.284 948.196 379.44C946.35 352.19 948.021 326.338 953.208 301.885C958.396 277.431 967.517 257.249 980.574 241.339C993.62 225.28 1010.81 216.528 1032.13 215.083C1054.64 213.559 1073.7 217.029 1089.3 225.494C1104.89 233.811 1117.26 245.099 1126.41 259.357C1120.7 274.025 1118.32 288.246 1119.25 302.02C1119.8 310.165 1121.59 316.813 1124.62 321.964C1127.8 327.105 1131.83 329.51 1136.71 329.179C1141.31 328.868 1144.76 326.031 1147.07 320.667C1149.39 315.303 1150.26 308.4 1149.69 299.958C1148.76 286.333 1144.48 272.564 1136.85 258.649C1143.93 242.399 1154.9 228.712 1169.77 217.588C1184.78 206.306 1204.13 199.863 1227.83 198.258C1250.34 196.733 1269.65 202.864 1285.76 216.651C1302.01 230.427 1314.65 248.987 1323.67 272.329C1332.69 295.671 1338.11 320.819 1339.94 347.773C1341.6 372.357 1340.14 395.74 1335.54 417.922C1330.93 439.956 1323.38 458.023 1312.88 472.124C1302.38 486.226 1289.57 493.788 1274.47 494.811C1263.81 495.533 1254.08 492.473 1245.28 485.63C1236.49 478.786 1228.49 469.508 1221.3 457.796C1228.02 440.529 1230.84 424.046 1229.78 408.348C1229.06 397.685 1226.55 389.226 1222.26 382.97C1218.12 376.705 1212.56 373.808 1205.6 374.279C1201.01 374.59 1197.7 377.343 1195.67 382.539C1193.78 387.577 1193.13 394.391 1193.71 402.98C1194.28 411.422 1196.02 420.529 1198.91 430.301C1201.94 439.915 1205.92 449.316 1210.86 458.503C1205.32 471.078 1197.54 481.499 1187.54 489.764C1177.53 498.029 1165.87 502.613 1152.54 503.516C1139.21 504.419 1127.3 501.059 1116.82 493.438C1106.47 485.658 1097.66 475.172 1090.36 461.978C1096.41 443.567 1098.84 425.623 1097.65 408.148C1096.97 398.077 1095.08 389.874 1091.97 383.538C1089.01 377.192 1085.46 374.16 1081.31 374.441C1075.53 374.832 1071.24 378.47 1068.44 385.355C1065.78 392.23 1064.81 400.999 1065.53 411.662C1066.69 428.694 1071.47 445.553 1079.89 462.241C1067.46 493.88 1046.95 510.668 1018.36 512.604ZM1136.1 320.071C1133.88 320.221 1132.07 318.856 1130.69 315.974C1129.29 312.944 1128.42 308.838 1128.07 303.654C1127.41 293.88 1128.97 282.913 1132.76 270.754C1138.17 282.587 1141.13 293.396 1141.65 303.181C1141.98 308.068 1141.66 312.107 1140.68 315.297C1139.7 318.339 1138.17 319.931 1136.1 320.071ZM1083.92 449.248C1078.19 434.907 1074.87 421.072 1073.97 407.743C1073.48 400.486 1073.91 394.73 1075.25 390.472C1076.59 386.067 1078.82 383.759 1081.93 383.549C1083.7 383.428 1085.24 385.184 1086.52 388.816C1087.8 392.301 1088.65 397.079 1089.06 403.151C1090.08 418.257 1088.37 433.622 1083.92 449.248ZM1215.43 446.812C1211.29 438.463 1207.96 429.985 1205.45 421.378C1203.07 412.612 1201.66 405.045 1201.23 398.677C1200.92 394.086 1201.19 390.423 1202.05 387.687C1202.9 384.951 1204.29 383.517 1206.22 383.387C1210.51 383.096 1213.93 385.171 1216.46 389.612C1218.98 393.904 1220.5 399.827 1221.01 407.38C1221.83 419.524 1219.97 432.668 1215.43 446.812Z" fill="#FEC994"/>
<path d="M590.313 535.705C564.84 537.43 542.969 531.919 524.698 519.171C506.418 506.276 492.363 488.779 482.535 466.682C472.697 444.437 466.875 419.985 465.069 393.327C463.244 366.374 465.566 340.255 472.036 314.97C478.506 289.686 488.852 268.901 503.073 252.613C517.432 236.168 534.608 227.268 554.601 225.914C577.112 224.389 594.118 231.643 605.618 247.676C617.256 263.551 623.948 284.373 625.694 310.142C627.319 334.134 624.954 357.429 618.6 380.027C602.135 385.159 589.884 392.089 581.846 400.816C573.946 409.385 570.252 417.446 570.764 424.999C571.055 429.294 572.544 432.615 575.232 434.962C578.069 437.299 581.634 438.322 585.929 438.032C593.778 437.5 601.114 432.688 607.938 423.597C614.909 414.496 620.712 402.424 625.346 387.381C634.556 384.972 645.751 383.321 658.932 382.428C675.371 381.315 688.265 384.979 697.615 393.421C706.955 401.715 712.096 412.823 713.039 426.744C714.062 441.85 709.991 457.524 700.825 473.767C691.798 489.851 677.861 503.739 659.014 515.43C640.167 527.121 617.267 533.879 590.313 535.705ZM585.312 428.924C584.127 429.004 582.982 428.561 581.875 427.594C580.916 426.618 580.386 425.389 580.286 423.908C579.955 419.021 582.625 413.41 588.296 407.074C593.966 400.739 602.901 395.373 615.101 390.976C611.252 402.246 606.735 411.33 601.548 418.228C596.5 424.967 591.088 428.532 585.312 428.924ZM971.552 444.494C972.435 457.527 966.716 469.742 954.396 481.14C942.065 492.39 925.511 501.694 904.735 509.052C883.958 516.41 862.018 520.872 838.914 522.437C814.626 524.082 791.88 522.126 770.675 516.57C749.469 511.014 731.987 501.114 718.227 486.871C704.458 472.479 696.79 453.732 695.226 430.629C694.182 415.226 696.923 401.874 703.447 390.571C709.972 379.269 718.025 370.763 727.607 365.056C735.45 368.839 742.329 370.456 748.243 369.907C754.908 369.456 758.034 366.194 757.623 360.122C757.372 356.419 755.854 353.77 753.068 352.173C750.43 350.567 746.963 349.909 742.668 350.2C737.781 350.531 732.895 351.977 728.01 354.54C717.764 348.241 708.864 339.843 701.309 329.345C693.754 318.847 689.505 306.638 688.562 292.717C687.409 275.685 693.327 260.928 706.318 248.443C719.309 235.958 736.573 226.16 758.11 219.048C779.785 211.777 802.915 207.309 827.5 205.644C849.714 204.139 870.678 205.026 890.389 208.303C910.091 211.431 926.093 217.043 938.395 225.136C950.834 233.071 957.455 242.963 958.258 254.811C959.452 272.434 953 287.005 938.902 298.523C925.358 291.853 911.329 289.01 896.815 289.993C887.041 290.655 879.1 293.127 872.992 297.409C866.875 301.542 864.042 306.941 864.493 313.606C864.784 317.901 867.76 321.195 873.42 323.49C879.07 325.637 886.116 326.424 894.558 325.852C901.814 325.361 909.445 323.802 917.45 321.177C925.593 318.394 933 314.619 939.669 309.853C955.201 319.513 963.564 333.155 964.758 350.778C965.932 368.106 958.383 381.858 942.112 392.036C926.494 385.506 910.021 382.828 892.694 384.002C883.66 384.614 876.187 386.31 870.276 389.091C864.502 391.713 861.746 394.95 862.007 398.801C862.398 404.576 866.263 408.927 873.603 411.852C881.08 414.618 890.224 415.635 901.036 414.903C916.438 413.86 930.227 409.876 942.405 402.951C960.75 412.421 970.466 426.268 971.552 444.494ZM873.601 312.989C873.361 309.435 875.243 306.48 879.25 304.126C883.394 301.614 889.021 300.117 896.129 299.635C907.977 298.833 919.186 300.677 929.756 305.168C917.451 312.399 904.338 316.486 890.416 317.429C885.529 317.76 881.495 317.513 878.315 316.687C875.273 315.702 873.702 314.47 873.601 312.989ZM748.515 360.739C748.407 361.341 747.761 361.682 746.576 361.763C744.206 361.923 741.49 361.363 738.428 360.083C739.869 359.39 741.774 358.964 744.144 358.803C746.809 358.623 748.267 359.268 748.515 360.739ZM930.492 398.402C919.921 402.689 909.157 405.203 898.197 405.946C890.644 406.457 884.295 406.069 879.149 404.781C874.004 403.493 871.325 401.294 871.115 398.184C871.034 396.999 872.445 395.862 875.347 394.773C878.397 393.674 882.514 392.948 887.697 392.597C902.803 391.574 917.068 393.509 930.492 398.402ZM1027.6 500.953C1015.45 501.776 1004.28 496.061 994.077 483.808C984.022 471.546 975.77 455.144 969.32 434.603C963.008 413.904 959.045 391.633 957.43 367.789C955.584 340.539 957.255 314.687 962.443 290.234C967.63 265.781 976.752 245.598 989.808 229.688C1002.85 213.629 1020.04 204.877 1041.37 203.432C1063.88 201.908 1082.93 205.378 1098.53 213.843C1114.12 222.16 1126.49 233.448 1135.64 247.706C1129.94 262.375 1127.55 276.596 1128.49 290.369C1129.04 298.514 1130.83 305.162 1133.86 310.313C1137.03 315.454 1141.06 317.859 1145.95 317.528C1150.54 317.217 1153.99 314.38 1156.31 309.016C1158.62 303.652 1159.49 296.749 1158.92 288.307C1158 274.682 1153.72 260.913 1146.08 246.999C1153.16 230.748 1164.14 217.061 1179.01 205.937C1194.01 194.655 1213.36 188.212 1237.06 186.607C1259.57 185.082 1278.88 191.213 1294.99 205C1311.25 218.776 1323.89 237.336 1332.91 260.678C1341.93 284.02 1347.35 309.168 1349.17 336.122C1350.84 360.706 1349.37 384.089 1344.78 406.271C1340.17 428.305 1332.61 446.372 1322.11 460.473C1311.61 474.575 1298.81 482.137 1283.7 483.16C1273.04 483.882 1263.31 480.822 1254.52 473.979C1245.72 467.136 1237.73 457.858 1230.54 446.145C1237.25 428.878 1240.08 412.396 1239.02 396.697C1238.29 386.034 1235.79 377.575 1231.49 371.319C1227.35 365.054 1221.8 362.157 1214.84 362.628C1210.25 362.939 1206.94 365.693 1204.91 370.888C1203.02 375.926 1202.36 382.74 1202.95 391.329C1203.52 399.771 1205.25 408.878 1208.14 418.65C1211.17 428.264 1215.16 437.665 1220.1 446.852C1214.55 459.427 1206.78 469.848 1196.77 478.113C1186.77 486.378 1175.1 490.962 1161.77 491.865C1148.45 492.768 1136.54 489.409 1126.05 481.787C1115.71 474.008 1106.89 463.521 1099.6 450.327C1105.64 431.916 1108.07 413.972 1106.89 396.497C1106.21 386.426 1104.31 378.223 1101.2 371.887C1098.24 365.541 1094.69 362.509 1090.54 362.79C1084.77 363.181 1080.48 366.819 1077.67 373.704C1075.01 380.579 1074.04 389.348 1074.77 400.011C1075.92 417.043 1080.71 433.902 1089.13 450.59C1076.69 482.23 1056.18 499.017 1027.6 500.953ZM1145.33 308.42C1143.11 308.571 1141.31 307.205 1139.92 304.323C1138.53 301.293 1137.65 297.187 1137.3 292.003C1136.64 282.229 1138.2 271.262 1141.99 259.103C1147.4 270.936 1150.37 281.745 1150.88 291.53C1151.21 296.417 1150.89 300.456 1149.92 303.646C1148.93 306.688 1147.41 308.28 1145.33 308.42ZM1093.16 437.597C1087.42 423.256 1084.11 409.421 1083.2 396.092C1082.71 388.836 1083.14 383.079 1084.49 378.822C1085.83 374.416 1088.05 372.108 1091.16 371.898C1092.94 371.777 1094.47 373.533 1095.76 377.166C1097.04 380.65 1097.88 385.428 1098.29 391.5C1099.31 406.606 1097.6 421.971 1093.16 437.597ZM1224.66 435.161C1220.52 426.812 1217.2 418.334 1214.68 409.727C1212.3 400.961 1210.9 393.395 1210.46 387.026C1210.15 382.435 1210.43 378.772 1211.28 376.036C1212.14 373.3 1213.53 371.867 1215.45 371.736C1219.75 371.445 1223.16 373.52 1225.7 377.961C1228.22 382.253 1229.73 388.176 1230.25 395.729C1231.07 407.873 1229.21 421.017 1224.66 435.161Z" fill="#495184"/>
<path d="M1099.94 450.077L1088.97 450.82L1079.99 451.429C1078.06 451.559 1068.45 441.483 1065.35 438.236L1065.04 437.908C1062.34 435.084 1061.68 410.572 1061.48 407.579C1061.32 405.184 1063.01 366.047 1063.88 346.778L1092.81 344.818L1118.97 390.655L1099.94 450.077Z" fill="#495184"/>
<path d="M1199.95 417.243C1199.6 415.957 1201.36 399.616 1203.25 383.321L1201.05 389.105L1193.15 405.676L1187.02 389.053L1196.44 365.362C1201.99 358.638 1213.48 344.663 1214.94 342.56C1216.76 339.93 1236.16 345.132 1242.95 349.182C1249.74 353.232 1262.08 387.477 1261.72 389.506C1261.43 391.129 1241.41 427.632 1231.44 445.68L1219.97 446.457L1210.09 448.63C1206.94 438.988 1200.48 419.212 1199.95 417.243Z" fill="#495184"/>
<path d="M938.4 388.353L952.925 410.421L951.403 417.541C947.958 420.948 940.106 428.329 936.25 430.594C931.43 433.427 921.394 440.621 909.522 442.929C897.651 445.236 883.192 453.733 873.181 453.91C863.171 454.087 844.824 434.782 841.857 427.967C838.889 421.152 845.74 389.116 847.102 387.019C848.191 385.342 865.126 374.439 873.457 369.197L938.4 388.353Z" fill="#495184"/>
<path d="M936.766 290.239C938.477 297.74 939.733 306.91 940.147 310.557C939.944 317.419 938.201 332.137 932.857 336.108C926.177 341.07 922.524 346.329 915.675 348.798C908.827 351.266 884.086 355.949 866.593 356.633C849.099 357.316 845.583 335.003 843.013 326.658C840.957 319.981 847.091 293.139 850.414 280.552C878.485 280.655 935.055 282.737 936.766 290.239Z" fill="#495184"/>
<path d="M626.261 389.449C626.099 387.054 621.397 381.76 619.066 379.412C612.003 378.721 596.594 377.627 591.46 378.776C585.043 380.213 582.65 381.879 572.013 387.611C561.376 393.343 558.822 400.03 556.167 405.222C553.511 410.413 558.989 432.092 561.491 439.44C563.993 446.788 580.201 456.715 582.197 456.58L611.13 454.62C616.242 433.894 626.423 391.843 626.261 389.449Z" fill="#495184"/>
<path d="M1127.58 266.289L1146.82 246.945L1154.2 244.941C1158.18 247.01 1166.6 251.919 1168.41 255.004C1170.68 258.859 1172.75 267.239 1174.59 272.126C1176.42 277.013 1176.44 292.046 1175.02 300.662C1173.59 309.278 1167.18 318.231 1161.5 323.127C1155.82 328.022 1147.64 333.086 1143.65 333.356C1139.66 333.626 1127.85 329.415 1122.59 325.762C1117.33 322.109 1113.66 312.335 1113.29 306.847C1112.99 302.457 1122.7 277.979 1127.58 266.289Z" fill="#495184"/>
<path d="M606.852 513.536C581.379 515.262 559.508 509.75 541.237 497.003C522.957 484.107 508.902 466.611 499.074 444.513C489.236 422.268 483.414 397.817 481.608 371.159C479.783 344.205 482.105 318.086 488.575 292.802C495.045 267.518 505.391 246.732 519.612 230.445C533.971 213.999 551.147 205.1 571.14 203.745C593.651 202.221 610.657 209.475 622.157 225.508C633.796 241.382 640.487 262.204 642.233 287.973C643.858 311.965 641.493 335.26 635.139 357.859C618.674 362.991 606.423 369.921 598.385 378.648C590.485 387.217 586.791 395.278 587.303 402.831C587.594 407.126 589.083 410.447 591.771 412.794C594.608 415.131 598.173 416.154 602.468 415.863C610.317 415.331 617.653 410.52 624.477 401.429C631.448 392.327 637.251 380.255 641.885 365.212C651.095 362.803 662.29 361.152 675.471 360.26C691.91 359.146 704.804 362.811 714.154 371.253C723.494 379.547 728.635 390.654 729.578 404.576C730.601 419.682 726.53 435.356 717.364 451.598C708.337 467.683 694.4 481.57 675.553 493.261C656.706 504.952 633.806 511.711 606.852 513.536ZM601.851 406.755C600.666 406.835 599.521 406.392 598.414 405.426C597.455 404.449 596.925 403.221 596.825 401.74C596.494 396.852 599.164 391.241 604.835 384.906C610.505 378.571 619.441 373.205 631.64 368.808C627.791 380.078 623.274 389.162 618.087 396.059C613.039 402.799 607.627 406.364 601.851 406.755ZM988.091 422.326C988.974 435.359 983.255 447.574 970.935 458.971C958.604 470.221 942.051 479.525 921.274 486.883C900.497 494.242 878.557 498.703 855.454 500.268C831.165 501.913 808.419 499.958 787.214 494.402C766.008 488.845 748.526 478.946 734.766 464.702C720.997 450.311 713.329 431.563 711.765 408.46C710.721 393.058 713.462 379.705 719.987 368.403C726.511 357.1 734.564 348.595 744.146 342.888C751.99 346.671 758.868 348.288 764.782 347.738C771.447 347.287 774.573 344.025 774.162 337.953C773.911 334.251 772.393 331.601 769.607 330.005C766.969 328.398 763.502 327.74 759.207 328.031C754.32 328.362 749.434 329.809 744.549 332.371C734.303 326.073 725.403 317.675 717.848 307.177C710.293 296.679 706.044 284.47 705.101 270.548C703.948 253.517 709.866 238.759 722.857 226.275C735.848 213.79 753.112 203.992 774.649 196.879C796.325 189.609 819.454 185.141 844.039 183.476C866.253 181.971 887.217 182.857 906.929 186.134C926.63 189.263 942.632 194.874 954.934 202.968C967.373 210.903 973.994 220.794 974.797 232.642C975.991 250.266 969.539 264.837 955.441 276.355C941.897 269.685 927.868 266.841 913.354 267.824C903.58 268.486 895.639 270.958 889.531 275.24C883.414 279.374 880.581 284.773 881.032 291.437C881.323 295.732 884.299 299.027 889.959 301.322C895.609 303.468 902.655 304.255 911.097 303.684C918.353 303.192 925.984 301.634 933.989 299.009C942.132 296.226 949.539 292.451 956.208 287.684C971.741 297.344 980.103 310.986 981.297 328.61C982.471 345.937 974.922 359.69 958.651 369.867C943.033 363.338 926.56 360.66 909.233 361.833C900.199 362.445 892.726 364.141 886.815 366.922C881.041 369.545 878.285 372.782 878.546 376.632C878.937 382.408 882.802 386.758 890.142 389.683C897.619 392.45 906.764 393.467 917.575 392.735C932.977 391.691 946.767 387.707 958.944 380.783C977.29 390.252 987.005 404.1 988.091 422.326ZM890.14 290.82C889.9 287.266 891.782 284.312 895.789 281.958C899.933 279.445 905.56 277.948 912.668 277.467C924.516 276.664 935.725 278.509 946.295 283C933.99 290.231 920.877 294.318 906.955 295.261C902.068 295.592 898.034 295.344 894.854 294.518C891.812 293.534 890.241 292.301 890.14 290.82ZM765.054 338.57C764.946 339.173 764.3 339.514 763.115 339.594C760.745 339.755 758.029 339.195 754.967 337.914C756.408 337.222 758.313 336.795 760.683 336.635C763.348 336.454 764.806 337.099 765.054 338.57ZM947.031 376.234C936.46 380.52 925.696 383.035 914.736 383.777C907.183 384.289 900.834 383.9 895.688 382.612C890.543 381.324 887.864 379.125 887.654 376.015C887.574 374.831 888.984 373.694 891.886 372.604C894.936 371.505 899.053 370.78 904.236 370.429C919.342 369.406 933.607 371.341 947.031 376.234ZM1044.14 478.785C1031.99 479.607 1020.82 473.892 1010.62 461.64C1000.56 449.377 992.309 432.975 985.859 412.435C979.547 391.736 975.584 369.464 973.969 345.621C972.123 318.371 973.794 292.519 978.982 268.065C984.169 243.612 993.291 223.43 1006.35 207.519C1019.39 191.46 1036.58 182.708 1057.91 181.264C1080.42 179.739 1099.47 183.209 1115.07 191.675C1130.66 199.992 1143.03 211.279 1152.18 225.537C1146.48 240.206 1144.09 254.427 1145.03 268.2C1145.58 276.346 1147.37 282.994 1150.39 288.145C1153.57 293.286 1157.6 295.691 1162.49 295.36C1167.08 295.049 1170.53 292.211 1172.85 286.847C1175.16 281.483 1176.03 274.58 1175.46 266.139C1174.54 252.514 1170.26 238.744 1162.62 224.83C1169.7 208.58 1180.68 194.893 1195.55 183.769C1210.55 172.487 1229.9 166.043 1253.6 164.438C1276.11 162.914 1295.42 169.045 1311.53 182.831C1327.79 196.608 1340.42 215.167 1349.44 238.51C1358.46 261.852 1363.89 287 1365.71 313.954C1367.38 338.538 1365.91 361.921 1361.31 384.103C1356.71 406.136 1349.15 424.204 1338.65 438.305C1328.15 452.406 1315.35 459.968 1300.24 460.992C1289.58 461.714 1279.85 458.653 1271.05 451.81C1262.26 444.967 1254.27 435.689 1247.08 423.976C1253.79 406.71 1256.62 390.227 1255.55 374.529C1254.83 363.866 1252.33 355.406 1248.03 349.151C1243.89 342.885 1238.34 339.988 1231.38 340.46C1226.79 340.771 1223.48 343.524 1221.45 348.72C1219.56 353.758 1218.9 360.571 1219.48 369.161C1220.06 377.603 1221.79 386.709 1224.68 396.482C1227.71 406.096 1231.7 415.496 1236.64 424.684C1231.09 437.259 1223.31 447.679 1213.31 455.945C1203.31 464.21 1191.64 468.794 1178.31 469.697C1164.98 470.599 1153.08 467.24 1142.59 459.619C1132.25 451.839 1123.43 441.352 1116.14 428.159C1122.18 409.747 1124.61 391.804 1123.43 374.328C1122.74 364.258 1120.85 356.054 1117.74 349.719C1114.78 343.373 1111.23 340.34 1107.08 340.621C1101.31 341.012 1097.02 344.651 1094.21 351.536C1091.55 358.411 1090.58 367.18 1091.31 377.843C1092.46 394.874 1097.25 411.734 1105.67 428.422C1093.23 460.061 1072.72 476.849 1044.14 478.785ZM1161.87 286.252C1159.65 286.402 1157.85 285.036 1156.46 282.155C1155.07 279.125 1154.19 275.018 1153.84 269.835C1153.18 260.06 1154.74 249.094 1158.53 236.935C1163.94 248.768 1166.91 259.577 1167.42 269.361C1167.75 274.249 1167.43 278.287 1166.46 281.478C1165.47 284.52 1163.94 286.111 1161.87 286.252ZM1109.7 415.428C1103.96 401.088 1100.65 387.253 1099.74 373.924C1099.25 366.667 1099.68 360.91 1101.03 356.653C1102.37 352.248 1104.59 349.94 1107.7 349.729C1109.48 349.609 1111.01 351.365 1112.3 354.997C1113.58 358.481 1114.42 363.259 1114.83 369.331C1115.85 384.437 1114.14 399.803 1109.7 415.428ZM1241.2 412.993C1237.06 404.644 1233.74 396.166 1231.22 387.558C1228.84 378.793 1227.44 371.226 1227 364.858C1226.69 360.267 1226.97 356.603 1227.82 353.867C1228.68 351.131 1230.07 349.698 1231.99 349.568C1236.29 349.277 1239.7 351.352 1242.23 355.792C1244.76 360.085 1246.27 366.007 1246.79 373.56C1247.61 385.705 1245.75 398.849 1241.2 412.993Z" fill="white"/>
</g>
<g filter="url(#filter1_d_57_786)">
<path d="M615.273 620.719C614.319 606.614 617.239 592.599 624.035 578.674C630.924 564.642 641.633 552.864 656.163 543.339C670.793 533.808 688.661 528.328 709.767 526.9C730.674 525.486 748.426 527.2 763.023 532.041C777.713 536.775 788.764 543.413 796.175 551.956C803.686 560.492 807.773 569.661 808.437 579.464C808.849 585.566 807.898 591.56 805.583 597.444C803.368 603.322 799.848 608.484 795.024 612.93C803.326 618.298 809.889 625.441 814.713 634.359C819.536 643.278 822.31 653.089 823.034 663.793C824.016 678.297 821.108 692.512 814.313 706.437C807.617 720.356 796.854 732.088 782.025 741.632C767.295 751.17 748.927 756.684 726.92 758.173C706.613 759.546 689.412 757.796 675.315 752.921C661.218 748.046 650.557 741.231 643.332 732.474C636.201 723.611 632.29 714.078 631.6 703.875C631.153 697.273 631.984 690.986 634.093 685.015C636.301 679.037 639.754 673.628 644.451 668.789C635.689 664.055 628.814 657.486 623.824 649.081C618.827 640.576 615.976 631.122 615.273 620.719ZM621.384 619.702C622.047 629.505 624.807 638.363 629.663 646.274C634.519 654.186 641.158 660.219 649.578 664.372C657.395 658.115 667.356 654.578 679.46 653.759C689.463 653.082 697.34 653.655 703.09 655.476C708.934 657.191 711.958 659.549 712.161 662.55C712.37 665.651 709.799 668.488 704.446 671.061C699.086 673.534 691.455 675.105 681.552 675.775C669.848 676.567 659.506 675.206 650.526 671.694C646.075 675.713 642.728 680.462 640.486 685.939C638.244 691.417 637.326 697.157 637.732 703.158C638.354 712.361 641.947 720.911 648.511 728.808C655.174 736.698 665.088 742.86 678.25 747.296C691.413 751.731 707.497 753.306 726.503 752.021C747.21 750.62 764.498 745.481 778.368 736.604C792.332 727.62 802.441 716.636 808.698 703.652C815.054 690.661 817.776 677.413 816.862 663.909C816.186 653.905 813.559 644.788 808.982 636.556C804.499 628.217 798.177 621.661 790.016 616.887C781.399 623.198 770.638 626.789 757.734 627.662C746.23 628.441 737.1 627.903 730.342 626.048C723.678 624.088 720.237 621.507 720.021 618.306C719.797 615.005 722.809 611.987 729.055 609.253C735.395 606.413 744.417 604.597 756.12 603.805C768.024 603 779.157 604.909 789.519 609.534C793.983 605.715 797.297 601.22 799.459 596.05C801.722 590.872 802.664 585.482 802.285 579.881C801.689 571.078 797.92 562.892 790.976 555.322C784.126 547.646 773.876 541.707 760.227 537.505C746.571 533.204 729.89 531.719 710.184 533.052C690.277 534.399 673.489 539.504 659.819 548.367C646.149 557.231 636.083 568.112 629.619 581.009C623.256 593.901 620.511 606.798 621.384 619.702ZM656.684 666.906C663.782 669.34 671.933 670.246 681.136 669.623C688.938 669.095 695.006 668.182 699.34 666.884C703.674 665.586 705.797 664.287 705.709 662.987C705.627 661.786 703.302 660.838 698.733 660.142C694.164 659.447 687.878 659.369 679.876 659.911C671.073 660.506 663.342 662.838 656.684 666.906ZM726.172 617.889C726.267 619.29 729.106 620.404 734.689 621.232C740.272 622.061 747.815 622.153 757.318 621.51C767.321 620.834 776.095 618.331 783.641 614.002C775.174 610.655 766.139 609.307 756.536 609.957C746.933 610.606 739.418 611.667 733.991 613.14C728.664 614.606 726.057 616.189 726.172 617.889ZM803.158 644.034C801.852 624.728 803.124 606.403 806.975 589.06C810.82 571.616 817.635 557.237 827.421 545.923C837.3 534.502 850.043 528.264 865.648 527.209C881.253 526.153 894.62 528.414 905.75 533.992C916.873 539.47 925.867 546.901 932.732 556.284C938.316 545.255 946.437 536.063 957.094 528.71C967.844 521.25 981.422 516.965 997.827 515.855C1014.23 514.745 1028.4 519.163 1040.33 529.109C1052.35 538.948 1061.68 552.183 1068.34 568.817C1075.09 585.443 1079.11 603.359 1080.41 622.566C1081.6 640.171 1080.48 656.929 1077.03 672.838C1073.58 688.648 1067.83 701.698 1059.78 711.99C1051.73 722.182 1041.85 727.674 1030.15 728.465C1022.34 728.993 1015.08 727.073 1008.35 722.704C1001.73 718.329 995.785 712.199 990.528 704.315C986.182 712.849 980.373 719.824 973.102 725.24C965.831 730.656 957.394 733.688 947.791 734.338C938.188 734.988 929.553 732.858 921.885 727.951C914.211 722.943 907.625 716.203 902.128 707.732C897.822 716.867 891.903 724.452 884.373 730.488C876.836 736.425 867.766 739.751 857.162 740.469C847.759 741.105 839.142 737.015 831.31 728.199C823.479 719.383 817.145 707.452 812.308 692.404C807.372 677.363 804.321 661.24 803.158 644.034ZM809.36 644.368C810.456 660.574 813.132 675.617 817.387 689.498C821.743 703.372 827.316 714.451 834.106 722.734C840.997 731.011 848.544 734.872 856.746 734.317C876.052 733.011 889.907 721.673 898.309 700.303C892.616 688.931 889.383 677.543 888.612 666.139C888.125 658.937 888.779 653.014 890.575 648.371C892.472 643.72 895.37 641.263 899.271 640.999C902.172 640.803 904.622 642.848 906.62 647.135C908.619 651.421 909.848 656.965 910.308 663.767C911.113 675.671 909.471 687.791 905.382 700.126C910.305 709.038 916.261 716.122 923.249 721.377C930.33 726.525 938.372 728.795 947.375 728.186C956.378 727.577 964.258 724.481 971.015 718.899C977.772 713.317 983.024 706.279 986.77 697.786C983.443 691.68 980.753 685.33 978.699 678.736C976.745 672.136 975.575 665.985 975.189 660.283C974.804 654.581 975.246 649.979 976.516 646.476C977.887 642.967 980.123 641.107 983.224 640.897C987.925 640.579 991.675 642.536 994.474 646.769C997.372 650.994 999.065 656.708 999.552 663.91C1000.27 674.514 998.36 685.647 993.823 697.309C998.679 705.22 1004.08 711.488 1010.02 716.11C1015.96 720.733 1022.53 722.801 1029.73 722.313C1039.93 721.623 1048.58 716.516 1055.68 706.992C1062.77 697.468 1067.87 685.265 1070.99 670.383C1074.09 655.401 1075.08 639.607 1073.96 623.002C1072.73 604.796 1069.07 587.81 1062.98 572.043C1056.89 556.276 1048.35 543.74 1037.37 534.434C1026.49 525.121 1013.45 520.979 998.243 522.007C982.238 523.09 969.218 527.438 959.181 535.05C949.138 542.563 941.674 551.81 936.79 562.793C941.941 572.091 944.831 581.392 945.46 590.695C945.846 596.397 945.207 601.063 943.543 604.692C941.979 608.315 939.697 610.228 936.696 610.431C933.395 610.654 930.672 609.03 928.528 605.557C926.484 602.078 925.276 597.587 924.904 592.086C924.281 582.883 925.892 573.277 929.737 563.27C923.559 553.639 915.155 546.017 904.525 540.406C893.989 534.687 881.169 532.339 866.064 533.36C851.759 534.328 840.15 540.238 831.238 551.091C822.418 561.837 816.256 575.469 812.75 591.985C809.238 608.401 808.108 625.863 809.36 644.368ZM894.312 663.493C894.921 672.496 897.161 681.84 901.031 691.527C904.036 680.973 905.193 670.595 904.502 660.392C904.225 656.29 903.655 653.063 902.792 650.71C901.923 648.256 900.888 647.07 899.688 647.151C897.687 647.287 896.185 648.845 895.18 651.828C894.27 654.703 893.98 658.591 894.312 663.493ZM930.857 593.19C931.094 596.691 931.683 599.465 932.626 601.512C933.561 603.458 934.779 604.381 936.28 604.279C937.68 604.184 938.713 603.11 939.378 601.055C940.036 598.9 940.253 596.172 940.03 592.871C939.584 586.269 937.582 578.968 934.026 570.969C931.467 579.181 930.41 586.588 930.857 593.19ZM980.269 657.377C980.56 661.678 981.508 666.789 983.115 672.71C984.814 678.524 987.061 684.25 989.854 689.89C992.926 680.336 994.184 671.458 993.629 663.256C993.284 658.154 992.21 654.157 990.406 651.264C988.696 648.265 986.441 646.86 983.64 647.049C982.439 647.131 981.503 648.149 980.832 650.103C980.253 651.951 980.066 654.376 980.269 657.377ZM1062.14 626.515C1060.83 607.209 1062.11 588.884 1065.96 571.54C1069.8 554.096 1076.62 539.717 1086.4 528.404C1096.28 516.983 1109.02 510.745 1124.63 509.689C1140.23 508.633 1153.6 510.895 1164.73 516.473C1175.85 521.95 1184.85 529.381 1191.71 538.765C1197.3 527.735 1205.42 518.544 1216.08 511.19C1226.83 503.73 1240.4 499.446 1256.81 498.336C1273.21 497.226 1287.38 501.644 1299.31 511.589C1311.33 521.428 1320.67 534.664 1327.32 551.297C1334.07 567.924 1338.1 585.84 1339.4 605.046C1340.59 622.652 1339.46 639.409 1336.01 655.319C1332.56 671.128 1326.81 684.179 1318.76 694.471C1310.71 704.662 1300.83 710.154 1289.13 710.946C1281.33 711.474 1274.06 709.553 1267.34 705.185C1260.71 700.81 1254.77 694.68 1249.51 686.795C1245.16 695.329 1239.36 702.304 1232.08 707.72C1224.81 713.136 1216.38 716.169 1206.77 716.818C1197.17 717.468 1188.54 715.339 1180.87 710.431C1173.19 705.424 1166.61 698.684 1161.11 690.213C1156.8 699.347 1150.89 706.933 1143.36 712.969C1135.82 718.905 1126.75 722.232 1116.14 722.949C1106.74 723.585 1098.12 719.496 1090.29 710.68C1082.46 701.864 1076.13 689.932 1071.29 674.885C1066.35 659.844 1063.3 643.72 1062.14 626.515ZM1068.34 626.849C1069.44 643.054 1072.11 658.097 1076.37 671.978C1080.72 685.853 1086.3 696.932 1093.09 705.215C1099.98 713.491 1107.53 717.352 1115.73 716.797C1135.03 715.491 1148.89 704.153 1157.29 682.784C1151.6 671.412 1148.37 660.024 1147.59 648.62C1147.11 641.418 1147.76 635.495 1149.56 630.851C1151.45 626.201 1154.35 623.744 1158.25 623.48C1161.15 623.284 1163.6 625.329 1165.6 629.615C1167.6 633.902 1168.83 639.446 1169.29 646.248C1170.1 658.152 1168.45 670.271 1164.36 682.607C1169.29 691.519 1175.24 698.602 1182.23 703.857C1189.31 709.006 1197.35 711.276 1206.36 710.667C1215.36 710.057 1223.24 706.962 1230 701.38C1236.75 695.798 1242.01 688.76 1245.75 680.266C1242.43 674.161 1239.74 667.811 1237.68 661.217C1235.73 654.616 1234.56 648.465 1234.17 642.763C1233.79 637.061 1234.23 632.459 1235.5 628.957C1236.87 625.447 1239.1 623.588 1242.21 623.378C1246.91 623.06 1250.66 625.017 1253.46 629.249C1256.35 633.475 1258.05 639.189 1258.53 646.391C1259.25 656.994 1257.34 668.127 1252.81 679.789C1257.66 687.701 1263.06 693.968 1269 698.591C1274.94 703.213 1281.51 705.281 1288.71 704.794C1298.92 704.104 1307.56 698.997 1314.66 689.473C1321.75 679.949 1326.86 667.746 1329.97 652.864C1333.07 637.882 1334.07 622.088 1332.94 605.483C1331.71 587.277 1328.05 570.291 1321.96 554.524C1315.87 538.757 1307.33 526.221 1296.35 516.914C1285.47 507.601 1272.43 503.459 1257.23 504.488C1241.22 505.57 1228.2 509.918 1218.16 517.531C1208.12 525.044 1200.66 534.291 1195.77 545.273C1200.92 554.572 1203.81 563.873 1204.44 573.176C1204.83 578.877 1204.19 583.543 1202.53 587.173C1200.96 590.796 1198.68 592.709 1195.68 592.912C1192.38 593.135 1189.65 591.51 1187.51 588.038C1185.47 584.558 1184.26 580.068 1183.89 574.566C1183.26 565.363 1184.87 555.758 1188.72 545.75C1182.54 536.119 1174.14 528.498 1163.51 522.886C1152.97 517.168 1140.15 514.819 1125.05 515.841C1110.74 516.809 1099.13 522.719 1090.22 533.572C1081.4 544.318 1075.24 557.949 1071.73 574.466C1068.22 590.882 1067.09 608.343 1068.34 626.849ZM1153.29 645.973C1153.9 654.976 1156.14 664.321 1160.01 674.008C1163.02 663.454 1164.17 653.076 1163.48 642.872C1163.21 638.771 1162.64 635.544 1161.77 633.19C1160.91 630.737 1159.87 629.551 1158.67 629.632C1156.67 629.767 1155.17 631.326 1154.16 634.308C1153.25 637.183 1152.96 641.072 1153.29 645.973ZM1189.84 575.671C1190.08 579.172 1190.67 581.946 1191.61 583.992C1192.54 585.939 1193.76 586.861 1195.26 586.76C1196.66 586.665 1197.7 585.59 1198.36 583.536C1199.02 581.381 1199.24 578.653 1199.01 575.352C1198.57 568.75 1196.56 561.449 1193.01 553.449C1190.45 561.661 1189.39 569.069 1189.84 575.671ZM1239.25 639.857C1239.54 644.159 1240.49 649.27 1242.1 655.19C1243.8 661.004 1246.04 666.731 1248.84 672.37C1251.91 662.817 1253.17 653.939 1252.61 645.736C1252.27 640.635 1251.19 636.638 1249.39 633.745C1247.68 630.746 1245.42 629.341 1242.62 629.53C1241.42 629.611 1240.49 630.629 1239.81 632.584C1239.24 634.432 1239.05 636.856 1239.25 639.857Z" fill="white"/>
</g>
<ellipse cx="1477" cy="543.5" rx="27" ry="19.5" transform="rotate(-19.2513 1477 543.5)" fill="#F3C1C2"/>
<ellipse cx="1495.14" cy="475.245" rx="11.1165" ry="8.02855" transform="rotate(-19.2513 1495.14 475.245)" fill="#F3C1C2"/>
<ellipse cx="27" cy="19.5" rx="27" ry="19.5" transform="matrix(-0.999176 -0.040582 -0.040582 0.999176 488.538 210.191)" fill="#F3C1C2"/>
<ellipse cx="11.1165" cy="8.02855" rx="11.1165" ry="8.02855" transform="matrix(-0.999176 -0.040582 -0.040582 0.999176 429.866 286.902)" fill="#F3C1C2"/>
<g filter="url(#filter2_d_57_786)">
<ellipse cx="1282.5" cy="545" rx="25.5" ry="15" transform="rotate(36.6196 1282.5 545)" fill="white"/>
</g>
<g filter="url(#filter3_d_57_786)">
<ellipse cx="1017.41" cy="556" rx="25.5" ry="15" transform="rotate(36.6196 1017.41 556)" fill="white"/>
</g>
<g filter="url(#filter4_d_57_786)">
<ellipse cx="755.414" cy="557.25" rx="25.5" ry="15" transform="rotate(36.6196 755.414 557.25)" fill="white"/>
</g>
<defs>
<filter id="filter0_d_57_786" x="432.803" y="148.898" width="947.142" height="432.382" filterUnits="userSpaceOnUse" color-interpolation-filters="sRGB">
<feFlood flood-opacity="0" result="BackgroundImageFix"/>
<feColorMatrix in="SourceAlpha" type="matrix" values="0 0 0 0 0 0 0 0 0 0 0 0 0 0 0 0 0 0 127 0" result="hardAlpha"/>
<feOffset dy="4"/>
<feGaussianBlur stdDeviation="2"/>
<feComposite in2="hardAlpha" operator="out"/>
<feColorMatrix type="matrix" values="0 0 0 0 0 0 0 0 0 0 0 0 0 0 0 0 0 0 0.25 0"/>
<feBlend mode="normal" in2="BackgroundImageFix" result="effect1_dropShadow_57_786"/>
<feBlend mode="normal" in="SourceGraphic" in2="effect1_dropShadow_57_786" result="shape"/>
</filter>
<filter id="filter1_d_57_786" x="605.386" y="484.858" width="745.531" height="288.207" filterUnits="userSpaceOnUse" color-interpolation-filters="sRGB">
<feFlood flood-opacity="0" result="BackgroundImageFix"/>
<feColorMatrix in="SourceAlpha" type="matrix" values="0 0 0 0 0 0 0 0 0 0 0 0 0 0 0 0 0 0 127 0" result="hardAlpha"/>
<feOffset dy="4"/>
<feGaussianBlur stdDeviation="2"/>
<feComposite in2="hardAlpha" operator="out"/>
<feColorMatrix type="matrix" values="0 0 0 0 0 0 0 0 0 0 0 0 0 0 0 0 0 0 0.25 0"/>
<feBlend mode="normal" in2="BackgroundImageFix" result="effect1_dropShadow_57_786"/>
<feBlend mode="normal" in="SourceGraphic" in2="effect1_dropShadow_57_786" result="shape"/>
</filter>
<filter id="filter2_d_57_786" x="1256.16" y="525.601" width="52.6846" height="46.7988" filterUnits="userSpaceOnUse" color-interpolation-filters="sRGB">
<feFlood flood-opacity="0" result="BackgroundImageFix"/>
<feColorMatrix in="SourceAlpha" type="matrix" values="0 0 0 0 0 0 0 0 0 0 0 0 0 0 0 0 0 0 127 0" result="hardAlpha"/>
<feOffset dy="4"/>
<feGaussianBlur stdDeviation="2"/>
<feComposite in2="hardAlpha" operator="out"/>
<feColorMatrix type="matrix" values="0 0 0 0 0 0 0 0 0 0 0 0 0 0 0 0 0 0 0.25 0"/>
<feBlend mode="normal" in2="BackgroundImageFix" result="effect1_dropShadow_57_786"/>
<feBlend mode="normal" in="SourceGraphic" in2="effect1_dropShadow_57_786" result="shape"/>
</filter>
<filter id="filter3_d_57_786" x="991.071" y="536.601" width="52.6846" height="46.7988" filterUnits="userSpaceOnUse" color-interpolation-filters="sRGB">
<feFlood flood-opacity="0" result="BackgroundImageFix"/>
<feColorMatrix in="SourceAlpha" type="matrix" values="0 0 0 0 0 0 0 0 0 0 0 0 0 0 0 0 0 0 127 0" result="hardAlpha"/>
<feOffset dy="4"/>
<feGaussianBlur stdDeviation="2"/>
<feComposite in2="hardAlpha" operator="out"/>
<feColorMatrix type="matrix" values="0 0 0 0 0 0 0 0 0 0 0 0 0 0 0 0 0 0 0.25 0"/>
<feBlend mode="normal" in2="BackgroundImageFix" result="effect1_dropShadow_57_786"/>
<feBlend mode="normal" in="SourceGraphic" in2="effect1_dropShadow_57_786" result="shape"/>
</filter>
<filter id="filter4_d_57_786" x="729.071" y="537.851" width="52.6846" height="46.7988" filterUnits="userSpaceOnUse" color-interpolation-filters="sRGB">
<feFlood flood-opacity="0" result="BackgroundImageFix"/>
<feColorMatrix in="SourceAlpha" type="matrix" values="0 0 0 0 0 0 0 0 0 0 0 0 0 0 0 0 0 0 127 0" result="hardAlpha"/>
<feOffset dy="4"/>
<feGaussianBlur stdDeviation="2"/>
<feComposite in2="hardAlpha" operator="out"/>
<feColorMatrix type="matrix" values="0 0 0 0 0 0 0 0 0 0 0 0 0 0 0 0 0 0 0.25 0"/>
<feBlend mode="normal" in2="BackgroundImageFix" result="effect1_dropShadow_57_786"/>
<feBlend mode="normal" in="SourceGraphic" in2="effect1_dropShadow_57_786" result="shape"/>
</filter>
</defs>
</svg>
