<svg width="803" height="245" viewBox="0 0 803 245" fill="none" xmlns="http://www.w3.org/2000/svg">
<path d="M689.272 190.341C699.248 190.328 708.028 187.116 715.611 180.705C723.194 174.295 729.426 166.381 734.307 156.963C733.422 152.447 732.977 147.898 732.97 143.318C732.963 138.048 733.584 133.718 734.835 130.328C736.022 126.875 737.682 125.148 739.815 125.145C741.384 125.143 742.64 125.925 743.583 127.492C744.464 128.997 744.906 131.098 744.91 133.796C744.918 140.196 742.796 148.042 738.542 157.333C740.624 165.801 744.085 172.917 748.924 178.683C753.701 184.386 760.01 187.232 767.853 187.221C772.998 187.214 777.481 184.824 781.301 180.05C785.059 175.276 787.905 168.904 789.839 160.933C791.711 152.962 792.64 144.24 792.627 134.766C792.609 122.154 790.93 110.047 787.589 98.4445C784.247 86.779 779.246 77.249 772.585 69.8546C765.861 62.3975 757.731 58.6755 748.194 58.6887C733.951 58.7083 722.478 64.622 713.773 76.4296C714.404 79.5031 714.723 83.2359 714.729 87.6278C714.739 94.7178 713.807 100.899 711.932 106.172C709.994 111.382 707.739 113.989 705.166 113.993C703.472 113.995 702.216 113.087 701.398 111.269C700.517 109.388 700.074 106.91 700.07 103.836C700.064 99.6947 700.842 95.1134 702.404 90.0918C703.965 85.0075 706.28 80.1418 709.348 75.4946C707.77 68.5323 704.907 62.8267 700.76 58.3777C696.55 53.866 690.775 51.6153 683.434 51.6254C676.783 51.6346 671.078 54.6227 666.317 60.5898C661.557 66.557 657.992 74.4988 655.621 84.4154C653.251 94.3321 652.073 104.937 652.089 116.231C652.106 128.842 653.566 140.793 656.468 152.082C659.307 163.372 663.523 172.589 669.117 179.734C674.711 186.816 681.429 190.352 689.272 190.341ZM705.161 110.228C706.541 110.227 707.856 108.091 709.105 103.823C710.291 99.5551 710.88 94.5976 710.873 88.9508C710.87 87.2567 710.741 84.8727 710.486 81.7986C708.17 85.9428 706.419 90.1804 705.233 94.5113C703.984 98.7795 703.362 102.388 703.366 105.337C703.37 108.537 703.969 110.167 705.161 110.228ZM737.215 150.465C740.154 142.995 741.62 137.126 741.614 132.86C741.611 130.287 741.013 129.002 739.821 129.003C738.817 129.005 738.034 130.135 737.473 132.395C736.911 134.654 736.633 137.572 736.638 141.148C736.642 143.972 736.834 147.077 737.215 150.465Z" fill="white"/>
<path d="M565.341 184.751C556.494 184.763 548.867 182.075 542.46 176.688C536.116 171.301 531.306 164.187 528.031 155.344C524.756 146.439 523.112 136.873 523.098 126.646C523.081 114.725 525.293 103.366 529.733 92.568C534.235 81.7073 540.999 72.8826 550.025 66.0939C559.113 59.2424 570.12 55.8078 583.045 55.7899C596.66 55.7711 608.176 58.0767 617.594 62.7067C627.012 67.2739 633.953 73.2562 638.418 80.6537C642.946 88.0511 645.215 95.8594 645.226 104.079C645.236 111.169 643.645 117.759 640.454 123.849C637.262 129.94 632.626 134.871 626.546 138.644C620.527 142.354 613.471 144.215 605.378 144.226C602.931 144.23 600.358 143.794 597.658 142.919C597.146 135.328 595.6 128.836 593.02 123.444C590.44 118.052 587.425 115.358 583.974 115.363C582.029 115.365 580.524 116.026 579.459 117.345C578.457 118.602 577.957 120.328 577.96 122.524C577.966 126.477 579.446 130.741 582.401 135.317C585.357 139.831 589.22 143.245 593.992 145.56C594.257 156.1 592.074 165.263 587.442 173.05C582.872 180.836 575.505 184.737 565.341 184.751ZM593.797 140.948C590.218 138.757 587.327 135.812 585.126 132.113C582.925 128.415 581.823 125.216 581.819 122.518C581.816 120.322 582.536 119.223 583.979 119.221C586.301 119.218 588.374 121.349 590.2 125.613C592.088 129.814 593.287 134.926 593.797 140.948Z" fill="white"/>
<path d="M449.238 185.273C438.321 185.288 429.096 183.92 421.563 181.17C414.093 178.419 408.504 174.882 404.796 170.558C401.151 166.171 399.325 161.593 399.319 156.825C399.313 152.998 400.5 149.388 402.88 145.997C405.259 142.543 408.675 139.777 413.127 137.701C419.029 141.018 425.4 142.703 432.239 142.757C438.011 142.749 442.528 142.115 445.789 140.856C449.112 139.533 450.773 138.025 450.771 136.331C450.768 134.512 449.135 133.008 445.871 131.82C442.669 130.57 438.119 129.949 432.221 129.957C425.132 129.967 418.89 131.073 413.497 133.277C407.343 129.144 402.566 123.347 399.168 115.886C395.77 108.361 394.065 100.489 394.053 92.27C394.039 81.6038 396.787 72.6591 402.298 65.4361C407.81 58.1504 415.836 54.5002 426.376 54.4857C431.898 54.4781 436.699 55.6322 440.781 57.948C444.925 60.201 448.348 63.3334 451.052 67.3452C448.735 70.9248 446.952 74.7232 445.703 78.7404C444.517 82.6948 443.926 86.4602 443.931 90.0365C443.936 93.9893 444.693 97.2195 446.203 99.7271C447.775 102.172 450.035 103.392 452.984 103.388C455.807 103.384 458.033 102.032 459.66 99.3321C461.288 96.6319 462.099 93.0858 462.093 88.6939C462.088 85.243 461.55 81.6674 460.478 77.9671C459.469 74.2039 457.927 70.6611 455.852 67.3386C458.795 63.1935 462.429 59.8632 466.755 57.3475C471.144 54.8317 476.099 53.57 481.62 53.5624C488.71 53.5526 494.862 56.0225 500.077 60.9719C505.291 65.9214 509.253 72.5039 511.962 80.7195C514.671 88.935 516.033 97.874 516.046 107.536C516.064 120.399 513.634 132.762 508.756 144.627C503.879 156.492 496.394 166.228 486.303 173.834C476.275 181.439 463.92 185.252 449.238 185.273ZM452.979 99.5296C451.347 99.5318 450.029 98.718 449.022 97.0881C448.079 95.3953 447.605 93.2 447.602 90.502C447.598 87.5531 448.064 84.384 449 80.9946C449.999 77.5424 451.438 74.215 453.316 71.0126C456.649 76.9058 458.352 82.9895 458.423 89.2636C458.427 92.338 457.929 94.817 456.928 96.7007C455.989 98.5843 454.673 99.5272 452.979 99.5296ZM432.234 138.898C427.277 138.905 422.539 137.876 418.018 135.812C422.785 134.55 427.521 133.885 432.227 133.816C436.995 133.809 440.635 134.055 443.145 134.554C445.655 134.989 446.911 135.584 446.912 136.337C446.913 136.964 445.627 137.562 443.056 138.13C440.484 138.635 436.877 138.891 432.234 138.898Z" fill="white"/>
<path d="M330.974 55.1623C320.433 55.1768 310.714 59.9273 301.818 69.4137C292.984 78.9628 285.974 90.8308 280.786 105.018C275.66 119.268 273.106 132.792 273.124 145.592C273.14 156.76 275.285 165.823 279.561 172.782C283.9 179.74 290.493 183.213 299.34 183.201C305.363 183.193 310.661 180.644 315.234 175.556C319.808 170.467 323.625 163.623 326.688 155.023C323.598 143.985 322.044 131.721 322.026 118.231C322.011 107.69 322.908 98.7168 324.718 91.3107C326.59 83.9045 328.875 80.1995 331.573 80.1958C333.894 80.1926 335.717 82.637 337.042 87.5291C338.429 92.4211 339.128 98.7885 339.138 106.631C339.149 114.349 338.47 122.538 337.102 131.198C335.796 139.858 333.799 147.861 331.112 155.205C337.037 175.087 346.744 185.018 360.234 184.999C369.206 184.987 375.915 181.37 380.359 174.148C384.804 166.99 387.019 157.638 387.003 146.093C386.985 133.105 384.425 119.462 379.323 105.164C374.221 90.9287 367.397 79.017 358.851 69.4291C350.305 59.904 341.012 55.1484 330.974 55.1623ZM331.578 84.0544C330.072 84.0565 328.727 87.07 327.544 93.095C326.423 99.1825 325.868 106.461 325.88 114.932C325.896 126.476 326.977 137.329 329.125 147.491C331.185 140.272 332.743 132.616 333.799 124.52C334.917 116.425 335.471 108.989 335.462 102.213C335.454 96.8172 335.103 92.4257 334.408 89.0386C333.714 85.7142 332.77 84.0528 331.578 84.0544Z" fill="white"/>
<path d="M209.617 189.815C194.496 189.836 181.535 186.717 170.735 180.457C159.935 174.135 151.798 165.864 146.325 155.645C140.852 145.363 138.108 134.418 138.092 122.811C138.076 111.266 140.759 100.439 146.141 90.3301C151.523 80.1584 159.448 71.9281 169.918 65.6394C180.45 59.2879 193.182 56.1018 208.115 56.0812C219.534 56.0654 229.701 57.9023 238.615 61.5918C247.593 65.2185 254.532 69.946 259.434 75.7743C264.336 81.6026 266.791 87.6539 266.8 93.9281C266.808 99.4495 264.713 104.629 260.516 109.466C256.319 114.303 250.05 118.201 241.709 121.162C230.787 117.475 217.483 115.642 201.797 115.664C196.903 115.671 193.077 116.429 190.319 117.939C187.623 119.385 186.276 121.081 186.279 123.026C186.281 125.097 187.758 126.852 190.709 128.291C193.66 129.73 197.771 130.446 203.041 130.438C218.099 130.417 230.928 128.674 241.527 125.209C249.624 128.147 255.653 131.966 259.612 136.666C263.634 141.366 265.649 146.477 265.657 151.998C265.665 158.147 263.289 164.142 258.529 169.984C253.831 175.825 247.156 180.603 238.502 184.317C229.912 187.968 220.283 189.8 209.617 189.815ZM203.036 126.58C199.02 126.585 195.883 126.213 193.623 125.463C191.426 124.713 190.327 123.899 190.326 123.021C190.324 122.142 191.327 121.357 193.334 120.664C195.403 119.908 198.226 119.528 201.803 119.523C214.414 119.505 225.427 120.714 234.842 123.148C225.308 125.482 214.706 126.626 203.036 126.58Z" fill="white"/>
<path d="M64.2383 185.75C53.3211 185.765 44.096 184.397 36.5631 181.647C29.093 178.896 23.504 175.359 19.7962 171.035C16.1511 166.648 14.3252 162.07 14.3186 157.302C14.3133 153.475 15.5005 149.865 17.88 146.474C20.2595 143.02 23.6751 140.254 28.127 138.178C34.0294 141.495 40.4001 143.18 47.2391 143.234C53.0114 143.226 57.528 142.592 60.7889 141.333C64.1124 140.01 65.773 138.502 65.7707 136.808C65.7682 134.989 64.1348 133.485 60.8705 132.298C57.6689 131.047 53.1192 130.426 47.2214 130.434C40.1315 130.444 33.8902 131.55 28.4973 133.754C22.3429 129.621 17.5664 123.824 14.168 116.363C10.7695 108.838 9.0646 100.966 9.05326 92.747C9.03854 82.0808 11.7869 73.1362 17.2983 65.9132C22.8095 58.6274 30.8356 54.9773 41.3763 54.9627C46.8977 54.9551 51.6991 56.1092 55.7805 58.4251C59.9247 60.6781 63.3485 63.8105 66.0519 67.8223C63.7354 71.4018 61.9525 75.2002 60.7032 79.2175C59.5165 83.1719 58.9256 86.9373 58.9306 90.5136C58.936 94.4664 59.6934 97.6966 61.2027 100.204C62.7746 102.649 65.0351 103.869 67.984 103.865C70.8074 103.861 73.0329 102.509 74.6604 99.8092C76.288 97.109 77.0988 93.5629 77.0927 89.1709C77.088 85.7201 76.5497 82.1445 75.478 78.4442C74.4689 74.681 72.9268 71.1382 70.8517 67.8157C73.7949 63.6706 77.4294 60.3402 81.7552 57.8245C86.1437 55.3088 91.0986 54.0471 96.6199 54.0395C103.71 54.0297 109.862 56.4995 115.077 61.449C120.291 66.3985 124.253 72.981 126.962 81.1965C129.671 89.4121 131.033 98.351 131.046 108.013C131.064 120.876 128.634 133.239 123.756 145.104C118.879 156.969 111.394 166.705 101.303 174.311C91.2751 181.916 78.9201 185.729 64.2383 185.75ZM67.9786 100.007C66.3473 100.009 65.0286 99.195 64.0225 97.5651C63.079 95.8724 62.6054 93.677 62.6017 90.9791C62.5976 88.0302 63.0638 84.861 64.0003 81.4716C64.9994 78.0194 66.4379 74.6921 68.3157 71.4896C71.6492 77.3828 73.3517 83.4665 73.4231 89.7407C73.4273 92.8151 72.9288 95.2941 71.9275 97.1777C70.989 99.0613 69.6727 100.004 67.9786 100.007ZM47.2338 139.375C42.2771 139.382 37.5386 138.353 33.0183 136.289C37.785 135.027 42.5212 134.362 47.2268 134.293C51.9952 134.286 55.6346 134.532 58.145 135.031C60.6553 135.466 61.911 136.061 61.912 136.814C61.9129 137.441 60.6275 138.039 58.0558 138.607C55.4841 139.113 51.8767 139.368 47.2338 139.375Z" fill="white"/>
</svg>
