<svg width="897" height="177" viewBox="0 0 897 177" fill="none" xmlns="http://www.w3.org/2000/svg">
<g filter="url(#filter0_d_57_765)">
<path fill-rule="evenodd" clip-rule="evenodd" d="M696.689 26.9419C703.908 20.8557 712.506 17.8127 722.484 17.8127C733.949 17.8127 742.264 22.2004 747.43 30.9757C752.667 39.751 755.144 50.0833 754.861 61.9724C749.483 64.5909 745.13 68.4478 741.804 73.5432C738.478 78.7093 736.815 83.5216 736.815 87.98C736.815 90.4569 737.381 92.403 738.514 93.8184C739.717 95.3046 741.415 96.0476 743.609 96.0476C747.501 96.0476 750.898 93.0046 753.8 86.9185C756.701 80.8323 758.435 73.5078 759.001 64.9447C762.044 63.954 764.946 63.4586 767.706 63.4586C776.835 63.4586 784.796 65.5463 791.59 69.7216C796.842 72.9703 801.142 76.9854 804.488 81.7669C805.019 72.6389 806.346 63.9885 808.469 55.8156C811.37 44.8464 815.722 36.0003 821.525 29.2773C827.328 22.4835 834.441 19.0866 842.862 19.0866C850.364 19.0866 856.839 22.6604 862.288 29.808C867.737 36.8849 871.877 46.191 874.708 57.7263C877.539 69.2617 878.954 81.3985 878.954 94.1369C878.954 106.734 877.574 118.481 874.814 129.38C872.054 140.207 867.879 148.983 862.288 155.706C856.768 162.358 849.939 165.684 841.801 165.684C833.945 165.684 827.187 162.181 821.525 155.175C816.015 148.2 811.776 139.093 808.81 127.855C807.771 130.311 806.525 132.73 805.072 135.112C800.047 143.463 792.227 150.221 781.612 155.387C770.996 160.624 758.01 163.243 742.654 163.243C728.075 163.243 715.655 159.386 705.394 151.672C695.203 144.029 687.56 134.086 682.465 121.843C677.44 109.671 674.928 96.8615 674.928 83.4154C674.928 71.8801 676.768 61.0878 680.448 51.0387C684.128 41.0603 689.542 33.028 696.689 26.9419ZM771.633 89.1477C770.784 89.1477 770.183 89.36 769.829 89.7846C769.546 90.2092 769.51 90.74 769.723 91.3769C770.006 92.0846 770.43 92.7215 770.996 93.2877C773.332 95.1276 775.03 97.5692 776.092 100.612C777.153 103.655 777.684 106.981 777.684 110.591C777.684 113.634 777.224 116.677 776.304 119.72C775.455 122.763 774.393 125.381 773.12 127.575C772.412 128.637 772.058 129.451 772.058 130.017C772.058 130.441 772.27 130.866 772.695 131.291C773.12 131.715 773.686 131.857 774.393 131.715C775.172 131.574 775.844 131.149 776.41 130.441C779.878 125.558 781.612 119.26 781.612 111.546C781.612 107.3 780.975 103.301 779.701 99.5507C778.498 95.8 776.658 92.6861 774.181 90.2092C773.473 89.5015 772.624 89.1477 771.633 89.1477ZM744.883 77.1524C747.36 72.977 750.615 69.6509 754.649 67.174C754.083 73.9678 752.738 79.7354 750.615 84.4769C748.563 89.2892 746.227 91.6954 743.609 91.6954C741.981 91.6954 741.167 90.4569 741.167 87.98C741.167 84.9369 742.406 81.3277 744.883 77.1524Z" fill="#F0576A"/>
<path d="M579.542 163.243C569.564 163.243 560.965 160.2 553.747 154.114C546.599 148.028 541.185 139.995 537.505 130.017C533.825 119.968 531.985 109.176 531.985 97.6403C531.985 84.1942 534.498 71.3851 539.522 59.2128C544.618 46.9698 552.261 37.0268 562.451 29.3838C572.713 21.67 585.133 17.813 599.711 17.813C615.068 17.813 628.054 20.4315 638.669 25.6684C649.285 30.8345 657.105 37.5929 662.129 45.9437C667.225 54.2944 669.772 63.1051 669.772 72.3758C669.772 80.3727 667.968 87.8034 664.358 94.668C660.749 101.533 655.512 107.088 648.648 111.334C641.854 115.509 633.892 117.597 624.763 117.597C622.003 117.597 619.102 117.102 616.059 116.111C615.493 107.548 613.759 100.223 610.857 94.1373C607.956 88.0511 604.559 85.0081 600.667 85.0081C598.473 85.0081 596.774 85.7511 595.571 87.2373C594.439 88.6527 593.873 90.5988 593.873 93.0757C593.873 97.5342 595.536 102.346 598.862 107.513C602.188 112.608 606.54 116.465 611.919 119.083C612.202 130.972 609.725 141.305 604.488 150.08C599.322 158.855 591.007 163.243 579.542 163.243ZM626.886 91.2711C627.24 91.6957 627.842 91.908 628.691 91.908C629.682 91.908 630.531 91.5542 631.239 90.8465C633.716 88.3696 635.556 85.2558 636.759 81.505C638.032 77.7543 638.669 73.7558 638.669 69.5097C638.669 61.7959 636.936 55.4975 633.468 50.6144C632.902 49.9067 632.229 49.4821 631.451 49.3406C630.743 49.199 630.177 49.3406 629.753 49.7652C629.328 50.1898 629.116 50.6144 629.116 51.039C629.116 51.6052 629.469 52.419 630.177 53.4805C631.451 55.6744 632.513 58.2928 633.362 61.3359C634.282 64.379 634.742 67.422 634.742 70.4651C634.742 74.0743 634.211 77.4004 633.149 80.4435C632.088 83.4865 630.389 85.9281 628.054 87.7681C627.488 88.3342 627.063 88.9711 626.78 89.6788C626.568 90.3157 626.603 90.8465 626.886 91.2711ZM611.706 113.882C607.673 111.405 604.417 108.079 601.94 103.903C599.463 99.728 598.225 96.1188 598.225 93.0757C598.225 90.5988 599.039 89.3604 600.667 89.3604C603.285 89.3604 605.62 91.7665 607.673 96.5788C609.796 101.32 611.14 107.088 611.706 113.882Z" fill="#F0576A"/>
<path d="M526.829 134.582C526.829 140.809 523.715 146.435 517.488 151.46C511.26 156.414 503.086 160.306 492.966 163.137C482.846 165.968 472.266 167.383 461.226 167.383C449.62 167.383 438.863 165.72 428.956 162.394C419.048 159.068 411.051 153.795 404.965 146.577C398.879 139.288 395.836 130.123 395.836 119.083C395.836 111.723 397.57 105.46 401.037 100.294C404.505 95.128 408.61 91.3419 413.351 88.9358C416.96 90.988 420.18 91.9788 423.011 91.908C426.196 91.908 427.788 90.4573 427.788 87.5558C427.788 85.7865 427.151 84.4773 425.877 83.6281C424.674 82.7789 423.047 82.3542 420.994 82.3542C418.659 82.3542 416.288 82.885 413.882 83.9465C409.211 80.6204 405.248 76.3389 401.993 71.102C398.737 65.8651 397.11 59.9205 397.11 53.2682C397.11 45.1298 400.401 38.3006 406.982 32.7807C413.564 27.2607 422.091 23.1561 432.565 20.4669C443.11 17.7069 454.256 16.3269 466.003 16.3269C476.619 16.3269 486.562 17.4238 495.832 19.6177C505.103 21.7407 512.534 24.9253 518.125 29.1715C523.786 33.3468 526.617 38.2652 526.617 43.9268C526.617 52.3483 523.078 59.0713 516.001 64.0959C509.774 60.4867 503.192 58.6821 496.257 58.6821C491.586 58.6821 487.729 59.6021 484.686 61.4421C481.643 63.2113 480.122 65.6882 480.122 68.8728C480.122 70.9251 481.431 72.5881 484.049 73.862C486.668 75.0651 489.994 75.6666 494.028 75.6666C497.495 75.6666 501.175 75.1712 505.068 74.1804C509.031 73.1189 512.675 71.562 516.001 69.5097C523.078 74.6051 526.617 81.3635 526.617 89.785C526.617 98.0649 522.583 104.363 514.515 108.68C507.297 105.071 499.548 103.266 491.268 103.266C486.951 103.266 483.342 103.833 480.44 104.965C477.609 106.026 476.194 107.477 476.194 109.317C476.194 112.077 477.892 114.271 481.289 115.899C484.757 117.456 489.074 118.234 494.24 118.234C501.6 118.234 508.288 116.783 514.303 113.882C522.724 118.977 526.9 125.877 526.829 134.582ZM484.474 68.8728C484.474 67.1743 485.465 65.8297 487.446 64.839C489.499 63.7774 492.223 63.2467 495.62 63.2467C501.282 63.2467 506.554 64.4851 511.437 66.962C505.351 70.0051 498.982 71.5266 492.329 71.5266C489.994 71.5266 488.083 71.2789 486.597 70.7835C485.182 70.2174 484.474 69.5805 484.474 68.8728ZM423.436 87.5558C423.365 87.8388 423.047 87.9804 422.48 87.9804C421.348 87.9804 420.074 87.6265 418.659 86.9188C419.367 86.6358 420.287 86.4942 421.419 86.4942C422.693 86.4942 423.365 86.8481 423.436 87.5558ZM508.783 111.334C503.617 113.033 498.415 113.882 493.178 113.882C489.569 113.882 486.562 113.493 484.155 112.714C481.749 111.936 480.546 110.803 480.546 109.317C480.546 108.751 481.254 108.256 482.669 107.831C484.155 107.406 486.137 107.194 488.614 107.194C495.832 107.194 502.555 108.574 508.783 111.334Z" fill="#F0576A"/>
<path fill-rule="evenodd" clip-rule="evenodd" d="M272.858 165.684C265.002 165.684 258.244 162.181 252.582 155.175C246.992 148.098 242.71 138.827 239.738 127.363C239.623 126.921 239.511 126.477 239.401 126.033C231.223 130.254 221.657 132.364 210.701 132.364C198.526 132.364 188.201 129.994 179.725 125.254C171.248 120.463 164.904 114.219 160.692 106.523C156.479 98.776 154.373 90.4682 154.373 81.5998C154.373 72.5275 156.531 63.9139 160.846 55.759C165.161 47.6041 171.454 41.0038 179.725 35.9579C187.995 30.9121 197.859 28.3892 209.314 28.3892C221.9 28.3892 232.611 30.7847 241.447 35.5757C243.13 36.4883 244.732 37.4555 246.253 38.4772C248.125 35.0633 250.235 31.9966 252.582 29.2773C258.386 22.4835 265.498 19.0866 273.919 19.0866C281.421 19.0866 287.896 22.6604 293.345 29.8081C295.34 32.3984 297.159 35.2874 298.803 38.4751C300.323 37.4541 301.924 36.4876 303.606 35.5757C312.441 30.7847 323.152 28.3892 335.738 28.3892C347.194 28.3892 357.057 30.9121 365.328 35.9579C373.599 41.0038 379.892 47.6041 384.207 55.759C388.522 63.9139 390.679 72.5275 390.679 81.5998C390.679 90.4682 388.573 98.776 384.361 106.523C380.148 114.219 373.804 120.463 365.328 125.254C356.852 129.994 346.526 132.364 334.351 132.364C323.801 132.364 314.539 130.407 306.566 126.493C306.345 127.462 306.113 128.424 305.871 129.38C303.111 140.207 298.936 148.983 293.345 155.706C287.825 162.358 280.996 165.684 272.858 165.684ZM214.169 94.7496C213.963 95.0554 213.552 95.2083 212.936 95.2083C212.217 95.2083 211.575 94.9534 211.01 94.4438C209.212 92.6599 207.876 90.4173 207.003 87.716C206.129 85.0147 205.693 82.135 205.693 79.0769C205.693 73.5214 206.951 68.9852 209.468 65.4684C209.879 64.9587 210.342 64.6529 210.855 64.551C211.369 64.4491 211.806 64.551 212.165 64.8568C212.474 65.1626 212.628 65.4684 212.628 65.7742C212.628 66.182 212.345 66.7681 211.78 67.5326C210.855 69.1126 210.085 70.9985 209.468 73.1901C208.801 75.3307 208.467 77.4969 208.467 79.6885C208.467 82.2879 208.878 84.7089 209.7 86.9514C210.47 89.1431 211.703 90.9015 213.398 92.2266C213.809 92.6344 214.092 93.0931 214.246 93.6028C214.4 94.0615 214.374 94.4438 214.169 94.7496ZM332.117 95.2083C331.5 95.2083 331.089 95.0554 330.884 94.7496C330.678 94.4438 330.652 94.0615 330.807 93.6028C330.961 93.0931 331.243 92.6344 331.654 92.2266C333.349 90.9015 334.582 89.1431 335.353 86.9514C336.175 84.7089 336.586 82.2879 336.586 79.6885C336.586 77.4969 336.252 75.3307 335.584 73.1901C334.968 70.9985 334.197 69.1126 333.272 67.5326C332.707 66.7681 332.425 66.182 332.425 65.7742C332.425 65.4684 332.579 65.1626 332.887 64.8568C333.247 64.551 333.683 64.4491 334.197 64.551C334.711 64.6529 335.173 64.9587 335.584 65.4684C338.101 68.9852 339.36 73.5214 339.36 79.0769C339.36 82.135 338.923 85.0147 338.05 87.716C337.177 90.4173 335.841 92.6599 334.043 94.4438C333.478 94.9534 332.836 95.2083 332.117 95.2083Z" fill="#F0576A"/>
<path d="M84.5703 168.444C67.515 168.444 52.9013 164.906 40.729 157.829C28.5568 150.681 19.3922 141.34 13.2353 129.804C7.07844 118.198 4 105.849 4 92.7569C4 79.7355 7.04306 67.5278 13.1292 56.134C19.2153 44.6695 28.1676 35.3988 39.986 28.3219C51.8751 21.1742 66.2412 17.6004 83.0842 17.6004C95.9641 17.6004 107.429 19.6881 117.478 23.8634C127.598 27.968 135.418 33.3111 140.938 39.8926C146.458 46.4741 149.218 53.3033 149.218 60.3802C149.218 66.6078 146.847 72.4463 142.105 77.8955C137.364 83.3447 130.287 87.7323 120.875 91.0585C108.561 86.8831 93.558 84.7954 75.8658 84.7954C70.3458 84.7954 66.0289 85.6447 62.9151 87.3431C59.872 88.9708 58.3505 90.8816 58.3505 93.0754C58.3505 95.4108 60.0135 97.3923 63.3397 99.02C66.6658 100.648 71.3012 101.461 77.2458 101.461C94.2303 101.461 108.703 99.5154 120.662 95.6231C129.792 98.9492 136.585 103.266 141.044 108.574C145.573 113.881 147.838 119.649 147.838 125.877C147.838 132.812 145.148 139.571 139.77 146.152C134.462 152.734 126.925 158.112 117.159 162.287C107.464 166.392 96.601 168.444 84.5703 168.444ZM77.2458 97.1092C72.7166 97.1092 69.1781 96.6846 66.6304 95.8354C64.1535 94.9861 62.9151 94.0662 62.9151 93.0754C62.9151 92.0846 64.0474 91.2 66.312 90.4216C68.6473 89.5723 71.8319 89.1477 75.8658 89.1477C90.0903 89.1477 102.51 90.5277 113.126 93.2877C102.369 95.9061 90.4088 97.18 77.2458 97.1092Z" fill="#F0576A"/>
</g>
<path fill-rule="evenodd" clip-rule="evenodd" d="M702.704 21.786C709.922 15.6999 718.521 12.6569 728.499 12.6569C739.964 12.6569 748.279 17.0445 753.445 25.8199C758.682 34.5952 761.159 44.9275 760.876 56.8166C755.497 59.4351 751.145 63.292 747.819 68.3873C744.493 73.5535 742.83 78.3657 742.83 82.8242C742.83 85.3011 743.396 87.2472 744.528 88.6626C745.731 90.1488 747.43 90.8918 749.624 90.8918C753.516 90.8918 756.913 87.8488 759.814 81.7626C762.716 75.6765 764.45 68.3519 765.016 59.7889C768.059 58.7982 770.96 58.3028 773.72 58.3028C782.85 58.3028 790.811 60.3904 797.605 64.5658C802.857 67.8145 807.156 71.8295 810.503 76.6109C811.033 67.483 812.36 58.8326 814.483 50.6598C817.385 39.6906 821.737 30.8445 827.54 24.1214C833.343 17.3276 840.455 13.9307 848.877 13.9307C856.378 13.9307 862.854 17.5046 868.303 24.6522C873.752 31.7291 877.892 41.0352 880.723 52.5705C883.553 64.1058 884.969 76.2427 884.969 88.9811C884.969 101.578 883.589 113.326 880.829 124.224C878.069 135.052 873.894 143.827 868.303 150.55C862.783 157.202 855.954 160.528 847.815 160.528C839.96 160.528 833.201 157.025 827.54 150.019C822.029 143.044 817.791 133.937 814.824 122.699C813.785 125.156 812.539 127.575 811.086 129.956C806.062 138.307 798.242 145.065 787.626 150.232C777.011 155.468 764.025 158.087 748.668 158.087C734.09 158.087 721.67 154.23 711.408 146.516C701.218 138.873 693.575 128.93 688.479 116.687C683.455 104.515 680.942 91.7057 680.942 78.2596C680.942 66.7243 682.782 55.932 686.462 45.8828C690.142 35.9044 695.556 27.8722 702.704 21.786ZM777.648 83.9919C776.799 83.9919 776.197 84.2042 775.843 84.6288C775.56 85.0534 775.525 85.5842 775.737 86.2211C776.02 86.9288 776.445 87.5657 777.011 88.1318C779.346 89.9718 781.045 92.4134 782.106 95.4564C783.168 98.4995 783.699 101.826 783.699 105.435C783.699 108.478 783.239 111.521 782.319 114.564C781.47 117.607 780.408 120.226 779.134 122.419C778.426 123.481 778.073 124.295 778.073 124.861C778.073 125.285 778.285 125.71 778.71 126.135C779.134 126.559 779.7 126.701 780.408 126.559C781.186 126.418 781.859 125.993 782.425 125.285C785.893 120.402 787.626 114.104 787.626 106.39C787.626 102.144 786.99 98.1456 785.716 94.3949C784.513 90.6441 782.673 87.5303 780.196 85.0534C779.488 84.3457 778.639 83.9919 777.648 83.9919ZM750.897 71.9965C753.374 67.8212 756.63 64.495 760.663 62.0181C760.097 68.8119 758.753 74.5796 756.63 79.3211C754.577 84.1334 752.242 86.5395 749.624 86.5395C747.996 86.5395 747.182 85.3011 747.182 82.8242C747.182 79.7811 748.42 76.1719 750.897 71.9965Z" fill="#FEC994"/>
<path d="M585.557 158.087C575.578 158.087 566.98 155.044 559.761 148.958C552.614 142.872 547.2 134.84 543.52 124.861C539.84 114.812 538 104.02 538 92.4846C538 79.0385 540.512 66.2293 545.537 54.0571C550.632 41.8141 558.275 31.871 568.466 24.228C578.727 16.5142 591.147 12.6573 605.726 12.6573C621.083 12.6573 634.069 15.2757 644.684 20.5126C655.299 25.6788 663.119 32.4372 668.144 40.7879C673.239 49.1386 675.787 57.9494 675.787 67.2201C675.787 75.217 673.982 82.6477 670.373 89.5123C666.764 96.3768 661.527 101.932 654.662 106.178C647.869 110.354 639.907 112.441 630.778 112.441C628.018 112.441 625.116 111.946 622.073 110.955C621.507 102.392 619.773 95.0676 616.872 88.9815C613.97 82.8954 610.573 79.8523 606.681 79.8523C604.487 79.8523 602.789 80.5954 601.586 82.0815C600.454 83.4969 599.887 85.4431 599.887 87.92C599.887 92.3784 601.55 97.1907 604.877 102.357C608.203 107.452 612.555 111.309 617.933 113.928C618.216 125.817 615.74 136.149 610.503 144.924C605.337 153.7 597.021 158.087 585.557 158.087ZM632.901 86.1154C633.255 86.54 633.856 86.7523 634.706 86.7523C635.696 86.7523 636.546 86.3984 637.253 85.6907C639.73 83.2138 641.57 80.1 642.773 76.3493C644.047 72.5985 644.684 68.6001 644.684 64.3539C644.684 56.6401 642.95 50.3417 639.483 45.4586C638.916 44.751 638.244 44.3263 637.466 44.1848C636.758 44.0433 636.192 44.1848 635.767 44.6094C635.343 45.034 635.13 45.4586 635.13 45.8833C635.13 46.4494 635.484 47.2633 636.192 48.3248C637.466 50.5186 638.527 53.1371 639.376 56.1801C640.296 59.2232 640.756 62.2663 640.756 65.3093C640.756 68.9185 640.226 72.2447 639.164 75.2877C638.103 78.3308 636.404 80.7723 634.069 82.6123C633.503 83.1784 633.078 83.8154 632.795 84.5231C632.583 85.16 632.618 85.6907 632.901 86.1154ZM617.721 108.726C613.687 106.249 610.432 102.923 607.955 98.7476C605.478 94.5722 604.24 90.963 604.24 87.92C604.24 85.4431 605.053 84.2046 606.681 84.2046C609.3 84.2046 611.635 86.6107 613.687 91.423C615.81 96.1645 617.155 101.932 617.721 108.726Z" fill="#FEC994"/>
<path d="M532.844 129.426C532.844 135.654 529.73 141.28 523.502 146.304C517.275 151.258 509.101 155.15 498.981 157.981C488.861 160.812 478.281 162.227 467.241 162.227C455.635 162.227 444.878 160.564 434.97 157.238C425.063 153.912 417.066 148.64 410.98 141.421C404.894 134.132 401.851 124.967 401.851 113.928C401.851 106.568 403.584 100.305 407.052 95.1384C410.52 89.9723 414.624 86.1861 419.366 83.78C422.975 85.8323 426.195 86.8231 429.026 86.7523C432.21 86.7523 433.803 85.3015 433.803 82.4C433.803 80.6308 433.166 79.3215 431.892 78.4723C430.689 77.6231 429.061 77.1985 427.009 77.1985C424.674 77.1985 422.303 77.7292 419.897 78.7908C415.226 75.4646 411.263 71.1831 408.007 65.9462C404.752 60.7093 403.124 54.7648 403.124 48.1125C403.124 39.9741 406.415 33.1449 412.997 27.6249C419.578 22.1049 428.106 18.0003 438.58 15.3111C449.124 12.5511 460.27 11.1711 472.018 11.1711C482.633 11.1711 492.576 12.2681 501.847 14.4619C511.118 16.585 518.548 19.7696 524.139 24.0157C529.801 28.1911 532.631 33.1095 532.631 38.771C532.631 47.1925 529.093 53.9155 522.016 58.9401C515.788 55.3309 509.207 53.5263 502.272 53.5263C497.601 53.5263 493.744 54.4463 490.701 56.2863C487.658 58.0555 486.136 60.5324 486.136 63.717C486.136 65.7693 487.446 67.4324 490.064 68.7062C492.682 69.9093 496.009 70.5108 500.042 70.5108C503.51 70.5108 507.19 70.0154 511.082 69.0247C515.045 67.9632 518.69 66.4062 522.016 64.3539C529.093 69.4493 532.631 76.2077 532.631 84.6292C532.631 92.9092 528.598 99.2076 520.53 103.524C513.312 99.9153 505.562 98.1107 497.282 98.1107C492.965 98.1107 489.356 98.6768 486.455 99.8091C483.624 100.871 482.209 102.321 482.209 104.161C482.209 106.921 483.907 109.115 487.304 110.743C490.772 112.3 495.089 113.078 500.255 113.078C507.615 113.078 514.302 111.628 520.318 108.726C528.739 113.821 532.914 120.721 532.844 129.426ZM490.489 63.717C490.489 62.0186 491.479 60.674 493.461 59.6832C495.513 58.6217 498.238 58.0909 501.635 58.0909C507.296 58.0909 512.568 59.3293 517.451 61.8063C511.365 64.8493 504.996 66.3708 498.344 66.3708C496.009 66.3708 494.098 66.1232 492.612 65.6278C491.196 65.0616 490.489 64.4247 490.489 63.717ZM429.45 82.4C429.38 82.6831 429.061 82.8246 428.495 82.8246C427.363 82.8246 426.089 82.4708 424.674 81.7631C425.381 81.48 426.301 81.3385 427.434 81.3385C428.707 81.3385 429.38 81.6923 429.45 82.4ZM514.798 106.178C509.632 107.877 504.43 108.726 499.193 108.726C495.584 108.726 492.576 108.337 490.17 107.558C487.764 106.78 486.561 105.648 486.561 104.161C486.561 103.595 487.269 103.1 488.684 102.675C490.17 102.251 492.152 102.038 494.629 102.038C501.847 102.038 508.57 103.418 514.798 106.178Z" fill="#FEC994"/>
<path fill-rule="evenodd" clip-rule="evenodd" d="M278.872 160.528C271.017 160.528 264.259 157.025 258.597 150.019C253.006 142.942 248.725 133.672 245.753 122.207C245.638 121.765 245.525 121.322 245.415 120.877C237.238 125.098 227.671 127.208 216.716 127.208C204.541 127.208 194.215 124.838 185.739 120.098C177.263 115.307 170.919 109.064 166.706 101.367C162.494 93.6202 160.388 85.3124 160.388 76.444C160.388 67.3717 162.545 58.7581 166.86 50.6032C171.176 42.4483 177.469 35.8479 185.739 30.8021C194.01 25.7563 203.873 23.2333 215.329 23.2333C227.915 23.2333 238.626 25.6288 247.461 30.4198C249.145 31.3325 250.747 32.2997 252.268 33.3214C254.14 29.9074 256.25 26.8408 258.597 24.1215C264.4 17.3277 271.512 13.9308 279.934 13.9308C287.435 13.9308 293.911 17.5046 299.36 24.6523C301.355 27.2426 303.174 30.1316 304.817 33.3193C306.337 32.2983 307.938 31.3318 309.62 30.4198C318.456 25.6288 329.167 23.2333 341.753 23.2333C353.209 23.2333 363.072 25.7563 371.343 30.8021C379.613 35.8479 385.906 42.4483 390.221 50.6032C394.537 58.7581 396.694 67.3717 396.694 76.444C396.694 85.3124 394.588 93.6202 390.376 101.367C386.163 109.064 379.819 115.307 371.343 120.098C362.866 124.838 352.541 127.208 340.366 127.208C329.816 127.208 320.554 125.251 312.58 121.337C312.36 122.306 312.128 123.268 311.886 124.224C309.126 135.052 304.951 143.827 299.36 150.55C293.84 157.202 287.011 160.528 278.872 160.528ZM220.183 89.5937C219.978 89.8996 219.567 90.0525 218.951 90.0525C218.231 90.0525 217.589 89.7976 217.024 89.2879C215.226 87.5041 213.891 85.2615 213.017 82.5602C212.144 79.8588 211.707 76.9791 211.707 73.9211C211.707 68.3656 212.966 63.8294 215.483 60.3126C215.894 59.8029 216.356 59.4971 216.87 59.3952C217.384 59.2932 217.82 59.3952 218.18 59.701C218.488 60.0068 218.642 60.3126 218.642 60.6184C218.642 61.0261 218.36 61.6123 217.795 62.3768C216.87 63.9568 216.1 65.8426 215.483 68.0343C214.815 70.1749 214.481 72.3411 214.481 74.5327C214.481 77.1321 214.892 79.553 215.714 81.7956C216.485 83.9873 217.718 85.7457 219.413 87.0708C219.824 87.4786 220.106 87.9373 220.261 88.447C220.415 88.9057 220.389 89.2879 220.183 89.5937ZM338.131 90.0525C337.515 90.0525 337.104 89.8996 336.898 89.5937C336.693 89.2879 336.667 88.9057 336.821 88.447C336.975 87.9373 337.258 87.4786 337.669 87.0708C339.364 85.7457 340.597 83.9873 341.368 81.7956C342.19 79.553 342.601 77.1321 342.601 74.5327C342.601 72.3411 342.267 70.1749 341.599 68.0343C340.982 65.8426 340.212 63.9568 339.287 62.3768C338.722 61.6123 338.439 61.0261 338.439 60.6184C338.439 60.3126 338.594 60.0068 338.902 59.701C339.261 59.3952 339.698 59.2932 340.212 59.3952C340.725 59.4971 341.188 59.8029 341.599 60.3126C344.116 63.8294 345.375 68.3656 345.375 73.9211C345.375 76.9791 344.938 79.8588 344.065 82.5602C343.191 85.2615 341.856 87.5041 340.058 89.2879C339.493 89.7976 338.85 90.0525 338.131 90.0525Z" fill="#FEC994"/>
<path d="M90.585 163.288C73.5297 163.288 58.9159 159.75 46.7437 152.673C34.5714 145.525 25.4069 136.184 19.25 124.649C13.0931 113.043 10.0146 100.693 10.0146 87.6012C10.0146 74.5797 13.0577 62.3721 19.1438 50.9783C25.23 39.5137 34.1822 30.243 46.0006 23.1661C57.8898 16.0185 72.2559 12.4446 89.0988 12.4446C101.979 12.4446 113.443 14.5323 123.493 18.7077C133.612 22.8123 141.432 28.1553 146.952 34.7368C152.472 41.3183 155.232 48.1475 155.232 55.2244C155.232 61.4521 152.862 67.2905 148.12 72.7397C143.379 78.1889 136.302 82.5766 126.889 85.9027C114.576 81.7273 99.5726 79.6397 81.8804 79.6397C76.3604 79.6397 72.0435 80.4889 68.9297 82.1873C65.8867 83.815 64.3651 85.7258 64.3651 87.9196C64.3651 90.255 66.0282 92.2365 69.3543 93.8642C72.6805 95.4919 77.3158 96.3057 83.2604 96.3057C100.245 96.3057 114.717 94.3596 126.677 90.4673C135.806 93.7934 142.6 98.1103 147.059 103.418C151.588 108.726 153.852 114.493 153.852 120.721C153.852 127.656 151.163 134.415 145.785 140.996C140.477 147.578 132.94 152.956 123.174 157.132C113.479 161.236 102.616 163.288 90.585 163.288ZM83.2604 91.9535C78.7312 91.9535 75.1928 91.5288 72.6451 90.6796C70.1682 89.8304 68.9297 88.9104 68.9297 87.9196C68.9297 86.9289 70.062 86.0443 72.3266 85.2658C74.662 84.4166 77.8466 83.992 81.8804 83.992C96.105 83.992 108.525 85.3719 119.14 88.1319C108.383 90.7504 96.4234 92.0242 83.2604 91.9535Z" fill="#FEC994"/>
<path fill-rule="evenodd" clip-rule="evenodd" d="M708.719 15.7711C715.938 9.68503 724.536 6.64197 734.515 6.64197C745.979 6.64197 754.295 11.0296 759.461 19.805C764.698 28.5803 767.174 38.9126 766.891 50.8017C761.513 53.4202 757.161 57.2771 753.835 62.3724C750.508 67.5386 748.845 72.3508 748.845 76.8093C748.845 79.2862 749.412 81.2323 750.544 82.6477C751.747 84.1339 753.445 84.8769 755.639 84.8769C759.531 84.8769 762.928 81.8339 765.83 75.7477C768.731 69.6616 770.465 62.3371 771.031 53.774C774.074 52.7833 776.976 52.2879 779.736 52.2879C788.865 52.2879 796.827 54.3756 803.62 58.5509C808.873 61.7996 813.172 65.8147 816.518 70.5962C817.049 61.4682 818.376 52.8177 820.499 44.6449C823.4 33.6757 827.753 24.8296 833.556 18.1065C839.359 11.3127 846.471 7.91583 854.893 7.91583C862.394 7.91583 868.869 11.4897 874.319 18.6373C879.768 25.7142 883.908 35.0203 886.738 46.5556C889.569 58.091 890.985 70.2278 890.985 82.9662C890.985 95.563 889.605 107.311 886.845 118.209C884.085 129.037 879.909 137.812 874.319 144.535C868.799 151.187 861.969 154.514 853.831 154.514C845.976 154.514 839.217 151.01 833.556 144.004C828.045 137.029 823.807 127.922 820.84 116.684C819.801 119.141 818.555 121.56 817.102 123.941C812.077 132.292 804.257 139.05 793.642 144.217C783.027 149.454 770.041 152.072 754.684 152.072C740.105 152.072 727.685 148.215 717.424 140.501C707.233 132.858 699.59 122.915 694.495 110.672C689.47 98.4999 686.958 85.6908 686.958 72.2447C686.958 60.7094 688.798 49.9171 692.478 39.8679C696.158 29.8895 701.572 21.8573 708.719 15.7711ZM783.664 77.977C782.814 77.977 782.213 78.1893 781.859 78.6139C781.576 79.0385 781.541 79.5693 781.753 80.2062C782.036 80.9139 782.461 81.5508 783.027 82.1169C785.362 83.9569 787.061 86.3985 788.122 89.4415C789.184 92.4846 789.714 95.8107 789.714 99.4199C789.714 102.463 789.254 105.506 788.334 108.549C787.485 111.592 786.424 114.211 785.15 116.404C784.442 117.466 784.088 118.28 784.088 118.846C784.088 119.271 784.301 119.695 784.725 120.12C785.15 120.544 785.716 120.686 786.424 120.544C787.202 120.403 787.874 119.978 788.441 119.271C791.908 114.388 793.642 108.089 793.642 100.375C793.642 96.1292 793.005 92.1307 791.731 88.38C790.528 84.6292 788.688 81.5154 786.211 79.0385C785.504 78.3308 784.654 77.977 783.664 77.977ZM756.913 65.9817C759.39 61.8063 762.645 58.4802 766.679 56.0032C766.113 62.7971 764.768 68.5647 762.645 73.3062C760.593 78.1185 758.258 80.5246 755.639 80.5246C754.011 80.5246 753.198 79.2862 753.198 76.8093C753.198 73.7662 754.436 70.157 756.913 65.9817Z" fill="#495184"/>
<path d="M591.572 152.072C581.594 152.072 572.995 149.029 565.777 142.943C558.629 136.857 553.216 128.824 549.536 118.846C545.856 108.797 544.016 98.0046 544.016 86.4692C544.016 73.0231 546.528 60.214 551.553 48.0417C556.648 35.7987 564.291 25.8557 574.482 18.2127C584.743 10.4989 597.163 6.64197 611.741 6.64197C627.098 6.64197 640.084 9.26042 650.7 14.4973C661.315 19.6634 669.135 26.4219 674.16 34.7726C679.255 43.1233 681.803 51.934 681.803 61.2048C681.803 69.2016 679.998 76.6324 676.389 83.4969C672.78 90.3615 667.543 95.9169 660.678 100.163C653.884 104.338 645.923 106.426 636.794 106.426C634.034 106.426 631.132 105.931 628.089 104.94C627.523 96.3769 625.789 89.0523 622.888 82.9662C619.986 76.8801 616.589 73.837 612.697 73.837C610.503 73.837 608.805 74.5801 607.601 76.0662C606.469 77.4816 605.903 79.4277 605.903 81.9046C605.903 86.3631 607.566 91.1754 610.892 96.3415C614.218 101.437 618.571 105.294 623.949 107.912C624.232 119.801 621.755 130.134 616.518 138.909C611.352 147.684 603.037 152.072 591.572 152.072ZM638.917 80.1C639.271 80.5247 639.872 80.737 640.721 80.737C641.712 80.737 642.561 80.3831 643.269 79.6754C645.746 77.1985 647.586 74.0847 648.789 70.3339C650.063 66.5832 650.7 62.5847 650.7 58.3386C650.7 50.6248 648.966 44.3264 645.498 39.4433C644.932 38.7356 644.26 38.311 643.481 38.1695C642.774 38.028 642.207 38.1695 641.783 38.5941C641.358 39.0187 641.146 39.4433 641.146 39.8679C641.146 40.4341 641.5 41.2479 642.207 42.3095C643.481 44.5033 644.543 47.1217 645.392 50.1648C646.312 53.2079 646.772 56.2509 646.772 59.294C646.772 62.9032 646.241 66.2293 645.18 69.2724C644.118 72.3155 642.42 74.757 640.084 76.597C639.518 77.1631 639.094 77.8 638.811 78.5077C638.598 79.1447 638.634 79.6754 638.917 80.1ZM623.737 102.711C619.703 100.234 616.448 96.9076 613.971 92.7323C611.494 88.5569 610.255 84.9477 610.255 81.9046C610.255 79.4277 611.069 78.1893 612.697 78.1893C615.315 78.1893 617.651 80.5954 619.703 85.4077C621.826 90.1492 623.171 95.9169 623.737 102.711Z" fill="#495184"/>
<path d="M538.859 123.411C538.859 129.638 535.746 135.264 529.518 140.289C523.29 145.243 515.116 149.135 504.996 151.966C494.877 154.797 484.297 156.212 473.257 156.212C461.651 156.212 450.894 154.549 440.986 151.223C431.078 147.897 423.082 142.624 416.995 135.406C410.909 128.117 407.866 118.952 407.866 107.912C407.866 100.552 409.6 94.2891 413.068 89.123C416.535 83.9569 420.64 80.1707 425.382 77.7646C428.991 79.8169 432.211 80.8077 435.041 80.7369C438.226 80.7369 439.818 79.2861 439.818 76.3846C439.818 74.6154 439.181 73.3062 437.908 72.4569C436.705 71.6077 435.077 71.1831 433.025 71.1831C430.689 71.1831 428.318 71.7139 425.912 72.7754C421.242 69.4493 417.278 65.1678 414.023 59.9309C410.768 54.694 409.14 48.7494 409.14 42.0971C409.14 33.9587 412.431 27.1295 419.012 21.6095C425.594 16.0896 434.121 11.985 444.595 9.29574C455.14 6.53575 466.286 5.15576 478.034 5.15576C488.649 5.15576 498.592 6.25268 507.863 8.44651C517.133 10.5696 524.564 13.7542 530.155 18.0003C535.816 22.1757 538.647 27.0941 538.647 32.7556C538.647 41.1771 535.109 47.9002 528.032 52.9247C521.804 49.3155 515.223 47.5109 508.287 47.5109C503.616 47.5109 499.76 48.4309 496.716 50.2709C493.673 52.0401 492.152 54.517 492.152 57.7016C492.152 59.7539 493.461 61.417 496.08 62.6908C498.698 63.8939 502.024 64.4954 506.058 64.4954C509.526 64.4954 513.206 64.0001 517.098 63.0093C521.061 61.9478 524.706 60.3909 528.032 58.3386C535.109 63.4339 538.647 70.1923 538.647 78.6138C538.647 86.8938 534.613 93.1922 526.546 97.5091C519.327 93.8999 511.578 92.0953 503.298 92.0953C498.981 92.0953 495.372 92.6615 492.47 93.7938C489.64 94.8553 488.224 96.306 488.224 98.146C488.224 100.906 489.923 103.1 493.32 104.728C496.787 106.284 501.104 107.063 506.27 107.063C513.63 107.063 520.318 105.612 526.333 102.711C534.755 107.806 538.93 114.706 538.859 123.411ZM496.504 57.7016C496.504 56.0032 497.495 54.6586 499.476 53.6678C501.529 52.6063 504.253 52.0755 507.65 52.0755C513.312 52.0755 518.584 53.314 523.467 55.7909C517.381 58.8339 511.012 60.3555 504.36 60.3555C502.024 60.3555 500.113 60.1078 498.627 59.6124C497.212 59.0462 496.504 58.4093 496.504 57.7016ZM435.466 76.3846C435.395 76.6677 435.077 76.8092 434.511 76.8092C433.378 76.8092 432.105 76.4554 430.689 75.7477C431.397 75.4646 432.317 75.3231 433.449 75.3231C434.723 75.3231 435.395 75.6769 435.466 76.3846ZM520.813 100.163C515.647 101.861 510.446 102.711 505.209 102.711C501.6 102.711 498.592 102.321 496.186 101.543C493.78 100.764 492.577 99.6322 492.577 98.146C492.577 97.5799 493.284 97.0845 494.7 96.6599C496.186 96.2353 498.167 96.023 500.644 96.023C507.863 96.023 514.586 97.403 520.813 100.163Z" fill="#495184"/>
<path fill-rule="evenodd" clip-rule="evenodd" d="M284.888 154.514C277.033 154.514 270.274 151.011 264.613 144.004C259.022 136.928 254.74 127.657 251.768 116.192C251.653 115.75 251.541 115.306 251.431 114.862C243.253 119.083 233.687 121.193 222.732 121.193C210.557 121.193 200.231 118.823 191.755 114.083C183.279 109.292 176.934 103.048 172.722 95.3521C168.51 87.6049 166.403 79.2971 166.403 70.4287C166.403 61.3564 168.561 52.7428 172.876 44.5879C177.191 36.433 183.484 29.8326 191.755 24.7868C200.026 19.741 209.889 17.218 221.345 17.218C233.93 17.218 244.641 19.6135 253.477 24.4045C255.16 25.3172 256.762 26.2844 258.283 27.3062C260.156 23.8924 262.266 20.8259 264.613 18.1067C270.416 11.3129 277.528 7.91595 285.95 7.91595C293.451 7.91595 299.926 11.4898 305.376 18.6374C307.37 21.2277 309.189 24.1165 310.833 27.3041C312.353 26.2831 313.954 25.3166 315.636 24.4045C324.472 19.6135 335.183 17.218 347.768 17.218C359.224 17.218 369.087 19.741 377.358 24.7868C385.629 29.8326 391.922 36.433 396.237 44.5879C400.552 52.7428 402.71 61.3564 402.71 70.4287C402.71 79.2971 400.604 87.6049 396.391 95.3521C392.179 103.048 385.834 109.292 377.358 114.083C368.882 118.823 358.556 121.193 346.381 121.193C335.832 121.193 326.57 119.236 318.596 115.322C318.375 116.291 318.144 117.253 317.902 118.209C315.142 129.037 310.966 137.812 305.376 144.535C299.856 151.188 293.026 154.514 284.888 154.514ZM226.199 83.5784C225.994 83.8842 225.583 84.0372 224.966 84.0372C224.247 84.0372 223.605 83.7823 223.04 83.2726C221.242 81.4888 219.906 79.2462 219.033 76.5449C218.16 73.8435 217.723 70.9638 217.723 67.9058C217.723 62.3502 218.982 57.8141 221.499 54.2973C221.91 53.7876 222.372 53.4818 222.886 53.3799C223.399 53.2779 223.836 53.3799 224.196 53.6857C224.504 53.9915 224.658 54.2973 224.658 54.6031C224.658 55.0108 224.375 55.597 223.81 56.3615C222.886 57.9415 222.115 59.8273 221.499 62.019C220.831 64.1596 220.497 66.3258 220.497 68.5174C220.497 71.1168 220.908 73.5377 221.73 75.7803C222.5 77.972 223.733 79.7304 225.429 81.0555C225.84 81.4633 226.122 81.922 226.276 82.4317C226.43 82.8904 226.405 83.2726 226.199 83.5784ZM344.147 84.0372C343.53 84.0372 343.119 83.8842 342.914 83.5784C342.708 83.2726 342.683 82.8904 342.837 82.4317C342.991 81.922 343.274 81.4633 343.684 81.0555C345.38 79.7304 346.613 77.972 347.383 75.7803C348.205 73.5377 348.616 71.1168 348.616 68.5174C348.616 66.3258 348.282 64.1596 347.614 62.019C346.998 59.8273 346.227 57.9415 345.303 56.3615C344.738 55.597 344.455 55.0108 344.455 54.6031C344.455 54.2973 344.609 53.9915 344.917 53.6857C345.277 53.3799 345.714 53.2779 346.227 53.3799C346.741 53.4818 347.203 53.7876 347.614 54.2973C350.132 57.8141 351.39 62.3502 351.39 67.9058C351.39 70.9638 350.953 73.8435 350.08 76.5449C349.207 79.2462 347.871 81.4888 346.073 83.2726C345.508 83.7823 344.866 84.0372 344.147 84.0372Z" fill="#495184"/>
<path d="M96.6006 157.274C79.5453 157.274 64.9315 153.735 52.7593 146.658C40.5871 139.511 31.4225 130.169 25.2656 118.634C19.1087 107.028 16.0303 94.6785 16.0303 81.5863C16.0303 68.5648 19.0733 56.3572 25.1595 44.9634C31.2456 33.4988 40.1978 24.2281 52.0162 17.1512C63.9054 10.0036 78.2715 6.42975 95.1145 6.42975C107.994 6.42975 119.459 8.51743 129.508 12.6928C139.628 16.7974 147.448 22.1404 152.968 28.7219C158.488 35.3034 161.248 42.1326 161.248 49.2095C161.248 55.4372 158.877 61.2756 154.136 66.7248C149.394 72.174 142.317 76.5617 132.905 79.8878C120.591 75.7125 105.588 73.6248 87.896 73.6248C82.3761 73.6248 78.0592 74.474 74.9453 76.1725C71.9023 77.8001 70.3808 79.7109 70.3808 81.9047C70.3808 84.2401 72.0438 86.2216 75.37 87.8493C78.6961 89.477 83.3315 90.2908 89.276 90.2908C106.261 90.2908 120.733 88.3447 132.693 84.4524C141.822 87.7785 148.616 92.0955 153.074 97.4031C157.603 102.711 159.868 108.478 159.868 114.706C159.868 121.641 157.179 128.4 151.8 134.981C146.493 141.563 138.956 146.941 129.19 151.117C119.494 155.221 108.631 157.274 96.6006 157.274ZM89.276 85.9386C84.7468 85.9386 81.2084 85.5139 78.6607 84.6647C76.1838 83.8155 74.9453 82.8955 74.9453 81.9047C74.9453 80.914 76.0776 80.0294 78.3422 79.2509C80.6776 78.4017 83.8622 77.9771 87.896 77.9771C102.121 77.9771 114.541 79.3571 125.156 82.117C114.399 84.7355 102.439 86.0093 89.276 85.9386Z" fill="#495184"/>
<path d="M129.028 62.2991L133.754 85.5001L131.176 95.382C128.025 97.9599 120.95 103.545 117.857 105.264C113.99 107.412 96.3743 116.005 92.9371 116.864C89.5 117.724 46.5352 100.538 46.5352 99.2489V54.5655L129.028 62.2991Z" fill="#495184"/>
<path d="M198.631 65.7363C198.631 62.9866 216.962 53.1333 226.128 48.5504H231.713C234.005 53.1333 238.416 62.7288 237.729 64.4474C236.869 66.5956 239.447 82.063 238.588 83.3519C237.729 84.6408 234.291 95.382 231.713 97.5303C229.136 99.6785 208.512 99.2489 205.505 99.2489C202.497 99.2489 198.631 69.1735 198.631 65.7363Z" fill="#495184"/>
<path d="M333.97 62.2991L347.718 50.269L353.304 46.4022C357.171 47.6911 365.334 50.7846 367.053 52.8469C369.201 55.4248 371.349 70.8921 370.49 78.1961C369.63 85.5001 359.749 91.9449 355.022 94.0931C350.296 96.2413 337.837 92.8042 333.97 90.2263C330.876 88.164 332.681 70.7489 333.97 62.2991Z" fill="#495184"/>
<path d="M522.585 68.7439L535.045 43.3946C530.892 39.9574 521.984 33.0831 519.578 33.0831C516.57 33.0831 513.133 30.5052 505.399 30.5052C497.666 30.5052 493.369 31.7941 486.495 33.0831C479.62 34.372 473.176 43.3946 468.02 50.269C463.895 55.7685 473.462 69.4599 478.761 75.6182L522.585 68.7439Z" fill="#495184"/>
<path d="M522.585 114.716L532.037 88.5077C527.884 85.7866 519.234 80.3444 517.859 80.3444C516.141 80.3444 503.681 79.9147 498.955 80.3444C494.228 80.774 486.495 83.3519 478.761 83.3519C471.027 83.3519 474.035 92.3745 474.035 95.382C474.035 98.3896 484.347 117.724 486.495 119.013C488.213 120.044 511.271 116.578 522.585 114.716Z" fill="#495184"/>
<path d="M633.864 56.7137C632.146 53.6203 637.444 40.5303 640.309 34.372H651.48L658.354 39.5278C659.786 45.2564 662.651 57.4871 662.651 60.5806C662.651 64.4474 652.339 80.3444 648.042 85.5001C643.746 90.6559 633.864 88.5077 631.716 85.5001C629.568 82.4926 632.575 76.9072 633.864 75.6182C635.153 74.3293 636.012 60.5806 633.864 56.7137Z" fill="#495184"/>
<path d="M591.759 90.2263C589.181 85.0705 608.515 65.3067 610.233 64.877L620.545 58.862L631.716 100.538L623.552 108.701L620.545 112.998H604.648C602.929 112.998 594.336 95.382 591.759 90.2263Z" fill="#495184"/>
<path d="M779.085 75.6182C779.429 73.5559 785.53 73.0403 788.537 73.0403L795.841 68.7439C797.417 72.6107 800.568 81.3755 800.568 85.5001C800.568 90.6559 802.286 110.42 800.568 114.716C798.849 119.013 786.819 125.887 783.811 126.746C781.405 127.434 778.512 120.731 777.367 117.294L773.929 90.2263C775.505 86.2162 778.741 77.6805 779.085 75.6182Z" fill="#495184"/>
<path d="M775.218 55.8544L766.196 50.269C762.186 49.4097 753.908 47.6911 752.877 47.6911C751.588 47.6911 741.706 53.7062 738.698 55.8544C736.292 57.573 733.399 62.5856 732.253 64.877C734.258 71.7514 738.354 86.1017 738.698 88.5077C739.042 90.9137 757.173 90.6559 766.196 90.2263L775.218 55.8544Z" fill="#495184"/>
<path fill-rule="evenodd" clip-rule="evenodd" d="M714.734 10.6153C721.953 4.52921 730.551 1.48615 740.529 1.48615C751.994 1.48615 760.309 5.87381 765.475 14.6492C770.712 23.4245 773.189 33.7567 772.906 45.6459C767.528 48.2644 763.175 52.1213 759.849 57.2166C756.523 62.3827 754.86 67.195 754.86 71.6535C754.86 74.1304 755.426 76.0765 756.558 77.4919C757.762 78.978 759.46 79.7211 761.654 79.7211C765.546 79.7211 768.943 76.678 771.845 70.5919C774.746 64.5058 776.48 57.1812 777.046 48.6182C780.089 47.6274 782.991 47.1321 785.751 47.1321C794.88 47.1321 802.841 49.2197 809.635 53.3951C814.887 56.6438 819.186 60.6589 822.533 65.4404C823.064 56.3124 824.391 47.6619 826.513 39.489C829.415 28.5199 833.767 19.6738 839.57 12.9507C845.373 6.15692 852.486 2.76001 860.907 2.76001C868.409 2.76001 874.884 6.33384 880.333 13.4815C885.782 20.5584 889.922 29.8645 892.753 41.3998C895.584 52.9351 896.999 65.072 896.999 77.8104C896.999 90.4072 895.619 102.155 892.859 113.053C890.099 123.881 885.924 132.656 880.333 139.379C874.813 146.032 867.984 149.358 859.846 149.358C851.99 149.358 845.232 145.855 839.57 138.849C834.06 131.873 829.821 122.766 826.855 111.528C825.816 113.985 824.57 116.404 823.117 118.786C818.092 127.136 810.272 133.895 799.657 139.061C789.041 144.298 776.055 146.916 760.698 146.916C746.12 146.916 733.7 143.059 723.439 135.345C713.248 127.702 705.605 117.759 700.51 105.516C695.485 93.3441 692.973 80.535 692.973 67.0889C692.973 55.5535 694.813 44.7613 698.493 34.7121C702.173 24.7337 707.586 16.7014 714.734 10.6153ZM789.678 72.8211C788.829 72.8211 788.228 73.0334 787.874 73.4581C787.591 73.8827 787.555 74.4134 787.768 75.0504C788.051 75.758 788.475 76.395 789.041 76.9611C791.377 78.8011 793.075 81.2426 794.137 84.2857C795.198 87.3288 795.729 90.6549 795.729 94.2641C795.729 97.3072 795.269 100.35 794.349 103.393C793.5 106.436 792.438 109.055 791.164 111.249C790.457 112.31 790.103 113.124 790.103 113.69C790.103 114.115 790.315 114.539 790.74 114.964C791.164 115.389 791.731 115.53 792.438 115.389C793.217 115.247 793.889 114.822 794.455 114.115C797.923 109.232 799.657 102.933 799.657 95.2195C799.657 90.9734 799.02 86.9749 797.746 83.2242C796.543 79.4734 794.703 76.3596 792.226 73.8827C791.518 73.175 790.669 72.8211 789.678 72.8211ZM762.928 60.8258C765.405 56.6505 768.66 53.3243 772.694 50.8474C772.128 57.6412 770.783 63.4089 768.66 68.1504C766.608 72.9627 764.272 75.3688 761.654 75.3688C760.026 75.3688 759.212 74.1304 759.212 71.6535C759.212 68.6104 760.451 65.0012 762.928 60.8258Z" fill="white"/>
<path d="M597.587 146.916C587.609 146.916 579.01 143.873 571.792 137.787C564.644 131.701 559.23 123.669 555.55 113.69C551.87 103.641 550.03 92.8487 550.03 81.3134C550.03 67.8673 552.543 55.0582 557.567 42.8859C562.663 30.6429 570.306 20.6999 580.496 13.0569C590.758 5.34305 603.178 1.48615 617.756 1.48615C633.113 1.48615 646.099 4.10459 656.714 9.34149C667.33 14.5076 675.15 21.266 680.174 29.6168C685.27 37.9675 687.817 46.7782 687.817 56.0489C687.817 64.0458 686.013 71.4765 682.403 78.3411C678.794 85.2057 673.557 90.761 666.693 95.0072C659.899 99.1825 651.937 101.27 642.808 101.27C640.048 101.27 637.147 100.775 634.104 99.7841C633.538 91.221 631.804 83.8965 628.902 77.8103C626.001 71.7242 622.604 68.6812 618.711 68.6812C616.518 68.6812 614.819 69.4242 613.616 70.9104C612.484 72.3258 611.918 74.2719 611.918 76.7488C611.918 81.2073 613.581 86.0195 616.907 91.1857C620.233 96.281 624.585 100.138 629.964 102.756C630.247 114.646 627.77 124.978 622.533 133.753C617.367 142.528 609.051 146.916 597.587 146.916ZM644.931 74.9442C645.285 75.3688 645.887 75.5811 646.736 75.5811C647.727 75.5811 648.576 75.2273 649.284 74.5196C651.76 72.0427 653.6 68.9289 654.804 65.1781C656.077 61.4274 656.714 57.4289 656.714 53.1828C656.714 45.469 654.98 39.1706 651.513 34.2875C650.947 33.5798 650.274 33.1552 649.496 33.0137C648.788 32.8721 648.222 33.0137 647.797 33.4383C647.373 33.8629 647.161 34.2875 647.161 34.7121C647.161 35.2783 647.514 36.0921 648.222 37.1536C649.496 39.3475 650.557 41.9659 651.407 45.009C652.327 48.052 652.787 51.0951 652.787 54.1382C652.787 57.7474 652.256 61.0735 651.194 64.1166C650.133 67.1596 648.434 69.6012 646.099 71.4412C645.533 72.0073 645.108 72.6442 644.825 73.3519C644.613 73.9888 644.648 74.5196 644.931 74.9442ZM629.751 97.5549C625.718 95.0779 622.462 91.7518 619.985 87.5765C617.508 83.4011 616.27 79.7919 616.27 76.7488C616.27 74.2719 617.084 73.0335 618.711 73.0335C621.33 73.0335 623.665 75.4396 625.718 80.2519C627.841 84.9934 629.185 90.761 629.751 97.5549Z" fill="white"/>
<path d="M544.874 118.255C544.874 124.482 541.76 130.109 535.533 135.133C529.305 140.087 521.131 143.979 511.011 146.81C500.891 149.641 490.311 151.056 479.271 151.056C467.665 151.056 456.908 149.393 447.001 146.067C437.093 142.741 429.096 137.469 423.01 130.25C416.924 122.961 413.881 113.796 413.881 102.756C413.881 95.3964 415.615 89.1334 419.082 83.9672C422.55 78.8011 426.655 75.015 431.396 72.6088C435.005 74.6611 438.225 75.6519 441.056 75.5811C444.241 75.5811 445.833 74.1304 445.833 71.2289C445.833 69.4596 445.196 68.1504 443.922 67.3012C442.719 66.452 441.091 66.0273 439.039 66.0273C436.704 66.0273 434.333 66.5581 431.927 67.6196C427.256 64.2935 423.293 60.012 420.038 54.7751C416.782 49.5382 415.155 43.5936 415.155 36.9413C415.155 28.8029 418.445 21.9737 425.027 16.4538C431.608 10.9338 440.136 6.82919 450.61 4.13998C461.154 1.37999 472.301 0 484.048 0C494.664 0 504.607 1.09692 513.877 3.29075C523.148 5.41382 530.579 8.59842 536.169 12.8445C541.831 17.0199 544.662 21.9383 544.662 27.5999C544.662 36.0213 541.123 42.7444 534.046 47.769C527.819 44.1598 521.237 42.3552 514.302 42.3552C509.631 42.3552 505.774 43.2752 502.731 45.1151C499.688 46.8844 498.167 49.3613 498.167 52.5459C498.167 54.5982 499.476 56.2612 502.094 57.5351C504.713 58.7382 508.039 59.3397 512.073 59.3397C515.54 59.3397 519.22 58.8443 523.113 57.8535C527.076 56.792 530.72 55.2351 534.046 53.1828C541.123 58.2782 544.662 65.0366 544.662 73.4581C544.662 81.738 540.628 88.0365 532.56 92.3534C525.342 88.7441 517.593 86.9395 509.313 86.9395C504.996 86.9395 501.387 87.5057 498.485 88.638C495.654 89.6995 494.239 91.1503 494.239 92.9903C494.239 95.7503 495.937 97.9441 499.334 99.5718C502.802 101.129 507.119 101.907 512.285 101.907C519.645 101.907 526.333 100.456 532.348 97.5549C540.769 102.65 544.945 109.55 544.874 118.255ZM502.519 52.5459C502.519 50.8474 503.51 49.5028 505.491 48.5121C507.543 47.4505 510.268 46.9198 513.665 46.9198C519.326 46.9198 524.599 48.1582 529.482 50.6351C523.396 53.6782 517.026 55.1997 510.374 55.1997C508.039 55.1997 506.128 54.952 504.642 54.4566C503.227 53.8905 502.519 53.2536 502.519 52.5459ZM441.481 71.2289C441.41 71.5119 441.091 71.6535 440.525 71.6535C439.393 71.6535 438.119 71.2996 436.704 70.5919C437.412 70.3089 438.331 70.1673 439.464 70.1673C440.738 70.1673 441.41 70.5212 441.481 71.2289ZM526.828 95.0072C521.662 96.7056 516.46 97.5549 511.223 97.5549C507.614 97.5549 504.607 97.1656 502.2 96.3872C499.794 95.6087 498.591 94.4764 498.591 92.9903C498.591 92.4241 499.299 91.9287 500.714 91.5041C502.2 91.0795 504.182 90.8672 506.659 90.8672C513.877 90.8672 520.6 92.2472 526.828 95.0072Z" fill="white"/>
<path fill-rule="evenodd" clip-rule="evenodd" d="M290.903 149.358C283.047 149.358 276.289 145.855 270.627 138.849C265.037 131.772 260.755 122.501 257.783 111.036C257.668 110.594 257.556 110.151 257.445 109.706C249.268 113.927 239.702 116.037 228.746 116.037C216.571 116.037 206.246 113.667 197.77 108.927C189.293 104.136 182.949 97.8924 178.737 90.1962C174.524 82.4491 172.418 74.1413 172.418 65.2729C172.418 56.2006 174.576 47.5869 178.891 39.4321C183.206 31.2772 189.499 24.6768 197.77 19.631C206.04 14.5851 215.903 12.0622 227.359 12.0622C239.945 12.0622 250.656 14.4577 259.492 19.2487C261.175 20.1614 262.777 21.1286 264.298 22.1504C266.171 18.7366 268.28 15.6701 270.627 12.9508C276.43 6.15704 283.543 2.76013 291.964 2.76013C299.466 2.76013 305.941 6.33396 311.39 13.4816C313.385 16.0718 315.204 18.9607 316.848 22.1482C318.368 21.1272 319.969 20.1607 321.651 19.2487C330.486 14.4577 341.197 12.0622 353.783 12.0622C365.239 12.0622 375.102 14.5851 383.373 19.631C391.644 24.6768 397.936 31.2772 402.252 39.4321C406.567 47.5869 408.724 56.2006 408.724 65.2729C408.724 74.1413 406.618 82.4491 402.406 90.1962C398.193 97.8924 391.849 104.136 383.373 108.927C374.897 113.667 364.571 116.037 352.396 116.037C341.846 116.037 332.584 114.08 324.611 110.166C324.39 111.135 324.158 112.098 323.916 113.053C321.156 123.881 316.981 132.656 311.39 139.379C305.87 146.032 299.041 149.358 290.903 149.358ZM232.214 78.4226C232.008 78.7284 231.597 78.8813 230.981 78.8813C230.262 78.8813 229.62 78.6265 229.054 78.1168C227.256 76.3329 225.921 74.0903 225.048 71.389C224.174 68.6877 223.738 65.808 223.738 62.7499C223.738 57.1944 224.996 52.6583 227.513 49.1415C227.924 48.6318 228.387 48.326 228.9 48.224C229.414 48.1221 229.851 48.224 230.21 48.5299C230.519 48.8357 230.673 49.1415 230.673 49.4473C230.673 49.855 230.39 50.4412 229.825 51.2057C228.9 52.7857 228.13 54.6715 227.513 56.8631C226.846 59.0038 226.512 61.1699 226.512 63.3616C226.512 65.9609 226.923 68.3819 227.744 70.6245C228.515 72.8161 229.748 74.5745 231.443 75.8997C231.854 76.3074 232.137 76.7662 232.291 77.2758C232.445 77.7346 232.419 78.1168 232.214 78.4226ZM350.161 78.8813C349.545 78.8813 349.134 78.7284 348.929 78.4226C348.723 78.1168 348.697 77.7346 348.852 77.2758C349.006 76.7662 349.288 76.3074 349.699 75.8997C351.394 74.5745 352.627 72.8161 353.398 70.6245C354.22 68.3819 354.631 65.9609 354.631 63.3616C354.631 61.1699 354.297 59.0038 353.629 56.8631C353.013 54.6715 352.242 52.7857 351.317 51.2057C350.752 50.4412 350.47 49.855 350.47 49.4473C350.47 49.1415 350.624 48.8357 350.932 48.5299C351.292 48.224 351.728 48.1221 352.242 48.224C352.756 48.326 353.218 48.6318 353.629 49.1415C356.146 52.6583 357.405 57.1944 357.405 62.7499C357.405 65.808 356.968 68.6877 356.095 71.389C355.221 74.0903 353.886 76.3329 352.088 78.1168C351.523 78.6265 350.881 78.8813 350.161 78.8813Z" fill="white"/>
<path d="M102.615 152.118C85.56 152.118 70.9462 148.579 58.774 141.502C46.6017 134.355 37.4371 125.013 31.2803 113.478C25.1234 101.872 22.0449 89.5228 22.0449 76.4305C22.0449 63.409 25.088 51.2014 31.1741 39.8076C37.2602 28.3431 46.2125 19.0724 58.0309 11.9955C69.92 4.84781 84.2861 1.27399 101.129 1.27399C114.009 1.27399 125.474 3.36167 135.523 7.53703C145.643 11.6416 153.463 16.9847 158.983 23.5662C164.503 30.1477 167.263 36.9769 167.263 44.0538C167.263 50.2814 164.892 56.1199 160.15 61.569C155.409 67.0183 148.332 71.4059 138.92 74.7321C126.606 70.5567 111.603 68.469 93.9107 68.469C88.3907 68.469 84.0738 69.3182 80.96 71.0167C77.9169 72.6444 76.3954 74.5551 76.3954 76.749C76.3954 79.0843 78.0585 81.0659 81.3846 82.6936C84.7107 84.3212 89.3461 85.1351 95.2907 85.1351C112.275 85.1351 126.747 83.1889 138.707 79.2967C147.837 82.6228 154.63 86.9397 159.089 92.2474C163.618 97.555 165.883 103.323 165.883 109.55C165.883 116.486 163.193 123.244 157.815 129.826C152.507 136.407 144.97 141.786 135.204 145.961C125.509 150.066 114.646 152.118 102.615 152.118ZM95.2907 80.7828C90.7615 80.7828 87.223 80.3582 84.6754 79.509C82.1984 78.6597 80.96 77.7397 80.96 76.749C80.96 75.7582 82.0923 74.8736 84.3569 74.0951C86.6923 73.2459 89.8769 72.8213 93.9107 72.8213C108.135 72.8213 120.555 74.2013 131.17 76.9613C120.414 79.5797 108.454 80.8536 95.2907 80.7828Z" fill="white"/>
<defs>
<filter id="filter0_d_57_765" x="0" y="16.3269" width="882.954" height="160.117" filterUnits="userSpaceOnUse" color-interpolation-filters="sRGB">
<feFlood flood-opacity="0" result="BackgroundImageFix"/>
<feColorMatrix in="SourceAlpha" type="matrix" values="0 0 0 0 0 0 0 0 0 0 0 0 0 0 0 0 0 0 127 0" result="hardAlpha"/>
<feOffset dy="4"/>
<feGaussianBlur stdDeviation="2"/>
<feComposite in2="hardAlpha" operator="out"/>
<feColorMatrix type="matrix" values="0 0 0 0 0 0 0 0 0 0 0 0 0 0 0 0 0 0 0.25 0"/>
<feBlend mode="normal" in2="BackgroundImageFix" result="effect1_dropShadow_57_765"/>
<feBlend mode="normal" in="SourceGraphic" in2="effect1_dropShadow_57_765" result="shape"/>
</filter>
</defs>
</svg>
