<svg width="499" height="185" viewBox="0 0 499 185" fill="none" xmlns="http://www.w3.org/2000/svg">
<g filter="url(#filter0_d_97_514)">
<path d="M249.803 181.428C386.493 181.428 497.301 140.814 497.301 90.7133C497.301 40.6125 386.493 -0.00195312 249.803 -0.00195312C113.113 -0.00195312 2.30469 40.6125 2.30469 90.7133C2.30469 140.814 113.113 181.428 249.803 181.428Z" fill="#F3C1C2"/>
</g>
<path d="M291.658 16.4186C291.456 16.4186 291.318 16.4186 291.259 16.4186C291.392 16.4186 291.525 16.4186 291.658 16.4186C299.257 16.2809 403.843 19.6769 470.543 68.6865C470.933 68.9618 471.378 68.5031 471.052 68.1819C451.848 47.6694 393.165 12.3345 291.658 16.4186Z" fill="#FFF9F0"/>
<path d="M197.709 159.822C197.911 159.822 198.049 159.822 198.108 159.822C197.975 159.822 197.842 159.822 197.709 159.822C190.11 159.96 85.5241 156.564 18.8243 107.6C18.4342 107.279 17.9891 107.739 18.315 108.106C37.5195 128.572 96.2025 163.952 197.709 159.822Z" fill="#FFF9F0"/>
<path d="M482.149 168.5C490.518 168.5 497.302 164.883 497.302 160.42C497.302 155.956 490.518 152.338 482.149 152.338C473.78 152.338 466.996 155.956 466.996 160.42C466.996 164.883 473.78 168.5 482.149 168.5Z" fill="#F3C1C2"/>
<path d="M490.229 156.977C486.994 154.729 481.607 154.637 479.721 154.774C492.308 152.893 493.79 158.216 492.928 161.383C492.905 161.474 492.877 161.566 492.854 161.612C492.882 161.566 492.905 161.474 492.928 161.383C493.102 160.648 493.07 158.997 490.229 156.977Z" fill="#FFF9F0"/>
<defs>
<filter id="filter0_d_97_514" x="0.688372" y="-0.00195312" width="498.23" height="184.663" filterUnits="userSpaceOnUse" color-interpolation-filters="sRGB">
<feFlood flood-opacity="0" result="BackgroundImageFix"/>
<feColorMatrix in="SourceAlpha" type="matrix" values="0 0 0 0 0 0 0 0 0 0 0 0 0 0 0 0 0 0 127 0" result="hardAlpha"/>
<feOffset dy="1.61632"/>
<feGaussianBlur stdDeviation="0.808158"/>
<feComposite in2="hardAlpha" operator="out"/>
<feColorMatrix type="matrix" values="0 0 0 0 0 0 0 0 0 0 0 0 0 0 0 0 0 0 0.25 0"/>
<feBlend mode="normal" in2="BackgroundImageFix" result="effect1_dropShadow_97_514"/>
<feBlend mode="normal" in="SourceGraphic" in2="effect1_dropShadow_97_514" result="shape"/>
</filter>
</defs>
</svg>
