<svg width="1176" height="158" viewBox="0 0 1176 158" fill="none" xmlns="http://www.w3.org/2000/svg">
<g filter="url(#filter0_d_57_727)">
<path d="M900.33 150.633C911.162 150.633 920.701 147.159 928.944 140.21C937.188 133.26 943.967 124.676 949.281 114.457C948.327 109.551 947.85 104.612 947.85 99.6387C947.85 93.9159 948.531 89.215 949.894 85.536C951.188 81.7889 952.994 79.9153 955.31 79.9153C957.013 79.9153 958.376 80.767 959.398 82.4702C960.352 84.1053 960.829 86.3876 960.829 89.3172C960.829 96.2663 958.512 104.782 953.879 114.866C956.128 124.063 959.875 131.796 965.121 138.063C970.298 144.263 977.145 147.363 985.662 147.363C991.248 147.363 996.119 144.774 1000.28 139.596C1004.36 134.419 1007.46 127.503 1009.57 118.851C1011.62 110.199 1012.64 100.729 1012.64 90.4413C1012.64 76.7473 1010.84 63.5984 1007.22 50.9946C1003.61 38.3226 998.197 27.967 990.976 19.9277C983.686 11.8204 974.863 7.76671 964.507 7.76671C949.042 7.76671 936.575 14.1708 927.105 26.9791C927.786 30.3174 928.127 34.3711 928.127 39.1401C928.127 46.8387 927.105 53.5494 925.061 59.2723C922.949 64.927 920.496 67.7543 917.703 67.7543C915.863 67.7543 914.501 66.7664 913.615 64.7907C912.661 62.7468 912.184 60.0557 912.184 56.7174C912.184 52.2209 913.036 47.2475 914.739 41.7972C916.442 36.2787 918.963 30.9987 922.302 25.9572C920.598 18.3948 917.498 12.1951 913.002 7.35793C908.437 2.45264 902.169 0 894.198 0C886.977 0 880.777 3.23613 875.599 9.70839C870.421 16.1806 866.538 24.799 863.949 35.5634C861.36 46.3277 860.066 57.8415 860.066 70.1048C860.066 83.7987 861.633 96.7773 864.767 109.041C867.832 121.304 872.397 131.319 878.461 139.085C884.524 146.784 891.814 150.633 900.33 150.633ZM917.703 63.6666C919.202 63.6666 920.632 61.3502 921.995 56.7174C923.289 52.0846 923.937 46.7024 923.937 40.5708C923.937 38.7314 923.8 36.1424 923.528 32.8041C921.007 37.3006 919.099 41.8994 917.805 46.6003C916.442 51.233 915.761 55.1504 915.761 58.3525C915.761 61.8271 916.408 63.5984 917.703 63.6666ZM952.449 107.405C955.651 99.2981 957.252 92.928 957.252 88.2952C957.252 85.5019 956.605 84.1053 955.31 84.1053C954.22 84.1053 953.368 85.3316 952.755 87.7842C952.142 90.2369 951.835 93.4049 951.835 97.2882C951.835 100.354 952.04 103.726 952.449 107.405Z" fill="white"/>
<path d="M1059.52 150.633C1070.36 150.633 1079.89 147.159 1088.14 140.21C1096.38 133.26 1103.16 124.676 1108.47 114.457C1107.52 109.551 1107.04 104.612 1107.04 99.6387C1107.04 93.9159 1107.72 89.215 1109.09 85.536C1110.38 81.7889 1112.19 79.9153 1114.5 79.9153C1116.21 79.9153 1117.57 80.767 1118.59 82.4702C1119.54 84.1053 1120.02 86.3876 1120.02 89.3172C1120.02 96.2663 1117.71 104.782 1113.07 114.866C1115.32 124.063 1119.07 131.796 1124.31 138.063C1129.49 144.263 1136.34 147.363 1144.85 147.363C1150.44 147.363 1155.31 144.774 1159.47 139.596C1163.56 134.419 1166.66 127.503 1168.77 118.851C1170.81 110.199 1171.83 100.729 1171.83 90.4413C1171.83 76.7473 1170.03 63.5984 1166.42 50.9946C1162.81 38.3226 1157.39 27.967 1150.17 19.9277C1142.88 11.8204 1134.06 7.76671 1123.7 7.76671C1108.24 7.76671 1095.77 14.1708 1086.3 26.9791C1086.98 30.3174 1087.32 34.3711 1087.32 39.1401C1087.32 46.8387 1086.3 53.5494 1084.25 59.2723C1082.14 64.927 1079.69 67.7543 1076.9 67.7543C1075.06 67.7543 1073.69 66.7664 1072.81 64.7907C1071.85 62.7468 1071.38 60.0557 1071.38 56.7174C1071.38 52.2209 1072.23 47.2475 1073.93 41.7972C1075.64 36.2787 1078.16 30.9987 1081.49 25.9572C1079.79 18.3948 1076.69 12.1951 1072.2 7.35793C1067.63 2.45264 1061.36 0 1053.39 0C1046.17 0 1039.97 3.23613 1034.79 9.70839C1029.61 16.1806 1025.73 24.799 1023.14 35.5634C1020.55 46.3277 1019.26 57.8415 1019.26 70.1048C1019.26 83.7987 1020.83 96.7773 1023.96 109.041C1027.03 121.304 1031.59 131.319 1037.65 139.085C1043.72 146.784 1051.01 150.633 1059.52 150.633ZM1076.9 63.6666C1078.4 63.6666 1079.83 61.3502 1081.19 56.7174C1082.48 52.0846 1083.13 46.7024 1083.13 40.5708C1083.13 38.7314 1082.99 36.1424 1082.72 32.8041C1080.2 37.3006 1078.29 41.8994 1077 46.6003C1075.64 51.233 1074.95 55.1504 1074.95 58.3525C1074.95 61.8271 1075.6 63.5984 1076.9 63.6666ZM1111.64 107.405C1114.84 99.2981 1116.45 92.928 1116.45 88.2952C1116.45 85.5019 1115.8 84.1053 1114.5 84.1053C1113.41 84.1053 1112.56 85.3316 1111.95 87.7842C1111.34 90.2369 1111.03 93.4049 1111.03 97.2882C1111.03 100.354 1111.23 103.726 1111.64 107.405Z" fill="white"/>
<path d="M791.212 149.407C774.793 149.407 760.725 146.001 749.006 139.188C737.288 132.307 728.466 123.314 722.538 112.209C716.611 101.036 713.647 89.1473 713.647 76.5434C713.647 64.0077 716.577 52.2555 722.436 41.2867C728.295 30.2498 736.914 21.3249 748.291 14.512C759.737 7.63094 773.567 4.19043 789.782 4.19043C802.181 4.19043 813.218 6.20024 822.892 10.2198C832.635 14.1713 840.163 19.3151 845.477 25.6511C850.791 31.9871 853.448 38.5615 853.448 45.3744C853.448 51.3698 851.166 56.9904 846.601 62.2364C842.037 67.4823 835.224 71.7063 826.163 74.9084C814.308 70.8887 799.865 68.8789 782.832 68.8789C777.518 68.8789 773.363 69.6965 770.365 71.3316C767.435 72.8985 765.971 74.738 765.971 76.85C765.971 79.0983 767.572 81.0059 770.774 82.5729C773.976 84.1398 778.438 84.9233 784.161 84.9233C800.512 84.9233 814.444 83.0498 825.958 79.3027C834.747 82.5047 841.287 86.6606 845.579 91.7703C849.94 96.88 852.12 102.432 852.12 108.428C852.12 115.104 849.531 121.611 844.353 127.947C839.243 134.283 831.988 139.461 822.586 143.48C813.252 147.432 802.794 149.407 791.212 149.407ZM784.161 80.7334C779.801 80.7334 776.394 80.3246 773.942 79.5071C771.557 78.6895 770.365 77.8038 770.365 76.85C770.365 75.8962 771.455 75.0446 773.635 74.2952C775.883 73.4776 778.949 73.0689 782.832 73.0689C796.526 73.0689 808.483 74.3974 818.702 77.0544C808.347 79.5752 796.833 80.8015 784.161 80.7334Z" fill="white"/>
<path d="M605.959 143.377C598.261 143.377 591.652 140.073 586.134 133.465C580.615 126.788 576.425 118.17 573.564 107.61C570.771 96.9816 569.374 85.6722 569.374 73.6815C569.374 61.827 570.771 50.756 573.564 40.4686C576.425 30.1129 580.718 21.7331 586.44 15.3289C592.163 8.85669 599.146 5.62056 607.39 5.62056C616.315 5.62056 623.503 8.20946 628.953 13.3873C624.797 20.2002 622.719 27.5922 622.719 35.5633C622.719 40.6048 623.571 44.7947 625.274 48.1331C627.045 51.4714 629.464 53.1406 632.53 53.1406C635.05 53.1406 637.162 51.3351 638.866 47.7243C640.637 44.1135 641.523 39.7873 641.523 34.7457C641.523 30.9986 640.909 27.2175 639.683 23.4022C638.525 19.5189 636.754 16.0443 634.369 12.9785C640.773 4.59863 649.732 0.408691 661.246 0.408691C671.125 0.408691 679.505 3.84921 686.386 10.7302C693.335 17.5431 698.513 26.468 701.919 37.5049C705.325 48.4737 707.029 60.26 707.029 72.8639C707.029 84.7184 705.496 95.9596 702.43 106.588C699.364 117.148 694.834 125.732 688.838 132.341C682.843 138.881 675.723 142.151 667.48 142.151C656.17 142.151 647.382 138.029 641.114 129.786C644.588 123.79 646.326 116.943 646.326 109.245C646.326 104.203 645.508 99.9452 643.873 96.4706C642.306 92.996 640.33 91.2587 637.946 91.2587C635.425 91.2587 633.381 92.8257 631.814 95.9596C630.315 99.0936 629.566 103.045 629.566 107.814C629.566 116.058 631.61 123.382 635.698 129.786C629.157 138.847 619.244 143.377 605.959 143.377ZM632.53 48.9506C630.69 48.9506 629.259 47.8265 628.237 45.5782C627.216 43.2618 626.705 40.2642 626.705 36.5852C626.705 29.9086 628.442 23.3682 631.916 16.964C635.527 22.2781 637.333 28.546 637.333 35.7677C637.333 39.3785 636.856 42.4784 635.902 45.0673C635.016 47.6562 633.892 48.9506 632.53 48.9506ZM638.355 125.391C635.153 119.328 633.552 113.026 633.552 106.486C633.552 103.284 633.96 100.661 634.778 98.6167C635.664 96.5047 636.72 95.4487 637.946 95.4487C639.036 95.4487 640.024 96.675 640.909 99.1276C641.863 101.512 642.34 104.476 642.34 108.018C642.34 114.286 641.012 120.077 638.355 125.391Z" fill="white"/>
<path d="M463.739 144.4C452.77 144.4 444.391 139.733 438.6 130.399C432.809 121.066 429.913 109.211 429.913 94.836C429.913 81.0058 432.502 67.2097 437.68 53.4476C442.926 39.6856 450.522 28.308 460.469 19.315C470.484 10.322 482.134 5.82544 495.419 5.82544C509.249 5.82544 521.274 10.2879 531.493 19.2128C541.713 28.1377 549.548 39.4812 554.998 53.2432C560.448 67.0053 563.173 80.7333 563.173 94.4272C563.173 108.394 560.312 119.907 554.589 128.969C548.866 138.03 540.623 142.56 529.858 142.56C517.868 142.56 508.602 138.507 502.062 130.399C506.218 123.859 508.33 116.739 508.398 109.041C508.398 104.408 507.512 100.491 505.741 97.2886C503.969 94.0866 501.755 92.4856 499.098 92.4856C496.305 92.4856 494.022 94.0185 492.251 97.0843C490.548 100.15 489.696 103.931 489.696 108.428C489.696 112.039 490.241 115.786 491.331 119.669C492.49 123.484 494.261 127.061 496.645 130.399C493.443 134.691 489.083 138.098 483.565 140.619C478.046 143.139 471.438 144.4 463.739 144.4ZM492.66 73.4776C492.932 73.8863 493.477 74.0907 494.295 74.0907C495.249 74.0907 496.1 73.7501 496.85 73.0688C499.234 70.6843 501.006 67.6866 502.164 64.0758C503.39 60.3968 504.003 56.5475 504.003 52.5279C504.003 45.1018 502.3 39.0383 498.894 34.3374C498.349 33.6561 497.736 33.2474 497.054 33.1111C496.373 32.9067 495.828 33.043 495.419 33.5199C495.01 33.9287 494.772 34.3374 494.704 34.7462C494.704 35.2912 495.078 36.0407 495.828 36.9945C497.054 39.1065 498.076 41.6272 498.894 44.5568C499.779 47.4863 500.222 50.4159 500.222 53.3454C500.222 56.82 499.677 60.0221 498.587 62.9516C497.565 65.8812 495.93 68.2657 493.682 70.1052C493.137 70.6502 492.762 71.2634 492.558 71.9447C492.353 72.5578 492.387 73.0688 492.66 73.4776ZM499.302 126.414C495.828 120.555 494.091 114.287 494.091 107.61C494.091 104.408 494.533 101.785 495.419 99.7413C496.373 97.6974 497.599 96.6755 499.098 96.6755C500.461 96.6755 501.653 97.7996 502.675 100.048C503.697 102.296 504.208 105.089 504.208 108.428C504.208 114.559 502.573 120.555 499.302 126.414Z" fill="white"/>
<path d="M396.862 148.794C394.001 149.066 391.889 149.203 390.526 149.203C382.691 149.203 375.947 147.431 370.292 143.889C364.705 140.346 360.243 135.713 356.905 129.99C360.515 123.586 362.321 116.807 362.321 109.654C362.321 105.157 361.537 101.512 359.97 98.719C358.472 95.8576 356.325 94.4269 353.532 94.4269C351.284 94.4269 349.479 95.6872 348.116 98.208C346.821 100.661 346.174 103.931 346.174 108.019C346.174 115.581 348.048 122.905 351.795 129.99C348.865 134.487 344.948 138.098 340.043 140.823C335.205 143.48 329.38 144.808 322.568 144.808C315.346 144.808 308.976 141.47 303.457 134.793C298.007 128.117 293.851 119.328 290.99 108.427C288.196 97.5267 286.8 86.0811 286.8 74.0903C286.8 62.0996 288.265 50.8924 291.194 40.4687C294.124 29.9768 298.62 21.4947 304.684 15.0225C310.747 8.4821 318.105 5.2119 326.757 5.2119C333.025 5.2119 338.373 7.11952 342.802 10.9347C347.298 14.6818 350.875 19.4849 353.532 25.344C349.649 32.5657 347.673 39.4467 347.605 45.9871C347.605 49.1892 348.184 51.744 349.342 53.6516C350.569 55.5592 352.238 56.5131 354.35 56.5131C356.734 56.5131 358.54 55.2186 359.766 52.6297C361.06 50.0408 361.708 46.7365 361.708 42.7169C361.708 36.9941 360.584 31.2713 358.335 25.5484C362.355 18.8718 367.601 13.3193 374.073 8.89087C380.613 4.46248 388.346 2.24829 397.271 2.24829C405.923 2.24829 412.396 5.24597 416.688 11.2413C421.048 17.1685 423.228 24.6627 423.228 33.7239C423.228 42.3763 421.389 50.8924 417.71 59.2723C414.099 67.584 409.296 73.8519 403.3 78.0759C399.145 75.8276 394.614 74.7035 389.709 74.7035C386.507 74.7035 383.952 75.3167 382.044 76.543C380.205 77.7012 379.285 79.0297 379.285 80.5285C379.285 82.2318 380.171 83.6965 381.942 84.9229C383.781 86.0811 386.37 86.6601 389.709 86.6601C394.478 86.6601 399.076 85.3316 403.505 82.6746C408.819 85.8767 412.941 90.6457 415.87 96.9817C418.8 103.318 420.265 110.062 420.265 117.216C420.265 125.46 418.255 132.545 414.235 138.472C410.284 144.399 404.493 147.84 396.862 148.794ZM354.35 52.3231C353.396 52.3231 352.647 51.8122 352.101 50.7902C351.625 49.7002 351.386 48.3376 351.386 46.7025C351.386 42.4103 352.783 37.0963 355.576 30.7603C356.939 35.3931 357.654 39.7874 357.722 43.9433C357.722 46.464 357.381 48.5079 356.7 50.0749C356.087 51.5737 355.304 52.3231 354.35 52.3231ZM389.709 82.4702C387.733 82.4702 386.2 82.2999 385.11 81.9592C384.02 81.6186 383.475 81.1417 383.475 80.5285C383.475 80.1198 384.02 79.7451 385.11 79.4044C386.2 79.0638 387.733 78.8934 389.709 78.8934C392.774 78.8934 395.84 79.4385 398.906 80.5285C395.977 81.7549 392.911 82.4021 389.709 82.4702ZM354.554 125.391C351.625 119.055 350.16 112.822 350.16 106.69C350.16 104.169 350.466 102.194 351.08 100.763C351.693 99.3321 352.51 98.6168 353.532 98.6168C354.895 98.6168 356.019 99.6047 356.905 101.58C357.858 103.488 358.335 106.043 358.335 109.245C358.335 114.559 357.075 119.941 354.554 125.391Z" fill="white"/>
<path d="M180.822 144.4C169.853 144.4 161.474 139.733 155.683 130.399C149.892 121.066 146.996 109.211 146.996 94.836C146.996 81.0058 149.585 67.2097 154.763 53.4476C160.009 39.6856 167.605 28.308 177.552 19.315C187.567 10.322 199.217 5.82544 212.502 5.82544C226.332 5.82544 238.357 10.2879 248.576 19.2128C258.796 28.1377 266.631 39.4812 272.081 53.2432C277.531 67.0053 280.256 80.7333 280.256 94.4272C280.256 108.394 277.395 119.907 271.672 128.969C265.949 138.03 257.706 142.56 246.941 142.56C234.951 142.56 225.685 138.507 219.145 130.399C223.301 123.859 225.413 116.739 225.481 109.041C225.481 104.408 224.595 100.491 222.824 97.2886C221.052 94.0866 218.838 92.4856 216.181 92.4856C213.388 92.4856 211.106 94.0185 209.334 97.0843C207.631 100.15 206.779 103.931 206.779 108.428C206.779 112.039 207.324 115.786 208.414 119.669C209.573 123.484 211.344 127.061 213.728 130.399C210.526 134.691 206.166 138.098 200.648 140.619C195.129 143.139 188.521 144.4 180.822 144.4ZM209.743 73.4776C210.015 73.8863 210.56 74.0907 211.378 74.0907C212.332 74.0907 213.183 73.7501 213.933 73.0688C216.317 70.6843 218.089 67.6866 219.247 64.0758C220.473 60.3968 221.086 56.5475 221.086 52.5279C221.086 45.1018 219.383 39.0383 215.977 34.3374C215.432 33.6561 214.819 33.2474 214.137 33.1111C213.456 32.9067 212.911 33.043 212.502 33.5199C212.093 33.9287 211.855 34.3374 211.787 34.7462C211.787 35.2912 212.162 36.0407 212.911 36.9945C214.137 39.1065 215.159 41.6272 215.977 44.5568C216.862 47.4863 217.305 50.4159 217.305 53.3454C217.305 56.82 216.76 60.0221 215.67 62.9516C214.648 65.8812 213.013 68.2657 210.765 70.1052C210.22 70.6502 209.845 71.2634 209.641 71.9447C209.436 72.5578 209.47 73.0688 209.743 73.4776ZM216.386 126.414C212.911 120.555 211.174 114.287 211.174 107.61C211.174 104.408 211.616 101.785 212.502 99.7413C213.456 97.6974 214.682 96.6755 216.181 96.6755C217.544 96.6755 218.736 97.7996 219.758 100.048C220.78 102.296 221.291 105.089 221.291 108.428C221.291 114.559 219.656 120.555 216.386 126.414Z" fill="white"/>
<path d="M68.8779 147.159C55.5246 147.159 43.9427 144.229 34.1321 138.37C24.3896 132.511 16.8955 124.131 11.6495 113.23C6.47172 102.33 3.88281 89.4875 3.88281 74.7035C3.88281 59.647 6.64204 46.6685 12.1605 35.7678C17.7471 24.8672 25.8204 16.5214 36.3804 10.7304C46.9404 4.93943 59.5442 2.04395 74.192 2.04395C88.2947 2.04395 100.319 3.88343 110.266 7.5624C120.213 11.1732 127.707 15.8401 132.749 21.5629C137.79 27.2857 140.311 33.2811 140.311 39.549C140.311 44.9993 138.438 50.0408 134.691 54.6736C131.012 59.2383 125.698 62.8491 118.748 65.5061C110.096 61.8953 100.456 60.0899 89.8276 60.0899C86.0805 60.0899 83.1509 60.7712 81.0389 62.1337C78.9951 63.4282 77.9731 64.9611 77.9731 66.7324C77.9731 68.7082 79.1313 70.4455 81.4477 71.9443C83.8322 73.375 87.2727 74.0904 91.7692 74.0904C101.989 74.0904 110.914 72.7619 118.544 70.1048C125.493 73.3069 130.807 77.6672 134.486 83.1856C138.233 88.7041 140.107 94.6653 140.107 101.069C140.107 108.904 137.416 116.33 132.034 123.348C126.651 130.297 118.578 136.02 107.814 140.516C97.1174 144.945 84.1388 147.159 68.8779 147.159ZM81.0389 46.9069C81.5158 47.3157 82.0268 47.5201 82.5718 47.5201C83.3894 47.5201 84.0707 47.1794 84.6157 46.4981C88.3628 41.4566 90.2363 36.5513 90.2363 31.7823C90.2363 28.0352 89.0782 24.0496 86.7618 19.8256C86.353 19.1443 85.842 18.7015 85.2289 18.4971C84.6838 18.2927 84.1388 18.3949 83.5938 18.8037C83.185 19.2125 82.9806 19.7234 82.9806 20.3366C82.9806 20.7454 83.0487 21.1541 83.185 21.5629C83.3213 21.9717 83.4575 22.3123 83.5938 22.5848C84.9563 26.7407 85.6376 30.0109 85.6376 32.3954C85.6376 35.7337 84.241 39.4468 81.4477 43.5345C80.4939 44.8971 80.3576 46.0212 81.0389 46.9069ZM91.7692 69.9004C88.7034 69.9004 86.3189 69.6279 84.6157 69.0829C82.9125 68.5379 82.0609 67.8225 82.0609 66.9368C82.0609 66.1193 82.7422 65.4721 84.1047 64.9952C85.5354 64.5183 87.4431 64.2798 89.8276 64.2798C97.7987 64.2798 105.259 65.3699 112.208 67.55C106.076 69.117 99.2634 69.9004 91.7692 69.9004ZM81.0389 117.42C81.5158 117.829 82.0268 118.034 82.5718 118.034C83.3894 118.034 84.0707 117.693 84.6157 117.012C88.3628 111.97 90.2363 107.065 90.2363 102.296C90.2363 98.5487 89.0782 94.5972 86.7618 90.4413C86.353 89.7601 85.842 89.3172 85.2289 89.1128C84.6838 88.8403 84.1388 88.9084 83.5938 89.3172C83.185 89.726 82.9806 90.237 82.9806 90.8501C82.9806 91.2589 83.0487 91.6677 83.185 92.0764C83.3213 92.4852 83.4575 92.8259 83.5938 93.0984C84.9563 97.2542 85.6376 100.559 85.6376 103.011C85.6376 106.349 84.241 110.028 81.4477 114.048C80.4939 115.411 80.3576 116.535 81.0389 117.42Z" fill="white"/>
</g>
<defs>
<filter id="filter0_d_57_727" x="0.573843" y="0" width="1174.57" height="157.251" filterUnits="userSpaceOnUse" color-interpolation-filters="sRGB">
<feFlood flood-opacity="0" result="BackgroundImageFix"/>
<feColorMatrix in="SourceAlpha" type="matrix" values="0 0 0 0 0 0 0 0 0 0 0 0 0 0 0 0 0 0 127 0" result="hardAlpha"/>
<feOffset dy="3.30897"/>
<feGaussianBlur stdDeviation="1.65448"/>
<feComposite in2="hardAlpha" operator="out"/>
<feColorMatrix type="matrix" values="0 0 0 0 0 0 0 0 0 0 0 0 0 0 0 0 0 0 0.25 0"/>
<feBlend mode="normal" in2="BackgroundImageFix" result="effect1_dropShadow_57_727"/>
<feBlend mode="normal" in="SourceGraphic" in2="effect1_dropShadow_57_727" result="shape"/>
</filter>
</defs>
</svg>
