<svg width="97" height="97" viewBox="0 0 97 97" fill="none" xmlns="http://www.w3.org/2000/svg">
<path d="M94.3129 25.6544C97.9932 31.6567 95.8548 39.5173 89.646 42.8305L75.1312 50.5768C73.5618 51.4166 71.6667 50.2784 71.6667 48.4979C71.6667 46.722 73.5618 45.5839 75.1312 46.4237L89.646 54.1697C95.8548 57.4829 97.9932 65.3438 94.3129 71.3461L91.3852 76.114C87.994 81.6437 80.748 83.3644 75.2322 79.9411L60.6899 70.9239C59.8226 70.387 59.8364 69.1297 60.7129 68.6111C61.6031 68.088 62.7274 68.7119 62.7504 69.7444L63.1313 85.9114C63.2735 91.9963 58.3817 96.998 52.2968 96.998H43.6651C37.5848 96.998 32.693 91.9963 32.8353 85.9114L33.2116 69.7444C33.2391 68.7119 34.3634 68.088 35.2536 68.6111C36.1255 69.1297 36.1393 70.387 35.2766 70.9239L20.7756 79.9183C15.246 83.3462 7.98633 81.5977 4.62266 76.0313L1.78669 71.3416C-1.84773 65.3301 0.304483 57.5014 6.5041 54.1928L21.0647 46.4237C22.6341 45.5839 24.5294 46.722 24.5294 48.4979C24.5294 50.2784 22.6341 51.4166 21.0647 50.5768L6.5041 42.8077C0.304483 39.4991 -1.84773 31.6704 1.78669 25.6544L4.62266 20.9691C7.98633 15.4028 15.246 13.6543 20.7756 17.0822L35.2766 26.0765C36.1393 26.6088 36.1255 27.8708 35.2536 28.3894C34.3634 28.9125 33.2391 28.2883 33.2116 27.2558L32.8353 11.0846C32.693 5.00429 37.5848 0.00219727 43.6651 0.00219727H52.2968C58.3817 0.00219727 63.2735 5.00429 63.1313 11.0846L62.7504 27.2558C62.7274 28.2883 61.6031 28.9125 60.7129 28.3894C59.8364 27.8708 59.8226 26.6088 60.6899 26.0765L75.2322 17.0594C80.748 13.636 87.994 15.3522 91.3852 20.8864L94.3129 25.6544Z" fill="white"/>
</svg>
